<?xml version="1.0" encoding="UTF-8" standalone="no"?>
<!DOCTYPE svg PUBLIC "-//W3C//DTD SVG 1.1//EN"
"http://www.w3.org/Graphics/SVG/1.1/DTD/svg11.dtd">


<!-- Page 1 -->
<svg x="0" y="0" width="1818" height="1286" viewBox="0 0 1818 1286" version="1.1" xmlns="http://www.w3.org/2000/svg" xmlns:xlink="http://www.w3.org/1999/xlink"
style="display: block;margin-left: auto;margin-right: auto;">
<defs>
<clipPath id="c_1"><path d="M0,0H1818V1286H0Z"/></clipPath>
<clipPath id="c0"><path d="M121.6,1268.2V52.5H1684V1268.2Z"/></clipPath>

<style type="text/css"><![CDATA[
text { white-space: pre; }
path, image { pointer-events: none; }

.s1{
font-size: 16.80px;
font-family: Carlito-Bold_z;
fill: #FFF;
}
.s2{
font-size: 15.29px;
font-family: Carlito-Bold_z;
fill: #FF0;
}
.s3{
font-size: 15.29px;
font-family: Carlito_f;
fill: #000;
}
.s4{
font-size: 16.80px;
font-family: Carlito_f;
fill: #000;
}
.s5{
font-size: 16.80px;
font-family: Carlito-Bold_z;
fill: #000;
}
.s6{
font-size: 16.80px;
font-family: Carlito_f;
fill: #FFF;
}
.s7{
font-size: 16.80px;
font-family: Carlito-BoldItalic_p;
fill: #000;
}
.s8{
font-size: 13.77px;
font-family: Carlito-Italic_k;
fill: #000;
}
.s9{
font-size: 15.29px;
font-family: Carlito-BoldItalic_p;
fill: #000;
}
.sa{
font-size: 15.29px;
font-family: Carlito-Bold_z;
fill: #000;
}
.sb{
font-size: 18.32px;
font-family: Carlito-Bold_z;
fill: #000;
}
.sc{
font-size: 13.77px;
font-family: Carlito_f;
fill: #000;
}
.sd{
font-size: 13.77px;
font-family: Carlito-Bold_z;
fill: #000;
}
.se{
font-size: 9.79px;
font-family: Carlito-Bold_z;
fill: #000;
}
.sf{
font-size: 13.77px;
font-family: Carlito-BoldItalic_p;
fill: #000;
}
.sg{
font-size: 9.79px;
font-family: Carlito_f;
fill: #000;
}
.sh{
font-size: 16.80px;
font-family: Carlito_f;
fill: #FF0;
}
.si{
font-size: 9.79px;
font-family: Carlito_f;
fill: #FF0;
}
.sj{
font-size: 10.83px;
font-family: LiberationSerif_a;
fill: #000;
}
.sk{
font-size: 18.49px;
font-family: LiberationSerif-Italic_5;
fill: #000;
}
.sl{
font-size: 18.49px;
font-family: OpenSymbol_u;
fill: #000;
}
.sm{
font-size: 10.39px;
font-family: LiberationSerif-Italic_5;
fill: #000;
}
.sn{
font-size: 17.89px;
font-family: LiberationSerif-Italic_5;
fill: #000;
}
.so{
font-size: 17.89px;
font-family: OpenSymbol_u;
fill: #000;
}
.sp{
font-size: 18.49px;
font-family: LiberationSerif_a;
fill: #000;
}
.sq{
font-size: 18.32px;
font-family: LiberationSerif_a;
fill: #000;
}
.sr{
font-size: 18.79px;
font-family: LiberationSerif_a;
fill: #000;
}
.ss{
font-size: 18.92px;
font-family: LiberationSerif_a;
fill: #000;
}
.st{
font-size: 18.92px;
font-family: OpenSymbol_u;
fill: #000;
}
.su{
font-size: 18.92px;
font-family: LiberationSerif-Italic_5;
fill: #000;
}
.sv{
font-size: 19.58px;
font-family: LiberationSerif_a;
fill: #000;
}
.sw{
font-size: 19.58px;
font-family: OpenSymbol_u;
fill: #000;
}
.sx{
font-size: 19.58px;
font-family: LiberationSerif-Italic_5;
fill: #000;
}
.sy{
font-size: 10.83px;
font-family: OpenSymbol_u;
fill: #000;
}
.sz{
font-size: 18.32px;
font-family: LiberationSerif-Italic_5;
fill: #000;
}
.s10{
font-size: 18.32px;
font-family: OpenSymbol_u;
fill: #000;
}
.s11{
font-size: 11.00px;
font-family: LiberationSerif-Italic_5;
fill: #000;
}
.s12{
font-size: 18.79px;
font-family: LiberationSerif-Italic_5;
fill: #000;
}
.s13{
font-size: 11.00px;
font-family: OpenSymbol_u;
fill: #000;
}
.s14{
font-size: 18.79px;
font-family: OpenSymbol_u;
fill: #000;
}
.s15{
font-size: 20.18px;
font-family: LiberationSerif-Italic_5;
fill: #000;
}
.s16{
font-size: 20.18px;
font-family: OpenSymbol_u;
fill: #000;
}
.s17{
font-size: 11.78px;
font-family: LiberationSerif-Italic_5;
fill: #000;
}
.s18{
font-size: 16.67px;
font-family: LiberationSerif_a;
fill: #000;
}
.s19{
font-size: 9.61px;
font-family: LiberationSerif_a;
fill: #000;
}
.s1a{
font-size: 16.67px;
font-family: LiberationSerif-Italic_5;
fill: #000;
}
.s1b{
font-size: 16.67px;
font-family: OpenSymbol_u;
fill: #000;
}
.s1c{
font-size: 9.61px;
font-family: OpenSymbol_u;
fill: #000;
}
.s1d{
font-size: 20.48px;
font-family: LiberationSerif-Italic_5;
fill: #000;
}
.s1e{
font-size: 20.48px;
font-family: OpenSymbol_u;
fill: #000;
}
.s1f{
font-size: 18.62px;
font-family: LiberationSerif-Italic_5;
fill: #000;
}
.s1g{
font-size: 18.62px;
font-family: OpenSymbol_u;
fill: #000;
}
.s1h{
font-size: 18.62px;
font-family: LiberationSerif_a;
fill: #000;
}
.s1i{
font-size: 20.18px;
font-family: LiberationSerif_a;
fill: #000;
}
.s1j{
font-size: 11.30px;
font-family: LiberationSerif_a;
fill: #000;
}
.s1k{
font-size: 11.30px;
font-family: OpenSymbol_u;
fill: #000;
}
.s1l{
font-size: 11.30px;
font-family: LiberationSerif-Italic_5;
fill: #000;
}
.s1m{
font-size: 6.58px;
font-family: LiberationSerif-Italic_5;
fill: #000;
}

.g0{
fill: #00B050;
}
.g1{
fill: #FF0000;
}
.g2{
fill: #DDD9C3;
}
.g3{
fill: #002060;
}
.g4{
fill: #E6E0EC;
}
.g5{
fill: none;
stroke: #000000;
stroke-width: 2.673;
stroke-linecap: butt;
stroke-linejoin: round;
}
.g6{
fill: none;
stroke: #000000;
stroke-width: 1.145;
stroke-linecap: butt;
stroke-linejoin: round;
}
.g7{
fill: none;
stroke: #000000;
stroke-width: 0.909;
stroke-linecap: butt;
stroke-linejoin: miter;
}
.g8{
fill: #FFFFFF;
}
.g9{
fill: none;
stroke: #4A7EBB;
stroke-width: 1.125;
stroke-linecap: butt;
stroke-linejoin: round;
}
.ga{
fill: #4A7EBB;
}
.gb{
fill: none;
stroke: #BCBCBC;
stroke-width: 1.125;
stroke-linecap: butt;
stroke-linejoin: round;
}
.gc{
fill: none;
stroke: #000000;
stroke-width: 4.59;
stroke-linecap: butt;
stroke-linejoin: round;
}
.gd{
}
.ge{
fill: none;
stroke: #000000;
stroke-width: 0.152;
stroke-linecap: butt;
stroke-linejoin: miter;
}
.gf{
fill: none;
stroke: #000000;
stroke-width: 0.152;
stroke-linecap: butt;
stroke-linejoin: miter;
stroke-miterlimit: 1;
}
.gg{
fill: none;
stroke: #FFFF99;
stroke-width: 0.152;
stroke-linecap: butt;
stroke-linejoin: miter;
stroke-miterlimit: 1;
}

]]></style>

</defs>
<path d="M0,0
L0,1286
L1818,1286
L1818,0 Z " 
fill="#FFFFFF" stroke="none"/>
<g clip-path="url(#c_1)">
<path fill-rule="evenodd" d="M139.6,92.5H507.8V65H139.6V92.5Z" class="g0"/>
<path fill-rule="evenodd" d="M518.6,92.5h73.7V65H518.6V92.5Z" class="g1"/>
<path fill-rule="evenodd" d="M909.3,92.5h147.3V65H909.3V92.5Z" class="g1"/>
<path fill-rule="evenodd" d="M139.6,115.4H507.8V92.5H139.6v22.9Z" class="g0"/>
<path fill-rule="evenodd" d="M518.6,115.4H896V92.5H518.6v22.9Z" class="g0"/>
<path fill-rule="evenodd" d="M909.3,115.4h368.1V92.5H909.3v22.9Z" class="g0"/>
<path fill-rule="evenodd" d="M139.6,161.2H507.8V115.4H139.6v45.8Z" class="g0"/>
<path fill-rule="evenodd" d="M139.6,184.1H507.8V161.2H139.6v22.9Z" class="g0"/>
<path fill-rule="evenodd" d="M909.3,184.1h368.1V161.2H909.3v22.9Z" class="g0"/>
<path fill-rule="evenodd" d="M139.6,207.1H507.8v-23H139.6v23Z" class="g0"/>
<path fill-rule="evenodd" d="M139.6,234.6H507.8V207H139.6v27.6Z" class="g0"/>
<path fill-rule="evenodd" d="M748.7,234.6h73.7V207H748.7v27.6Z" class="g0"/>
<path fill-rule="evenodd" d="M909.3,234.6h147.3V207H909.3v27.6Z" class="g2"/>
<path fill-rule="evenodd" d="M1056.5,234.6h73.7V207h-73.7v27.6Z" class="g3"/>
<path fill-rule="evenodd" d="M139.6,257.5H507.8v-23H139.6v23Z" class="g0"/>
<path fill-rule="evenodd" d="M909.3,257.5h147.3v-23H909.3v23Z" class="g2"/>
<path fill-rule="evenodd" d="M1056.5,257.5h73.7v-23h-73.7v23Z" class="g4"/>
<path fill-rule="evenodd" d="M139.6,280.4H507.8v-23H139.6v23Z" class="g0"/>
<path fill-rule="evenodd" d="M909.3,280.4h147.3v-23H909.3v23Z" class="g2"/>
<path fill-rule="evenodd" d="M139.6,303.3H507.8v-23H139.6v23Z" class="g0"/>
<path fill-rule="evenodd" d="M909.3,303.3h147.3v-23H909.3v23Z" class="g2"/>
<path fill-rule="evenodd" d="M139.6,326.2H507.8v-23H139.6v23Z" class="g0"/>
<path fill-rule="evenodd" d="M139.6,350.2H507.8V326.1H139.6v24.1Z" class="g0"/>
<path fill-rule="evenodd" d="M139.6,389.2h73.7V361.6H139.6v27.6Z" class="g1"/>
<path fill-rule="evenodd" d="M518.6,389.2H669.9V361.6H518.6v27.6Z" class="g1"/>
<path fill-rule="evenodd" d="M909.3,556.4h147.3V412H909.3V556.4Z" class="g2"/>
<path fill-rule="evenodd" d="M139.6,688.1H434.2V664H139.6v24.1Z" class="g1"/>
<path fill-rule="evenodd" d="M518.6,688.1H669.9V664H518.6v24.1Z" class="g1"/>
<path fill-rule="evenodd" d="M909.3,688.1h147.3V664H909.3v24.1Z" class="g2"/>
<path fill-rule="evenodd" d="M1290.7,688.1h319.2V664H1290.7v24.1Z" class="g2"/>
<path fill-rule="evenodd" d="M139.6,1014.6h73.7V989.3H139.6v25.3Z" class="g1"/>
<path fill-rule="evenodd" d="M1290.7,1014.6h73.7V989.3h-73.7v25.3Z" class="g1"/>
<path fill-rule="evenodd" d="M909.3,1060.4h147.3v-23H909.3v23Z" class="g2"/>
<path d="M138.4,65.1H509.2M139.8,63.7v288M507.9,63.7v288M517.4,65.1h380M518.8,63.7v288m73.6,-288V93.9M896.1,63.7v288m12,-286.6h370.8M909.4,63.7v288m147.2,-288V93.9M1277.5,63.7v288m12,-286.6h395.4m-394,-1.4v288m171.8,-288V93.9M1683.6,63.7v288m0,-288v288M517.4,92.6h76.3m314.4,0H1058m231.5,0H1464" class="g5"/>
<path d="M1289.5,161.3h247.4m-172.4,-.5V281m98.2,-120.2V281m73.6,-120.2V281M1289.5,184.2h247.4M908.1,207.1h149.1m-.6,-.5v97.3m232.9,-96.8h247.4m-247.4,27.5h247.4m-247.4,22.9h247.4M287,280.5H434.2m855.3,0h247.4M287,303.4h73.6m547.5,0h149.1M287,326.3h73.6" class="g6"/>
<path d="M138.4,350.3H509.2m8.2,0h380m10.7,0h370.8m10.6,0h395.4M138.4,361.7H509.2M139.8,360.4V652.9M507.9,360.4V652.9m9.5,-291.2h380M518.8,360.4V652.9M896.1,360.4V652.9m12,-291.2h370.8M909.4,360.4V652.9M1277.5,360.4V652.9m12,-291.2h395.4m-394,-1.3V652.9" class="g5"/>
<path d="M1462.7,360.4V652.9" class="g6"/>
<path d="M1683.6,360.4V979.3m0,-618.9V979.3M908.1,389.2h370.8" class="g5"/>
<path d="M1289.5,389.2h395.4m-148.6,-.5V652.9m73.6,-264.2V652.9M1462.1,412.2h222.8m-222.8,27.5h222.8m-222.8,24h222.8m-222.8,22.9h222.8m-222.8,24h222.8m-395.4,22.9h75m97.6,0h222.8m-222.8,23h222.8m-395.4,22.9h75m97.6,0h222.8m-222.8,22.9h222.8" class="g6"/>
<path d="M1289.5,626.3h75" class="g5"/>
<path d="M1462.1,626.3h222.8" class="g6"/>
<path d="M138.4,651.5H509.2m8.2,0h380m10.7,0h370.8m10.6,0h395.4M138.4,664.1H509.2M139.8,662.8V979.3M507.9,662.8V979.3m9.5,-315.2h380M518.8,662.8V979.3" class="g5"/>
<path d="M670,662.8v25.9" class="g6"/>
<path d="M896.1,662.8V979.3m12,-315.2h370.8M909.4,662.8V979.3M1277.5,662.8V979.3m12,-315.2h395.4m-394,-1.3V979.3m319,-316.5v26.7" class="g5"/>
<path d="M517.4,688.2H670.6" class="g6"/>
<path d="M1289.5,688.2h321.8M138.4,978H509.2m8.2,0h380m10.7,0h370.8m10.6,0h395.4M138.4,989.4H509.2M139.8,988.1v281m368.1,-281v281m9.5,-279.7h380M518.8,988.1v281m377.3,-281v281m12,-279.7h370.8M909.4,988.1v281M983,988.1V1016m220.9,-27.9V1016m73.6,-27.9v281m12,-279.7h395.4m-394,-1.3v281m392.7,-281v281m0,-281v281M981.7,1014.6h223.5M138.4,1267.8H509.2m8.2,0h380m10.7,0h370.8m10.6,0h395.4m-1546.5,0H509.2m8.2,0h380m10.7,0h370.8m10.6,0h395.4" class="g5"/>
<text x="529.5" y="86.8" dx="0,-.1,-.1,0,0,0,0" class="s1">Deﬁnisi </text>
<text x="923.1" y="86.8" dx="0,-.1,-.1,0,0,0,0,0,-.1,0,0,0,0,-.1,0,0,0,0" class="s1">Jenis jenis matrik </text>
<text x="520.4" y="110.2" dx="0,0,0,0,.1,0,0,0,0,0,0,0,0,0,0,0,0,.1,.1,0,0,-.1,0,0,0,0,0,.1,0,0,0,0,0,0,0,0,0,0,0,0,.1,.1,0,0,0,0,0,0,0,0,.1,0" class="s2">adalah susunan bilangan dalam bentuk baris dan kolom </text>
<text x="612.3" y="151.4" class="s3">i=3; </text>
<text x="649.3" y="151.4" class="s3">j=3 </text>
<text x="1323.8" y="178.4" class="s4">ij </text>
<text x="1392.7" y="178.4" dx="0,-.1,0,0,0" class="s5">minor </text>
<text x="1470.3" y="178.4" class="s5">cofaktor </text>
<text x="1576.1" y="178.4" dx="0,0,-.1,0,0,0,0,0,0" class="s4">transpose </text>
<text x="576.7" y="201.4" dx="0,.1" class="s4">A: </text>
<text x="594" y="198.5" class="s4">nama </text>
<text x="640" y="198.5" dx="0,0,0,0,-.1,0" class="s4">matrik </text>
<text x="1319.1" y="201.4" class="s5">11 </text>
<text x="594" y="228.9" dx="0,0,0,0,0,0,0,0,0,0,0,-.1,0" class="s4">elemen matrik </text>
<text x="1077.4" y="228.9" class="s6">2 x 2 </text>
<text x="1319.1" y="228.9" class="s4">12 </text>
<text x="582.5" y="251.8" dx="0,0,0,-1,0,0,0,0,-.1,0,0,0,-.1,0" class="s4">i: nomer baris </text>
<text x="750.4" y="251.8" dx="0,0,-.1,0,0,0,-.1,0,0,0,0,-.1,0,0,0,0,0,0,-.1,0" class="s4">orde : ukuran matrik </text>
<text x="1077.2" y="251.8" dx="0,0,0,.1,0" class="s5">3 x 3 </text>
<text x="1319.1" y="251.8" class="s4">21 </text>
<text x="215" y="274.7" class="s4">Nama: </text>
<text x="582.5" y="274.7" dx="0,-.1,0,-1.2,0,0,0,0,-.1,0,0,0,0,0" class="s4">j: nomer kolom </text>
<text x="1319.1" y="274.7" class="s5">22 </text>
<text x="215" y="297.6" class="s4">Kelas: </text>
<text x="215" y="320.5" dx="0,.1,0,0" class="s4">Tgl: </text>
<text x="155.4" y="383.5" dx="0,0,0,0,-.1,0" class="s1">Invers </text>
<text x="534.7" y="383.5" dx="0,-.1,-.1,0,-.1,0,-.1,0,0,0,0,0,0,0,.1,0" class="s1">Determinan 2 x 2 </text>
<text x="141.3" y="406.8" dx="0,0,0,-.1,0,0,0,0,0,0,0,0,0,0,0,0,-.1,0,0,-.1,0,0,.1,0,.1,0,-.1,0,0,0,0,0,0,-.1,0,0,0,0,.1,0,0,0,.1,.1,-.1,0,0,.1,0,0,0,0,0,.1,0,0,0,0" class="s3">jika A.B=1 ( matrik identas) maka B disebut invers dari A </text>
<text x="1495.5" y="406.4" class="s4">ij </text>
<text x="1552.4" y="406.4" dx="0,-.1,0,0,0" class="s5">minor </text>
<text x="1617.5" y="406.4" class="s5">cofaktor </text>
<text x="141.3" y="457.9" dx="0,.1,0,0,0,0,0,0,0,0,0,0,0,0,0,0,0,0,0,0,0,.1,0,-.1,0,0,0,0,0,0,0,0,0,.1,0,0,-.1,0,.1" class="s7">Berapa nilai b agar B menjadi invers A? </text>
<text x="1292.3" y="527.8" dx="0,.1,0,.1,0,0,0,0" class="s4">cofaktor </text>
<text x="141.3" y="573.5" dx="0,-.1,0,.1,0,0" class="s4">jawab: </text>
<text x="1292.3" y="573.5" dx="0,0,-.1,0,0,0,0,0,0" class="s4">transpose </text>
<text x="141.3" y="596.4" class="s4">2+3b+5=1 </text>
<text x="244.6" y="597.4" dx="0,0,0,0,0,0,0,-.1,0,0,0,0,0,0,0" class="s8">syarat invers=1 </text>
<text x="141.3" y="620.6" class="s4">3b+7=1 </text>
<text x="1292.3" y="620.6" dx="0,0,0,.1,0,-.1" class="s4">invers </text>
<text x="145.1" y="645.8" dx="0,0,0,0,0,0,0,-.1,0,0,0,0,0,0,0" class="s4">3b=-6 jadi b=-2 </text>
<text x="520.4" y="646.3" dx="0,0,0,0,0,0,0,.1,0,0,0,0,0,0,0,0,0,0,0,.1,-.1,0,0,0,.1,0,0,0,0,0,.1,0,0,0,0,0,0,0,0,0,0,0,0,.1,0,0,0,0,0,-.1,0,0" class="s9">determinan hanya bisa diteraplan pada matrik persegi </text>
<text x="141.3" y="678.3" dx="0,.1,0,0,0,-.1,0,0,0,0,-.1,-.1,0,-.1,0,0,0,0,0,0,0,0,0,0,-.1,0,0,0,0,0,.1,0" class="s1">Prosedur menentukan invers 2 x 2 </text>
<text x="534.7" y="682.5" dx="0,-.1,-.1,0,-.1,0,-.1,0,0,0,0,0,0,0,.1,0" class="s1">Determinan 3 x 3 </text>
<text x="936.2" y="682.5" class="s4">Contoh soal 1 </text>
<text x="1387.1" y="682.5" dx="0,0,0,0,0,-.1,-.1,0,0,-.1,0,0,0,-.1,0,0" class="s5">sistem persamaan </text>
<text x="911" y="701.3" dx="0,.1,0,0,0,0,0,0,0,0,0,0,0,0,0,0,0,0,0,0,0,0,0,0" class="sa">Tentukan det B dan det C </text>
<text x="141.3" y="728.1" class="s4">tentukam minor </text>
<text x="215" y="755.6" class="s4">d </text>
<text x="215" y="783.1" class="s4">c </text>
<text x="546.5" y="783.1" dx="0,.1" class="s4">A= </text>
<text x="215" y="810.6" class="s4">b </text>
<text x="215" y="838.1" class="s4">a </text>
<text x="937.1" y="838.1" class="s4">det B= </text>
<text x="141.3" y="861.1" dx="0,0,0,0,0,0,0,0,0,0,.1,0,.1,0,0,0,0" class="s4">tentukan cofaktor </text>
<text x="215" y="888.6" class="s4">d </text>
<text x="215" y="916.1" class="s4">-c </text>
<text x="520.4" y="916.1" dx="0,0,0,0,0,.1,0" class="s4">det A = </text>
<text x="594" y="916.1" dx="0,0,-.1,-.1,-.1,0,0,0,-.1,0,-.1,0,0,0,-.1,0,-.1,0,0,0,-.1,0,0,0,0,0,0,0" class="s5">a.e.i+b.f.g+c.d.h-ceg-a-bdi </text>
<text x="215" y="943.6" class="s4">-b </text>
<text x="937.3" y="943.6" class="s4">det C= </text>
<text x="215" y="972.3" class="s4">a </text>
<text x="140.9" y="1008.9" dx="0,-.1,0,0,0,0,0,0,0" class="s1">Transpose </text>
<text x="1035.1" y="1008.6" dx="0,-.1,-.1,0,.1,0,-.1,-.1,0,-.1,0,-.1,0,0,0" class="sb">perkalian dasar </text>
<text x="1292.3" y="1008.9" dx="0,0,-.1,0,0,0,0,0,0" class="s1">perkalian </text>
<text x="141.3" y="1032.6" dx="0,0,0,0,0,0,0,-.1,0,0,0,0,0,0,0,0,-.1,0,-.1,0,0,0,0,-.1,0,0,-.1,0,0,-.1,0,0,0,.1,0,0,0,-.1,0,-.1,0,-.1,0,-.1,0,0,0,-.1,0,0,0,0,0,0,0,0,0" class="sc">adalah mengubah posisi baris menjadi kolom dan sebaliknya </text>
<text x="520.4" y="1054.6" dx="0,0,-.1,0,0,0,0,0,0,0,0,0,0,0,0,0,0,0,0,0,0,0,0" class="s4">ordo 2 x 3 dengan 3 x 2 </text>
<text x="927.2" y="1054.6" dx="0,0,0,-.1,0,0,0,0,0,0,0,0,0,0,-.1,0" class="s4">perkalian matrik </text>
<text x="911" y="1077.5" dx="0,0,-.1,0,0,0,0,0,0,0,0,0,0,0,0,0,0,0,0,0,0,0,0" class="s4">ordo 1 x 3 dengan 3 x 1 </text>
<text x="1292.3" y="1077.5" dx="0,0,-.1,0,0,0,0,0,0,0,0,0,0,0,0,0,0,0,0,0,0,0,0" class="s4">ordo 2 x 3 dengan 3 x 1 </text>
<text x="141.3" y="1146.3" dx="0,0,0,0,0,0,-.1,0,0,0,0,0,0,0,-.1,0,0,0,0,0,0,0,0,0,0,-.1,0,0,0,0,0,0,0,0,0,0,0,0,0,0,0,0,-.1,0" class="s4">selanjutnya transpose dari C dinamakan adj A </text>
<text x="141.3" y="1169.2" dx="0,-.1,-.1,0,-.1,0,0,0,0,0,0,0,0,0,0,-.1,0,0,0,0,-.1,0,0,0" class="s5">menentukan invers dengan </text>
<text x="520.4" y="1170" dx="0,0,0,0,0,-.1,0,0,-.1,0" class="sd">diuraikan: </text>
<text x="520.4" y="1192.1" dx="0,0,0,-.1,0,0,0,0,0,0,0,0,0,0,0,0,0" class="s4">baris 1 x kolom 1 </text>
<text x="694.8" y="1192.1" class="s4">= 19 </text>
<text x="520.4" y="1215" dx="0,0,0,-.1,0,0,0,0,0,0,0,0,0,0,0,0,0" class="s4">barus 2 x kolom 1 </text>
<text x="696.7" y="1215" class="s4">=15 </text>
<text x="1292.3" y="1215.8" dx="0,0,0,0,0,-.1,0,0,-.1,0" class="sd">diuraikan: </text>
<text x="520.4" y="1238" dx="0,0,0,-.1,0,0,0,0,0,0,0,0,0,0,0,0,0" class="s4">baris 1 x kolom 2 </text>
<text x="667" y="1238" class="s4">=1+6+15=22 </text>
<text x="911" y="1238" dx="0,0,0,-.1,0,0,0,0,0,0,0,0,0,0,0,0,0" class="s4">baris 1 x kolom 1 </text>
<text x="1058.1" y="1238" class="s4">=1x2+3x4+5x1=19 </text>
<text x="1292.3" y="1238" dx="0,0,0,-.1,0,0,0,0,0,0,0,0,0,0,0,0,0,0,0,0" class="s4">baris 1 x kolom 1=19 </text>
<text x="520.4" y="1261.9" dx="0,0,0,-.1,0,0,0,0,0,0,0,0,0,0,0,0,0" class="s4">baris 2 x kolom 2 </text>
<text x="671.2" y="1261.9" class="s4">=3+4+3=10 </text>
<text x="1292.3" y="1261.9" dx="0,0,0,-.1,0,0,0,0,0,0,0,0,0,0,0,0,0,0,0,0" class="s4">baris 2 x kolom 1=15 </text>
<text x="1311" y="86.8" dx="0,0,-.1,0,0,0,0,0,0,0,0,0,0,-.1,0,0,0" class="s5">tentukan invers D </text>
<text x="1434.7" y="81.3" dx="0,.1" class="se">-1 </text>
<text x="911" y="110.5" dx="0,0,-.1,0,0,0,0,-.1,0,-.1,0,0" class="sd">matrik baris </text>
<path d="M911,111.9h68.3" class="g7"/>
<text x="982.4" y="110.5" dx="0,.1,.1,.1,0,.1,-.1,-.1,0,.1,0,0,0,0,-.1,0,.1,-.1,.1,-.1,-.1,.1,-.1,0,.1,-.1,0,0,0,.1,0,0,0,-.1,.1,0,.1,-.1,-.1,.1,-.1,.1,.1,0,0" class="sf">adalah matrik yang hanya terdiri atas 1 baris </text>
<text x="911" y="179.2" dx="0,0,0,0,0,0,0,-.1,0,0,0,0" class="s8">matrik kolom </text>
<path d="M911,180.6h74.1" class="g7"/>
<text x="988.2" y="179.2" class="s8">adalah </text>
<text x="1032.7" y="179.2" dx="0,0,0,0,0,0,0,-.1,0,0,0,0,-.1,0,0,0,0,0,-.1,0,0,0,0,0,0,0,-.1,0,0,0,0,-.1,.1,-.1,0,0,0,0" class="s8">matrik yang hanya terdiri atas 1 kolom </text>
<text x="573.8" y="228.9" class="s4">a</text>
<text x="581.9" y="230.2" class="sg">ij</text>
<text x="586.5" y="228.9" class="s4">: </text>
<text x="750.4" y="228.9" dx="0,0,-.1,0,0,0" class="sh">orde A</text>
<text x="796" y="230.2" dx="0,-.1,0" class="si">3x3 </text>
<text x="911" y="220.2" dx="0,0,0,-.1,0,0,-.1,0,.1,0,0,0,0,0,0" class="s3">matrik persegi </text>
<path d="M911,221.7h92.7" class="g7"/>
<text x="1007.3" y="220.2" dx="0,-.1" class="s3">: </text>
<text x="911" y="235.4" dx="0,0,0,-.1,0,0,-.1,0,0,0,.1,0,0,0,.1,0,0,0,.1" class="s3">matrik yang jumlah </text>
<text x="911" y="250.7" dx="0,-.1,0,0,0,0,.1,0,0,0,0,0,0,0" class="s3">kolomnya sama </text>
<text x="911" y="266" dx="0,.1,0,.1,0,0,.1,0,0,.1,0,0,0,.1" class="s3">dengan jumlah </text>
<text x="911" y="281.3" dx="0,.1,0,0,0,0,.1,0" class="s3">barisnya </text>
<text x="1292.3" y="383.5" dx="0,0,-.1,0,0,0,0,0,0,0,0,.1,-.2,-.1,.1,-.1,0" class="s5">tentukan invers H </text>
<text x="1416.3" y="378" dx="0,.1" class="se">-1 </text>
<text x="520.4" y="402.3" dx="0,0,0,0,0,.1,0,0,0,0,.1,0,0,0,0,0,.1,0,0,.1,.1,0,0,0,0,.1,0,0,0,0,0,0,0,0,.1,.1,0,0,.1,0,0,0,0,0,0,0,.1,0,-.1,0,0,0,.1" class="sa">det A adalah perkalian elemen matrik A pada diagonal </text>
<text x="520.4" y="417.5" dx="0,0,0,0,0,0,0,0,.1,0,0,.1,0,0,-.1,0,.1,0,0,0,.1,0,0,.1,.1,0,0,0,0,.1,0,-.1,0,0,0,.1,0,0,0,0,0,0,0,0,.1" class="sa">utama dikurangai perkalian diagonal sekunder. </text>
<text x="141.3" y="433.9" dx="0,0,0,0,0,0,0,0,0,0,0,.1,0,-.1,0,0,0,0,-.1,0,0,.1,0,0,0,0,0,0,0,0" class="s4">lambang invers dari A ditulis </text>
<text x="341.7" y="433.9" class="s4">A </text>
<text x="352" y="428.4" dx="0,.1" class="sg">-1 </text>
<text x="926.9" y="426.4" dx="0,0,0,0,-.1,0,0,0,0,0,0,0,0,0,0,0,-.1" class="s4">matrik identas: </text>
<text x="915.8" y="443.4" dx="0,0,0,0,-.1,0,.2,-.1,0,0,-.1,0,0,.2,-.2,0,0,0,0,0" class="s4">matrik persegi yang </text>
<text x="916.7" y="460.3" class="s4">memiliki bilangan 1 </text>
<text x="935" y="477.3" class="s4">pada diagonal </text>
<text x="928.4" y="494.2" dx="0,0,0,0,0,0,0,0,0,-.1,0,0,0,0,0" class="s4">utamanya, yang </text>
<text x="950.1" y="511.3" dx="0,0,0,0,.2,0,0,0,-.1,.2" class="s4">lainnya 0, </text>
<text x="141.3" y="755.6" class="s4">m</text>
<text x="154.8" y="757" dx="0,-.1" class="sg">11 </text>
<text x="141.3" y="783.1" class="s4">m</text>
<text x="154.8" y="784.5" dx="0,-.1" class="sg">12 </text>
<text x="141.3" y="810.6" class="s4">m</text>
<text x="154.8" y="812" dx="0,-.1" class="sg">21 </text>
<text x="141.3" y="838.1" class="s4">m</text>
<text x="154.8" y="839.5" dx="0,-.1" class="sg">22 </text>
<text x="141.3" y="888.6" class="s4">C</text>
<text x="150.3" y="889.9" dx="0,-.1" class="sg">11 </text>
<text x="141.3" y="916.1" class="s4">C</text>
<text x="150.3" y="917.4" dx="0,-.1" class="sg">12 </text>
<text x="141.3" y="943.6" class="s4">C</text>
<text x="150.3" y="944.9" dx="0,-.1" class="sg">21 </text>
<text x="141.3" y="972.3" class="s4">C</text>
<text x="150.3" y="973.7" dx="0,-.1" class="sg">22 </text>
<text x="141.3" y="1233.8" dx="0,0,0,-.1,0,0,.1,0,-.1,0,0,0,0,0,0,0,0,0,-.1,0,0,0,.1,0,0,0,0,0,-.1,0,-.1,0,.1,0,.1,0,-.1,0,.1,0,.1,0,-.1,.1,.1,0,0,0,0,0,-.1,0,0,-.1,0,0,.1,0" class="s3">jika det A = 0 maka invers tak dapat dihitung, matrik ini </text>
<text x="141.3" y="1249.1" dx="0,.1,0,0,0,.1,.1,-.1,0,0,0,-.1,0,0,-.1,0,0,0,.1,0,.1,0,0" class="s3">disebut matrik singular </text>
<path fill-rule="evenodd" d="M181.2,159.2l3.6,-1.9l.6,-.4l.8,-.4l.5,-.2l1.8,-.9l1.8,-.7l1.7,-.5l1.7,-.3l1.7,-.2H197l1.5,.2l2.2,.5l1,.4l1,.5l.9,.4l.9,.6l.3,.3l.5,.4l.3,.2l.5,.5l.8,.7l.7,.8l.6,.9l.6,1l.5,1l.5,1.1l.5,1.2l.4,1.3l2.8,-2l2.6,-1.8l2.6,-1.4l2.4,-1.2l2.4,-.8l2.2,-.5l1.9,-.3h2.1l1.7,.2l1.7,.3l1.5,.5l1.3,.8l1.2,.8l1.2,1l1,1.2l1,1.5l.7,1.5l.8,1.7l.6,1.9l.5,2l.4,2.3l.2,2.3l.1,2.6l.1,2.7l-.2,48.6l5.2,2.1v5.4l-20.9,-.9h-.6l-4.4,-.5l.1,-5.4l4.4,-1.4l.2,-.1l.2,-45.5v-1.7l-.1,-1.5l-.1,-.9l-.1,-.6l-.1,-1.4l-.2,-1.4l-.3,-1.2l-.4,-1.1l-.2,-.5l-.2,-.6l-.2,-.5l-.3,-.4l-.3,-.4l-.2,-.5l-.3,-.3l-.3,-.4l-.3,-.3l-.4,-.3l-.3,-.2l-.4,-.3l-.4,-.2l-.3,-.1l-.4,-.2l-.5,-.1l-.8,-.2h-2.1l-1.1,.2l-1,.2l-1.2,.4l-1.1,.4l-1.2,.6l-1.2,.7l.2,.9l.1,.9l.1,1l.1,1v4.2l-.2,48.7l5.1,2.5v5.4l-12,-1.2l-.8,-.2l-12.8,-2.2v-5.4l4.6,-1.2l.3,-45.6v-1.7l-.1,-1.6l-.1,-1.4l-.1,-1.4l-.3,-1.4l-.3,-1.2l-.4,-1.2l-.2,-.5l-.1,-.6l-.3,-.5l-.2,-.5l-.3,-.4l-.2,-.4l-.3,-.4l-.4,-.4l-.3,-.3l-.3,-.3l-.3,-.3l-.3,-.3l-.4,-.2l-.4,-.2l-.4,-.2l-.5,-.1l-.8,-.2l-.9,-.1l-1,-.1l-1,.1h-.4l-.6,.1l-.2,.1l-.8,.1l-1.1,.2l-1.1,.4l-1.1,.5l-.4,56.8l4.1,2.8l.5,.4v5.5l-7.7,-2.2L171,225.6l-8.5,-6.4v-5.3l3.6,1.6l.2,-61.3l-3.8,-5.1v-5.3l17.9,8.6l.8,6.8Zm99.9,1.6l2.3,.1l2.3,.3l2,.5l1.9,.6l1.8,.7l1.5,.9l1.5,1.1l1.3,1.3l1.1,1.4l1,1.6l.8,1.7l.7,1.9l.6,2.1l.3,2.2l.3,2.4l.1,2.5l-.1,49.2l5.2,2v5.2l-19.2,-.1l-1.2,-5.8l-2.1,2l-1.1,.9l-.9,.7l-1,.7l-1,.6l-.9,.5l-.5,.1l-.3,.2v.1l-.9,.4l-.9,.2l-.9,.2l-.8,.2l-.9,.2l-1,.1h-1.7l-2,-.2l-1.8,-.4l-1.6,-.5l-1.6,-.7l-1.5,-.8L260.6,236l-1.1,-1.2l-1.2,-1.3l-.9,-1.6l-.8,-1.7l-.7,-1.9l-.6,-2l-.4,-2.3l-.3,-2.4l-.2,-2.6v-4.8l.1,-2l.2,-1.8l.3,-1.8l.3,-1.6l.4,-1.5l.5,-1.5l.6,-1.3l.6,-1.2l.7,-1.2l.7,-1l.9,-1l.9,-.8l1,-.8l1,-.7l1.1,-.6l1.2,-.5l1.4,-.4l1.5,-.4l1.7,-.3l1.8,-.3l2,-.1l4.3,-.1h.2l.1,-.1h6.7V182.1l-.1,-1.7l-.1,-1.5l-.1,-1.5l-.2,-1.3l-.3,-1.2l-.3,-1.2l-.4,-1l-.4,-.9l-.6,-.9l-.5,-.7l-.6,-.5l-.7,-.5l-.8,-.4l-.8,-.3l-.8,-.2h-.3l-.7,-.1h-1.2l-1.2,.1l-1.2,.3L272,169l-1.3,.5l-1.4,.7l-1.4,.8l-1.4,.8l-2.2,9.4l-3.5,-.2V162.7l7.2,-1.2l2.8,-.3l2.3,-.2l3.9,-.2h4.1Zm3.4,39.5l-4.6,.3h-1.3l-.7,.2h-.3l-.2,.1l-1.1,.3l-1,.4l-.4,.3l-.5,.2l-.4,.3l-.3,.3l-.3,.4l-.4,.4l-.3,.4l-.3,.4l-.3,.5l-.2,.5l-.2,.6l-.2,.6l-.2,.6l-.2,.7l-.2,1.4l-.3,1.6l-.1,1.8l-.1,1.9l-.1,2l.1,1.7v1.5l.1,1.5l.2,1.3l.3,1.2l.2,1.1l.2,.5l.2,.5l.2,.4l.2,.5l.4,.8l.2,.3l.2,.3l.3,.3l.3,.3l.2,.3l.3,.2l.2,.2l.3,.2l.3,.1l.3,.2l.3,.1h.3l.4,.1h1.2l.3,-.1h.7l1,-.2l1,-.3l1,-.4l1.1,-.4l1.1,-.6l1.1,-.6V200.3Zm47.3,39.9l-1.9,-.1l-1.7,-.2l-1.6,-.4l-1.5,-.4l-.4,-.3l-.9,-.4l-1.4,-.9l-.5,-.5l-.6,-.5l-.6,-.6l-.5,-.6l-.5,-.6l-.4,-.6l-.5,-.7l-.4,-.8l-.4,-.8l-.3,-.8l-.3,-.8l-.3,-.8l-.2,-1l-.2,-.9l-.2,-1l-.1,-1l-.2,-2.1l-.1,-2.2V171.4l-6.8,-.1v-5.2l8.1,-3L323.9,146h.8l7.4,-.1v17.2l11,-.2v8.3l-11,.2l.1,48.3V221l.1,1.2l.1,1.1l.1,1l.2,.9l.2,.5l.1,.4l.1,.4l.2,.4l.2,.4l.1,.3l.2,.3l.2,.3l.2,.2l.3,.3l.2,.3l.2,.2l.3,.2l.2,.2l.2,.1l.3,.1l.2,.2h.4l.2,.1h.3l.6,.1h.7l.9,-.1l1.7,-.2l1.8,-.4l2.1,-.6v6.8l-.5,.4l-.5,.4l-.5,.4l-.7,.4l-.8,.4l-.8,.4l-1.9,.7l-2,.6l-1.8,.4l-1.8,.3l-.9,.1h-.8Zm39,-62l.6,-1.1l.3,-.4l2,-3l2.7,-4l1.3,-1.8l1.2,-1.6l1.3,-1.3l1.2,-1.2l1.2,-1.1l1.1,-.9l1.1,-.8l1.1,-.7l1.1,-.5l1,-.4l1,-.3l1.1,-.1l2.9,-.1l.1,27.8l-3.1,.1l-3.3,-10l-.9,.1l-.9,.1l-.9,.2l-1,.4l-1,.3l-1,.4l-2.2,1.1l-2.1,1.3l-2,1.4l-2,1.4l-.8,.8l-.2,.1l-.3,.2l-.4,.5l.1,46l.5,.1h.2l7.7,1.4V238l-7.7,.4h-.2l-23.2,.1v-5.3l6.7,-2L355,170l-6.7,-1.9v-5.3l21.8,-.3l.7,15.7ZM419.9,229l1.6,.4l.6,.1l3.5,.9v5.4l-3.5,.4h-.5l-23.3,1l-.1,-5.4l5.6,-2.1L403.6,168l-5.3,-1.7V161l21.2,-1.2l.4,69.2Zm-17,-95l.1,-1.2l.1,-1.3l.1,-.6l.1,-.6l.1,-.6l.1,-.6l.2,-.5l.2,-.6l.2,-.5l.2,-.5l.3,-.5l.2,-.5l.6,-1l.6,-.8l.7,-.8l.7,-.7l.7,-.5l.8,-.5l.8,-.3l.8,-.2l.9,-.1h.8l.9,.1l.7,.2l.4,.2l.4,.2l.4,.2l.4,.2l.3,.3l.4,.3l.6,.7l.7,.8l.5,.9l.5,1l.2,.4l.3,.6l.1,.4l.2,.6l.1,.6l.2,.6l.1,.5l.1,.6l.1,1.2l.1,1.3l-.1,1.3l-.1,1.2l-.2,1.2l-.1,.5l-.1,.6l-.4,1.1l-.4,1.1l-.5,1l-.5,1l-.6,.9l-.4,.4l-.3,.4l-.3,.3l-.4,.3l-.4,.3l-.3,.4l-.4,.2l-.4,.2l-.4,.1l-.4,.2l-.9,.2l-.8,.1h-.9l-.8,-.1l-.8,-.2l-.4,-.2l-.4,-.2l-.4,-.2l-.3,-.2l-.7,-.6l-.7,-.7l-.7,-.8l-.5,-.9l-.5,-1l-.3,-.5l-.2,-.5l-.1,-.5l-.2,-.5l-.2,-.6l-.1,-.6l-.1,-.5l-.1,-.6l-.1,-1.3l-.1,-1.3ZM451,195.8l12.2,-22.4l.8,-1.6l6.7,-12.7l-5.4,-.5v-5.3l5.8,-1.5l.8,-.2l6,-2.1l.6,-.3l2.2,-1l2.4,-1.3l.5,-.3l.1,-.1v5.2l-.1,.2l-.4,.4l-2.5,2.1l-2.1,1.9h-.1l-.6,1.2L472,169.4l-.8,1.4l-4.3,8.5l4.5,9.9l.8,1.7l6,12.9l.6,1.4l2.2,4.6l2.4,5.1l.2,.3h.2l1.6,-.5l.2,-.1l1.3,-.7v5.4l-1.3,1.5l-.2,.2l-1.6,1.3l-.4,.3l-2.3,1.6l-2.1,1.1l-6.6,2.6l-7.6,2.2v-5.4l2.9,-2.7L457.3,197.4L451,205l.2,20.3l5.1,1v5.4l-25.9,3.6v-5.4l4.9,-2.4l-.6,-101.3l-5.2,-1.3l-.1,-5.4l21.1,-2.8l.5,79.1Z" class="g8"/>
<path d="M606.9,161.9l115.8,-.5" class="g9"/>
<path fill-rule="evenodd" d="M732.6,161.3l-9.7,5.4l-.9,-.9l7.6,-3.9H722v-1.1h7.6L722,156.9l.8,-.8l9.8,5.2Z" class="ga"/>
<path d="M604,438.6L757.2,532" class="g9"/>
<path fill-rule="evenodd" d="M765.6,537.2l-11.1,-.6l-.3,-1.1l8.5,.6l-6.4,-4l.6,-.9l6.4,3.9l-4.4,-7.3l1.1,-.2l5.6,9.6Z" class="ga"/>
<path d="M579.7,720.5L685.9,835.3" class="g9"/>
<path fill-rule="evenodd" d="M692.6,842.5L682,839l.1,-1.2l8,2.8l-5.2,-5.5l.9,-.7l5.1,5.5l-2.2,-8.2l1.1,.1l2.8,10.7Z" class="ga"/>
<path d="M713.1,435.7l-2.8,1.9m-.9,.6l-2.8,1.9m-1,.6l-2.8,1.9m-.9,.6l-2.8,1.9m-1,.6l-2.8,1.8m-.9,.7l-2.8,1.8m-1,.7l-2.8,1.8m-.9,.7L684,455m-.9,.6l-2.8,1.9m-.9,.6l-2.9,1.9m-.9,.6l-2.8,1.9m-.9,.6l-2.8,1.9m-1,.6l-2.8,1.9m-.9,.6l-2.8,1.9m-1,.6l-2.8,1.8m-1,.7L654,475m-.9,.6l-2.8,1.8m-1,.7l-2.8,1.8m-.9,.6l-2.8,1.9m-.9,.6l-2.9,1.9m-.9,.6l-2.8,1.9m-1,.6l-2.8,1.9m-.9,.6l-2.8,1.9m-1,.6l-2.8,1.9m-.9,.6l-2.9,1.8m-.9,.7l-2.8,1.9m-.9,.6l-2.8,1.8m-1,.7l-2.8,1.8m-.9,.6l-1.5,1.1" class="g9"/>
<path fill-rule="evenodd" d="M598.3,511.9l5.2,-9.8l1.2,.3l-4.1,7.4l6.2,-4.2l.6,1l-6.2,4.1l8.4,-.9l-.2,1.1l-11.1,1Z" class="ga"/>
<path d="M605.2,719.3L717.6,840.9" class="g9"/>
<path fill-rule="evenodd" d="M724.4,848.2l-10.6,-3.5l.1,-1.2l7.9,2.8l-5.1,-5.5l.9,-.8l5.1,5.6l-2.2,-8.2h1.1l2.8,10.8Z" class="ga"/>
<path d="M635.5,720.5L753.6,845.7" class="g9"/>
<path fill-rule="evenodd" d="M760.4,852.8l-10.5,-3.4v-1.2l8,2.8l-5.1,-5.5l.8,-.8l5.1,5.5l-2.3,-8.1h1.2l2.8,10.7Z" class="ga"/>
<path d="M685.1,720.5l-.8,.9m-.8,.7l-.8,.9m-.7,.8l-.8,.8m-.8,.8l-.8,.8m-.8,.8l-.8,.8m-.8,.8l-.7,.9m-.8,.7l-.8,.9m-.8,.8l-.8,.8m-.7,.8l-.8,.8m-.8,.8l-.8,.8m-.8,.8l-.7,.9m-.8,.7l-.8,.9m-.8,.8l-.8,.8m-.8,.8l-.8,.8m-.7,.8l-.8,.8m-.8,.8l-.8,.9m-.8,.7l-.7,.9m-.8,.8l-.8,.8m-.8,.8l-.8,.8m-.7,.8l-.8,.8m-.8,.8l-.8,.9m-.8,.8l-.8,.8m-.8,.8l-.7,.8m-.8,.8l-.8,.8m-.8,.8l-.8,.8m-.7,.8l-.8,.9m-.8,.8l-.8,.8m-.7,.8l-.8,.8m-.8,.8l-.8,.8m-.8,.8l-.8,.8m-.8,.8l-.7,.9m-.8,.8l-.8,.8m-.8,.8l-.8,.8m-.7,.8l-.8,.8m-.8,.8l-.8,.8m-.8,.8l-.7,.9m-.8,.8l-.8,.8m-.8,.8l-.8,.8m-.8,.8l-.8,.8m-.7,.8l-.8,.8m-.8,.8l-.8,.9m-.8,.8l-.7,.8m-.8,.8l-.8,.8m-.8,.8l-.8,.8m-.7,.8l-.8,.9m-.8,.7l-.8,.9m-.8,.8l-.8,.8m-.8,.8l-.7,.8m-.8,.8l-.8,.8m-.8,.8l-.8,.8m-.7,.8l-.8,.9m-.8,.8l-.8,.8m-.8,.8l-.7,.8m-.9,.8l-.7,.8m-.8,.8l-.8,.8m-.8,.8l-.8,.9m-.7,.8l-.8,.8m-.8,.8l-.8,.8m-.8,.8l-.7,.8m-.8,.8l-.8,.8m-.8,.8l-.8,.8m-.8,.9l-.8,.8m-.7,.8l-.8,.8m-.8,.8l-.8,.8m-.8,.8l-.7,.8m-.8,.8l-.8,.8m-.8,.9l-.7,.7m-.8,.9l-.6,.6" class="g9"/>
<path fill-rule="evenodd" d="M572.8,836.8l2.9,-10.7h1.2l-2.3,8.1l5.2,-5.4l.8,.8l-5.3,5.4l8.1,-2.7v1.2l-10.6,3.3Z" class="ga"/>
<path d="M714.3,719.9l-.8,.9m-.8,.7l-.7,.9m-.8,.8l-.8,.8m-.8,.8l-.7,.8m-.8,.8l-.8,.9m-.8,.7l-.8,.9m-.7,.8l-.8,.8m-.8,.8l-.8,.8m-.8,.8l-.8,.8m-.8,.8l-.7,.9m-.8,.8l-.8,.8m-.8,.8l-.8,.8m-.7,.8l-.8,.8m-.8,.8l-.8,.9m-.8,.7l-.7,.9m-.8,.8l-.8,.8m-.8,.8l-.8,.8m-.7,.8l-.8,.8m-.8,.8l-.8,.9m-.8,.8l-.7,.8m-.8,.8l-.8,.8m-.8,.8l-.8,.8m-.8,.8l-.8,.8m-.7,.8l-.8,.8m-.8,.9l-.8,.8m-.8,.8l-.7,.8m-.8,.8l-.8,.8m-.8,.8l-.8,.8m-.7,.9l-.8,.7m-.8,.9l-.8,.8m-.8,.8l-.7,.8m-.8,.8l-.8,.8m-.8,.9l-.7,.7m-.8,.9l-.8,.8m-.8,.8l-.8,.8m-.8,.8l-.8,.8m-.7,.8l-.8,.8m-.8,.9l-.8,.8m-.8,.8l-.7,.8m-.8,.8l-.8,.8m-.8,.8l-.8,.8m-.7,.9l-.8,.7m-.8,.9l-.8,.8m-.8,.8l-.7,.8m-.8,.8l-.8,.8m-.8,.8l-.8,.8m-.7,.9l-.8,.8m-.8,.8l-.8,.8m-.8,.8l-.8,.8m-.8,.8l-.7,.8m-.8,.9l-.8,.7m-.8,.9l-.8,.8m-.7,.8l-.8,.8m-.8,.8l-.8,.8m-.8,.8l-.7,.8m-.8,.9l-.8,.8m-.8,.8l-.8,.8m-.7,.8l-.8,.8m-.8,.8l-.8,.8m-.8,.8l-.7,.8m-.8,.8l-.8,.9m-.8,.8l-.7,.8m-.9,.8l-.8,.8m-.7,.8l-.8,.8m-.8,.8l-.8,.9m-.7,.7l-.8,.9m-.8,.8l-.8,.8m-.8,.8l-.4,.5" class="g9"/>
<path fill-rule="evenodd" d="M602.3,836.2l3,-10.7h1.2l-2.5,8.1l5.3,-5.4l.8,.8l-5.2,5.4l8,-2.7v1.2l-10.6,3.3Z" class="ga"/>
<path d="M740.6,717.6l-.7,.9m-.8,.7l-.8,.9m-.8,.8l-.8,.8m-.7,.8l-.8,.8m-.8,.8l-.8,.9m-.8,.7l-.7,.9m-.8,.8l-.8,.8m-.8,.8l-.8,.8m-.8,.8l-.8,.8m-.7,.8l-.8,.9m-.8,.8l-.8,.8m-.8,.8l-.7,.8m-.8,.8l-.8,.8m-.8,.8l-.8,.9m-.7,.7l-.8,.9m-.8,.8l-.8,.8m-.8,.8l-.7,.8m-.8,.8l-.8,.8m-.8,.8l-.7,.9m-.8,.8l-.8,.8m-.8,.8l-.8,.8m-.8,.8l-.8,.8m-.7,.8l-.8,.9m-.8,.7l-.8,.9m-.8,.8l-.7,.8m-.8,.8l-.8,.8m-.8,.8l-.8,.8m-.7,.8l-.8,.8m-.8,.9l-.8,.8m-.8,.8l-.7,.8m-.8,.8l-.8,.8m-.8,.8l-.8,.8m-.7,.9l-.8,.7m-.8,.9l-.8,.8m-.8,.8l-.8,.8m-.8,.8l-.7,.8m-.8,.8l-.8,.8m-.8,.9l-.8,.8m-.7,.8l-.8,.8m-.8,.8l-.8,.8m-.8,.8l-.7,.8m-.8,.9l-.8,.7m-.8,.9l-.8,.8m-.7,.8l-.8,.8m-.8,.8l-.8,.8m-.7,.8l-.8,.8m-.8,.9l-.8,.8m-.8,.8l-.7,.8m-.8,.8l-.8,.8m-.8,.8l-.8,.8m-.8,.9l-.8,.7m-.7,.9l-.8,.8m-.8,.8l-.8,.8m-.8,.8l-.7,.8m-.8,.8l-.8,.8m-.8,.9l-.8,.8m-.7,.8l-.8,.8m-.8,.8l-.8,.8m-.8,.8l-.7,.8m-.8,.9l-.8,.7m-.8,.9l-.8,.8m-.7,.8l-.8,.8m-.8,.8l-.8,.8m-.8,.8l-.8,.8m-.8,.9l-.7,.8m-.8,.8l-.8,.8m-.8,.8l-.8,.8m-.7,.8l-.5,.5" class="g9"/>
<path fill-rule="evenodd" d="M628.6,833.9l3,-10.7h1.2l-2.4,8.1l5.2,-5.4l.8,.8l-5.2,5.4l8.1,-2.7v1.2l-10.7,3.3Z" class="ga"/>
<path fill-rule="evenodd" d="M726.6,880.3H709.2V850h34.9v30.3H726.6Z" class="g8"/>
<path d="M726.6,880.3H709.2V850h34.9v30.3H726.6Z" class="gb"/>
<text clip-path="url(#c0)" x="720" y="867.9" class="s4">+ </text>
<path fill-rule="evenodd" d="M592.7,874H575V843.7h35.3V874H592.7Z" class="g8"/>
<path d="M592.7,874H575V843.7h35.3V874H592.7Z" class="gb"/>
<text clip-path="url(#c0)" x="585.9" y="861.7" class="s4">- </text>
<path d="M1415.8,740.5l47.7,-.9" class="gc"/>
<path fill-rule="evenodd" d="M1478.5,739.3l-12.5,8.3l-3.5,-3.4l3.4,-2.3h-3.4l-.1,-4.6h3.5l-3.5,-2.2l3.3,-3.6l12.8,7.8Z" class="gd"/>
<path d="M766.2,538.3l-77.1,56.6" class="g9"/>
<path fill-rule="evenodd" d="M681.1,600.7l4.7,-10l1.2,.1l-3.7,7.7l6,-4.5l.7,.9l-6.1,4.4l8.4,-1.2l-.2,1.1l-11,1.5Z" class="ga"/>
<path d="M596.6,511.4l2.7,2m.9,.7l2.7,1.9m.9,.7l2.7,2m.9,.7l2.7,2m.9,.7l2.7,2m1,.7l2.7,2m.9,.6l2.7,2.1m.9,.6l2.7,2m.9,.7l2.7,2m.9,.7l2.8,2m.9,.7l2.7,2m.9,.7l2.7,2m.9,.6l2.7,2m.9,.7l2.7,2m.9,.7l2.8,2m.9,.7l2.7,2m.9,.6l2.7,2m.9,.7l2.7,2m.9,.7l2.7,2m.9,.7l2.8,2m.9,.6l2.7,2.1m.9,.6l2.7,2.1m.9,.6l2.7,2m.9,.7l2.7,2m.9,.7l2.8,2m.9,.7l2.7,2m.9,.7l2.7,1.9m.9,.7l2.7,2m.9,.7l2.7,2m.9,.7l2.8,2m.9,.6l2.7,2m.9,.7l2.1,1.6" class="g9"/>
<path fill-rule="evenodd" d="M718.9,601.9l-11,-1.6l-.2,-1.1l8.3,1.3L710,596l.7,-.9l6,4.5L713,592l1.2,-.2l4.7,10.1Z" class="ga"/>
<path d="M692,842.6L629.6,891" class="g9"/>
<path fill-rule="evenodd" d="M621.8,897l4.5,-10.2l1.1,.2l-3.5,7.7l6,-4.6l.7,.9l-6,4.6l8.3,-1.5l-.1,1.1l-11,1.8Z" class="ga"/>
<path d="M724.1,847.7l-62.4,48.4" class="g9"/>
<path fill-rule="evenodd" d="M653.9,902.2L658.4,892l1.1,.2l-3.5,7.6l5.9,-4.6l.7,.9l-5.9,4.6l8.3,-1.5l-.1,1.2l-11,1.8Z" class="ga"/>
<path d="M763.9,847.7l-62.4,48.4" class="g9"/>
<path fill-rule="evenodd" d="M693.7,902.2L698.2,892l1.2,.2l-3.6,7.6l5.9,-4.6l.7,.9l-5.9,4.6l8.3,-1.5l-.2,1.2l-10.9,1.8Z" class="ga"/>
<path d="M573.3,838l1,.4m1.1,.5l1,.4m1.1,.4l1,.5m1,.4l1,.5m1.1,.4l1,.4m1,.5l1.1,.4m1,.5l1.1,.4m1,.5l1,.4m1,.5l1.1,.4m1,.5l1.1,.4m1,.4l1,.5m1.1,.4l1,.5m1,.4l1.1,.4m1,.5l1,.4m1.1,.5l1,.4m1.1,.5l1,.4m1,.5l1,.4m1.1,.5l1,.4m1,.4l1.1,.5m1,.4l1.1,.5m1,.4l1,.4m1.1,.5l1,.4m1,.5l1.1,.4m1,.5l1,.4m1.1,.5l1,.4m1.1,.5l1,.4m1,.4l1,.5m1.1,.4l1,.5m1,.4l1.1,.4m1,.5l1.1,.5m1,.4l1,.4m1,.5l1.1,.4m1,.5l1.1,.4m1,.5l1,.4m1.1,.4l1,.5m1.1,.4l.9,.5m1.1,.4l1,.4m1.1,.5l1,.5m1,.4l1.1,.4m1,.5l1.1,.4m1,.5l1,.4m1,.5l1.1,.4m1,.4l1.1,.5m1,.4l1,.5m1.1,.4l1,.4m1,.5l1,.5m1.1,.4l1,.4m1.1,.5l1,.4m1,.5l1.1,.4m1,.5l1,.4m1.1,.4l1,.5m1,.4l1.1,.5m1,.4l1.1,.4m1,.5l1,.5m1.1,.4l1,.4m1,.5l1,.4m1.1,.5l1,.4m1.1,.5l1,.4m1,.4l1.1,.5m1,.5l1,.4m1.1,.4l1,.5m1,.4l1.1,.5m1,.4l1.1,.4m1,.5l1,.4m1,.5l1.1,.4m1,.5l1.1,.4m1,.4l1,.5m1.1,.5l1,.4m1,.4l1,.5m1.1,.4l1,.5" class="g9"/>
<path fill-rule="evenodd" d="M726.8,903.8l-11,1.1l-.5,-1.2l8.4,-.6l-6.8,-3l.4,-1l6.9,3l-5.3,-6.6l1,-.4l6.9,8.7Z" class="ga"/>
<path d="M599.4,834.5l1.1,.5m1,.4l1,.4m1.1,.5l1,.4m1,.4l1.1,.5m1,.4l1.1,.4m1,.5l1,.4m1.1,.4l1,.5m1.1,.4l1,.4m1,.5l1.1,.4m1,.5l1.1,.4m1,.4l1,.5m1.1,.4l1,.4m1.1,.5l1,.4m1,.4l1.1,.5m1,.4l1.1,.4m1,.5l1,.4m1.1,.4l1,.5m1.1,.4l1,.4m1,.5l1.1,.4m1,.4l1,.5m1.1,.4l1,.4m1,.5l1.1,.4m1,.4l1,.5m1.1,.4l1,.4m1.1,.5l1,.4m1,.4l1.1,.5m1,.4l1.1,.5m1,.4l1,.4m1.1,.5l1,.4m1.1,.4l1,.5m1,.4l1.1,.4m1,.5l1.1,.4m1,.4l1,.5m1.1,.4l1,.4m1,.5l1.1,.4m1,.4l1.1,.5m1,.4l1,.4m1.1,.5l1,.4m1.1,.4l1,.5m1,.4l1.1,.4m1,.5l1.1,.4m1,.4l1,.5m1.1,.4l1,.4m1.1,.5l1,.4m1,.5l1.1,.4m1,.4l1.1,.5m1,.4l1,.4m1.1,.5l1,.4m1,.4l1.1,.5m1,.4l1.1,.4m1,.5l1,.4m1.1,.4l1,.5m1.1,.4l1,.4m1,.5l1.1,.4m1,.4l1.1,.5m1,.4l1,.4m1.1,.5l1,.4m1.1,.4l1,.5m1,.4l1.1,.4m1,.5l1.1,.4m1,.4l1,.5m1.1,.4l1,.5m1,.4l1,.4m1.1,.5l1,.4m1.1,.4l1,.5m1,.4l1.1,.4m1,.5l1.1,.4m1,.4l1,.5m1.1,.4l1,.4m1.1,.5l1,.4m1,.4l1.1,.5m1,.4l.9,.4" class="g9"/>
<path fill-rule="evenodd" d="M757,900.4l-11.1,1.1l-.5,-1.1l8.5,-.7L747,896.8l.4,-1l6.9,2.9l-5.4,-6.5l1.1,-.5l7,8.7Z" class="ga"/>
<path d="M627.5,835.1l1,.4m1.1,.5l1,.4m1,.4l1.1,.5m1,.4l1.1,.4m1,.5l1,.4m1.1,.4l1,.5m1,.4l1.1,.4m1,.5l1.1,.4m1,.4l1,.5m1.1,.4l1,.5m1.1,.4l1,.4m1,.5l1.1,.4m1,.4l1.1,.5m1,.4l1,.4m1.1,.5l1,.4m1.1,.4l1,.5m1,.4l1.1,.4m1,.5l1.1,.4m1,.4l1,.5m1.1,.4l1,.4m1.1,.5l1,.4m1,.4l1,.5m1.1,.4l1,.4m1,.5l1.1,.4m1,.4l1.1,.5m1,.4l1,.4m1.1,.5l1,.4m1.1,.5l1,.4m1,.4l1.1,.5m1,.4l1.1,.4m1,.5l1,.4m1.1,.4l1,.5m1.1,.4l1,.4m1,.5l1.1,.4m1,.4l1,.5m1.1,.4l1,.4m1.1,.5l1,.4m1,.4l1.1,.5m1,.4l1.1,.4m1,.5l1,.4m1.1,.4l1,.5m1.1,.4l1,.4m1,.5l1.1,.4m1,.4l1.1,.5m1,.4l1,.5m1.1,.4l1,.4m1.1,.5l1,.4m1,.4l1.1,.5m1,.4l1.1,.4m1,.5l1,.4m1.1,.4l1,.5m1,.4l1.1,.4m1,.5l1.1,.4m1,.4l1,.5m1.1,.4l1,.4m1.1,.5l1,.4m1,.4l1.1,.5m1,.4l1.1,.4m1,.5l1,.4m1.1,.4l1,.5m1.1,.4l1,.5m1,.4l1.1,.4m1,.5l1,.4m1.1,.4l1,.5m1,.4l1.1,.4m1,.5l1,.4m1.1,.4l1,.5m1.1,.4l1,.4m1,.5l1.1,.4m1,.4l1.1,.5m1,.4l1,.4m1.1,.5l.9,.4" class="g9"/>
<path fill-rule="evenodd" d="M785,901l-11,1.1l-.5,-1.1l8.5,-.7l-7,-2.9l.5,-1.1l6.9,2.9L777,892.7l1.1,-.4L785,901Z" class="ga"/>
<path d="M773.2,124.5v77.7M879.7,124.5v77.7" class="ge"/>
<g clip-path="url(#c0)">
<text transform="matrix(1.02,0,0,1,865.6,200.3)" dx="0,.2" class="sj">33 </text>
<text transform="matrix(1.02,0,0,1,824.8,200.3)" dx="0,.4" class="sj">32 </text>
<text transform="matrix(1.02,0,0,1,784.8,200.3)" dx="0,.4" class="sj">31 </text>
<text transform="matrix(1.02,0,0,1,865.8,172.6)" dx="0,.4" class="sj">23 </text>
<text transform="matrix(1.02,0,0,1,825,172.6)" dx="0,.4" class="sj">22 </text>
<text transform="matrix(1.02,0,0,1,785,172.6)" dx="0,.4" class="sj">21 </text>
<text transform="matrix(1.02,0,0,1,865.2,144.8)" dx="0,.4" class="sj">13 </text>
<text transform="matrix(1.02,0,0,1,824.4,144.8)" dx="0,.4" class="sj">12 </text>
<text transform="matrix(1.02,0,0,1,784.4,144.8)" dx="0,.4" class="sj">11 </text>
<text transform="matrix(1.03,0,0,1,856.2,195.7)" class="sk">a </text>
<text transform="matrix(1.03,0,0,1,815.4,195.7)" class="sk">a </text>
<text transform="matrix(1.03,0,0,1,775.3,195.7)" class="sk">a </text>
<text transform="matrix(1.03,0,0,1,856.2,167.9)" class="sk">a </text>
<text transform="matrix(1.03,0,0,1,815.2,167.9)" class="sk">a </text>
<text transform="matrix(1.03,0,0,1,775.2,167.9)" class="sk">a </text>
<text transform="matrix(1.03,0,0,1,856.6,140.3)" class="sk">a </text>
<text transform="matrix(1.03,0,0,1,815.8,140.3)" class="sk">a </text>
<text transform="matrix(1.03,0,0,1,775.8,140.3)" class="sk">a </text>
<text transform="matrix(1.03,0,0,1,742.2,167.9)" class="sk">A </text>
<text transform="matrix(1.03,0,0,1,757.6,167.9)" class="sl"> </text>
</g>
<path d="M570.4,151.3v25.5m20.7,-25.5v25.5" class="ge"/>
<g clip-path="url(#c0)">
<text transform="matrix(1.02,0,0,1,581.5,172.9)" dx="0,.3" class="sm">ij </text>
<text transform="matrix(1.01,0,0,1,572.3,168.5)" class="sn">a </text>
<text transform="matrix(1.01,0,0,1,540.4,168.5)" class="sn">A </text>
<text transform="matrix(1.01,0,0,1,555.3,168.5)" class="so"> </text>
</g>
<path d="M536.1,147.6H596v33.3H536.1V147.6Z" class="gf"/>
<path d="M1134,491.1v77.7m64.6,-77.7v77.7" class="ge"/>
<g clip-path="url(#c0)">
<text x="1188.2" y="562.4" class="sp">1 </text>
<text x="1162" y="562.4" class="sp">0 </text>
<text x="1135.8" y="562.4" class="sp">0 </text>
<text x="1188.3" y="534.6" class="sp">0 </text>
<text x="1161.9" y="534.6" class="sp">1 </text>
<text x="1135.8" y="534.6" class="sp">0 </text>
<text x="1188.3" y="506.8" class="sp">0 </text>
<text x="1162" y="506.8" class="sp">0 </text>
<text x="1135.6" y="506.8" class="sp">1 </text>
</g>
<path d="M1134,415.3v49m37.8,-49v49" class="ge"/>
<g clip-path="url(#c0)">
<text x="1161.6" y="458.5" class="sq">1 </text>
<text x="1135.6" y="458.5" class="sq">0 </text>
<text x="1161.7" y="430.8" class="sq">0 </text>
<text x="1135.4" y="430.8" class="sq">1 </text>
</g>
<path d="M1033.7,126.8v22.6m60.5,-22.6v22.6" class="ge"/>
<g clip-path="url(#c0)">
<text transform="matrix(0.99,0,0,1,1084.6,142.8)" class="sr">3 </text>
<text transform="matrix(0.99,0,0,1,1058.8,142.8)" class="sr">2 </text>
<text transform="matrix(0.99,0,0,1,1033.7,142.8)" class="sr">1 </text>
</g>
<path d="M1030.3,122.4h69.1v31h-69.1v-31Z" class="gg"/>
<path d="M1240,188.6v77.7m13,-77.7v77.7" class="ge"/>
<g clip-path="url(#c0)">
<text transform="matrix(1.09,0,0,1,1242.1,259.9)" class="sp">3 </text>
<text transform="matrix(1.09,0,0,1,1242.1,232.1)" class="sp">2 </text>
<text transform="matrix(1.09,0,0,1,1241.8,204.3)" class="sp">1 </text>
</g>
<path d="M993.4,1139.9v22.2m59.4,-22.2v22.2m16.7,-50v77.8m12,-77.8v77.8" class="ge"/>
<g clip-path="url(#c0)">
<text x="1212.6" y="1155.6" class="sp">| </text>
<text x="1191.4" y="1155.6" dx="0,-.1" class="sp">19 </text>
<text x="1186.2" y="1155.6" class="sp">| </text>
<text x="1173.2" y="1155.6" class="sp">| </text>
<text x="1161.6" y="1155.6" class="sp">5 </text>
<text x="1127.3" y="1155.6" dx="0,-.1" class="sp">12 </text>
<text x="1103.8" y="1155.6" class="sp">2 </text>
<text x="1096.6" y="1155.6" class="sp">| </text>
<text x="1071.1" y="1183.4" class="sp">1 </text>
<text x="1071.4" y="1155.6" class="sp">4 </text>
<text x="1071.4" y="1127.8" class="sp">2 </text>
<text x="1042.9" y="1155.6" class="sp">5 </text>
<text x="1017.7" y="1155.6" class="sp">3 </text>
<text x="993.4" y="1155.6" class="sp">1 </text>
<text x="1176.7" y="1155.6" class="sl"> </text>
<text x="1148.6" y="1155.6" class="sl"> </text>
<text x="1115.9" y="1155.6" class="sl"> </text>
<text x="1087.2" y="1155.6" class="sl"> </text>
<text x="1056.2" y="1155.6" class="sl"> </text>
<text x="978.4" y="1155.6" class="sl"> </text>
<text x="949.4" y="1155.6" class="sl"> </text>
<text x="962.7" y="1155.6" class="sk">B </text>
<text x="936.8" y="1155.6" class="sk">A </text>
</g>
<path d="M932.6,1107.8h286.5v86H932.6v-86Z" class="gf"/>
<path d="M1395.4,1104.9v50.4m78.1,-50.4v50.4m21.6,-64.8v79.2m15.6,-79.2v79.2m26.9,-64.8v50.4m75.5,-50.4v50.4m26.8,-50.4v50.4m25,-50.4v50.4" class="ge"/>
<g clip-path="url(#c0)">
<text transform="matrix(1.01,0,0,1,1639.9,1149.3)" dx="0,.9" class="ss">15 </text>
<text transform="matrix(1.01,0,0,1,1639.8,1120.9)" dx="0,.7" class="ss">19 </text>
<text transform="matrix(1.01,0,0,1,1601.9,1149.3)" class="ss">1 </text>
<text transform="matrix(1.01,0,0,1,1571.6,1149.3)" class="ss">8 </text>
<text transform="matrix(1.01,0,0,1,1539.7,1149.3)" class="ss">6 </text>
<text transform="matrix(1.01,0,0,1,1562.8,1120.9)" dx="0,.7" class="ss">19 </text>
<text transform="matrix(1.01,0,0,1,1497.2,1163.1)" class="ss">1 </text>
<text transform="matrix(1.01,0,0,1,1497.5,1134.8)" class="ss">4 </text>
<text transform="matrix(1.01,0,0,1,1497.5,1106.6)" class="ss">2 </text>
<text transform="matrix(1.01,0,0,1,1462.2,1149.3)" class="ss">1 </text>
<text transform="matrix(1.01,0,0,1,1430.6,1149.3)" class="ss">2 </text>
<text transform="matrix(1.01,0,0,1,1397,1149.3)" class="ss">3 </text>
<text transform="matrix(1.01,0,0,1,1459.6,1120.9)" class="ss">5 </text>
<text transform="matrix(1.01,0,0,1,1426.8,1120.9)" class="ss">3 </text>
<text transform="matrix(1.01,0,0,1,1395.2,1120.9)" class="ss">1 </text>
<text transform="matrix(1.01,0,0,1,1620.4,1134.8)" class="st"> </text>
<text transform="matrix(1.01,0,0,1,1586.9,1149.3)" class="st"> </text>
<text transform="matrix(1.01,0,0,1,1555.3,1149.3)" class="st"> </text>
<text transform="matrix(1.01,0,0,1,1518,1134.8)" class="st"> </text>
<text transform="matrix(1.01,0,0,1,1477.8,1134.8)" class="st"> </text>
<text transform="matrix(1.01,0,0,1,1375.9,1134.8)" class="st"> </text>
<text transform="matrix(1.01,0,0,1,1338.3,1134.8)" class="st"> </text>
<text transform="matrix(1.01,0,0,1,1355.4,1134.8)" class="su">B </text>
<text transform="matrix(1.01,0,0,1,1321.8,1134.8)" class="su">A </text>
</g>
<path d="M1316.4,1086.1H1670v88.2H1316.4v-88.2Z" class="gf"/>
<path d="M1535.3,1211v22.1m60,-22.1v22.1m12.3,-49.9v77.7m12,-77.7v77.7" class="ge"/>
<g clip-path="url(#c0)">
<text transform="matrix(0.99,0,0,1,1660.8,1226.7)" class="sp">| </text>
<text transform="matrix(0.99,0,0,1,1639.9,1226.7)" dx="0,.1" class="sp">15 </text>
<text transform="matrix(0.99,0,0,1,1634.7,1226.7)" class="sp">| </text>
<text transform="matrix(0.99,0,0,1,1609.2,1254.5)" class="sp">1 </text>
<text transform="matrix(0.99,0,0,1,1609.5,1226.7)" class="sp">4 </text>
<text transform="matrix(0.99,0,0,1,1609.5,1198.8)" class="sp">2 </text>
<text transform="matrix(0.99,0,0,1,1586.8,1226.7)" class="sp">1 </text>
<text transform="matrix(0.99,0,0,1,1562.3,1226.7)" class="sp">2 </text>
<text transform="matrix(0.99,0,0,1,1536.6,1226.7)" class="sp">3 </text>
<text transform="matrix(0.99,0,0,1,1625.3,1226.7)" class="sl"> </text>
<text transform="matrix(0.99,0,0,1,1598.1,1226.7)" class="sk">x </text>
</g>
<path d="M1531.8,1178.9h134.7v85.9H1531.8v-85.9Z" class="gf"/>
<path d="M607.4,1080v52.3M681.3,1080v52.3m21.5,-67v81.6m47,-81.6v81.6M775.3,1080v52.3M842.5,1080v52.3" class="ge"/>
<g clip-path="url(#c0)">
<text transform="matrix(1.03,0,0,1,817.5,1126)" dx="0,-.2" class="sv">10 </text>
<text transform="matrix(1.03,0,0,1,774.9,1126)" dx="0,-.3" class="sv">15 </text>
<text transform="matrix(1.03,0,0,1,818.7,1096.6)" dx="0,-.5" class="sv">22 </text>
<text transform="matrix(1.03,0,0,1,774.7,1096.6)" dx="0,-.3" class="sv">19 </text>
<text transform="matrix(1.03,0,0,1,737.3,1140.6)" class="sv">3 </text>
<text transform="matrix(1.03,0,0,1,704.3,1140.6)" class="sv">1 </text>
<text transform="matrix(1.03,0,0,1,737.3,1111.3)" class="sv">2 </text>
<text transform="matrix(1.03,0,0,1,704.8,1111.3)" class="sv">4 </text>
<text transform="matrix(1.03,0,0,1,734.9,1082)" class="sv">1 </text>
<text transform="matrix(1.03,0,0,1,704.8,1082)" class="sv">2 </text>
<text transform="matrix(1.03,0,0,1,670.5,1126)" class="sv">1 </text>
<text transform="matrix(1.03,0,0,1,640.4,1126)" class="sv">2 </text>
<text transform="matrix(1.03,0,0,1,608.5,1126)" class="sv">3 </text>
<text transform="matrix(1.03,0,0,1,668.1,1096.6)" class="sv">5 </text>
<text transform="matrix(1.03,0,0,1,636.9,1096.6)" class="sv">3 </text>
<text transform="matrix(1.03,0,0,1,606.8,1096.6)" class="sv">1 </text>
<text transform="matrix(1.03,0,0,1,756.6,1111)" class="sw"> </text>
<text transform="matrix(1.03,0,0,1,685.7,1111)" class="sw"> </text>
<text transform="matrix(1.03,0,0,1,588.7,1111)" class="sw"> </text>
<text transform="matrix(1.03,0,0,1,551.8,1111)" class="sw"></text>
<text transform="matrix(1.03,0,0,1,568.9,1111)" class="sx">B </text>
<text transform="matrix(1.03,0,0,1,535.6,1111)" class="sx">A </text>
</g>
<path d="M530.4,1062H847.9v88.2H530.4V1062Z" class="gf"/>
<path d="M1088,276.9v52.3m83.5,-52.3v52.3" class="ge"/>
<g clip-path="url(#c0)">
<text transform="matrix(0.93,0,0,1,1146.8,323)" class="sx">d </text>
<text transform="matrix(0.93,0,0,1,1092.8,323)" class="sx">c </text>
<text transform="matrix(0.93,0,0,1,1148,293.6)" class="sx">b </text>
<text transform="matrix(0.93,0,0,1,1091.9,293.6)" class="sx">a </text>
</g>
<path d="M228.9,497.8v22.6m74.7,-22.6v22.6m21,-51v79.4m15.1,-79.4v79.4" class="ge"/>
<g clip-path="url(#c0)">
<text x="492.3" y="513.8" class="ss">| </text>
<text x="479" y="513.8" class="ss">1 </text>
<text x="472.4" y="513.8" class="ss">| </text>
<text x="456.2" y="513.8" class="ss">| </text>
<text x="441.4" y="513.8" class="ss">5 </text>
<text x="399.1" y="513.8" class="ss">3 </text>
<text x="367.7" y="513.8" class="ss">2 </text>
<text x="358.7" y="513.8" class="ss">| </text>
<text x="326.6" y="542.2" class="ss">1 </text>
<text x="326.9" y="485.5" class="ss">2 </text>
<text x="291.2" y="513.8" class="ss">5 </text>
<text x="259.4" y="513.8" class="ss">3 </text>
<text x="228.9" y="513.8" class="ss">1 </text>
<text x="460.5" y="513.8" class="st"> </text>
<text x="425" y="513.8" class="st"> </text>
<text x="382.9" y="513.8" class="st"> </text>
<text x="346.8" y="513.8" class="st"> </text>
<text x="307.8" y="513.8" class="st"> </text>
<text x="210.1" y="513.8" class="st"> </text>
<text x="173.6" y="513.8" class="st"> </text>
<text x="409.6" y="513.8" class="su">b </text>
<text x="326.3" y="513.8" class="su">b </text>
<text x="190.2" y="513.8" class="su">B </text>
<text x="157.7" y="513.8" class="su">A </text>
</g>
<path d="M152.4,465H500.8v88.2H152.4V465Z" class="gf"/>
<path d="M445.9,565.6v77.7m25.6,-77.7v77.7" class="ge"/>
<g clip-path="url(#c0)">
<text x="454.2" y="636.8" class="sp">1 </text>
<text x="461.2" y="609.1" class="sp">2 </text>
<text x="454.5" y="581.3" class="sp">2 </text>
<text x="420" y="600.7" class="sj">1 </text>
<text x="447.8" y="609.1" class="sl"> </text>
<text x="430.7" y="609.1" class="sl"> </text>
<text x="414.6" y="600.7" class="sy"> </text>
<text x="402.7" y="609.1" class="sk">A </text>
</g>
<path d="M398.5,561.3h77.1v85.9H398.5V561.3Z" class="gf"/>
<path d="M394.6,714.4v48.9m40.8,-48.9v48.9" class="ge"/>
<g clip-path="url(#c0)">
<text x="423.3" y="757.5" class="sz">d </text>
<text x="396.9" y="757.5" class="sz">c </text>
<text x="424" y="730" class="sz">b </text>
<text x="396.5" y="730" class="sz">a </text>
<text x="364.8" y="743.4" class="sz">A </text>
<text x="379.7" y="743.4" class="s10"> </text>
</g>
<path d="M360.7,711.4h79.4v55H360.7v-55Z" class="gf"/>
<path d="M389.8,848.7v22.5M421,848.7v22.5" class="ge"/>
<g clip-path="url(#c0)">
<text transform="matrix(0.98,0,0,1,404.9,869.5)" dx="0,.3" class="s11">mn </text>
<text transform="matrix(0.98,0,0,1,381.3,856.2)" class="s11">n </text>
<text transform="matrix(0.98,0,0,1,366.4,856.2)" class="s11">m </text>
<text transform="matrix(0.98,0,0,1,301.7,869.5)" dx="0,.3" class="s11">mn </text>
<text transform="matrix(0.98,0,0,1,391.7,864.6)" class="s12">m </text>
<text transform="matrix(0.98,0,0,1,289.2,864.6)" class="s12">C </text>
<text transform="matrix(0.98,0,0,1,374.6,856.2)" class="s13"> </text>
<text transform="matrix(0.98,0,0,1,341.6,864.6)" class="s14"> </text>
<text transform="matrix(0.98,0,0,1,321,864.6)" class="s14"> </text>
<text transform="matrix(0.98,0,0,1,359.3,864.6)" class="sr">) </text>
<text transform="matrix(0.98,0,0,1,351.7,864.6)" class="sr">1 </text>
<text transform="matrix(0.98,0,0,1,335,864.6)" class="sr">( </text>
</g>
<path d="M287.1,844.3H426v30.9H287.1V844.3Z" class="gf"/>
<path d="M334.9,898v54.1M422.7,898v54.1" class="ge"/>
<g clip-path="url(#c0)">
<text x="399.8" y="945.5" class="s15">a </text>
<text x="354.9" y="945.5" class="s15">b </text>
<text x="409.4" y="915.1" class="s15">c </text>
<text x="345.1" y="915.1" class="s15">d </text>
<text x="290.1" y="930.1" class="s15">C </text>
<text x="337.5" y="945.5" class="s16"> </text>
<text x="391.7" y="915.1" class="s16"> </text>
<text x="314.3" y="930.1" class="s16"> </text>
</g>
<path d="M287.1,894.7H428.3v60.7H287.1V894.7Z" class="gf"/>
<path d="M248.3,1055v54.1M348.6,1055v54.1" class="ge"/>
<g clip-path="url(#c0)">
<text x="322.1" y="1102.6" class="s15">a </text>
<text x="271.6" y="1102.6" class="s15">c </text>
<text x="332.1" y="1072.2" class="s15">b </text>
<text x="259.4" y="1072.2" class="s15">d </text>
<text x="182.3" y="1087" class="s15">C </text>
<text x="203.5" y="1078" class="s17">T </text>
<text x="251.3" y="1102.6" class="s16"> </text>
<text x="312.3" y="1072.2" class="s16"> </text>
<text x="224.7" y="1087" class="s16"> </text>
</g>
<path d="M178.7,1051.7H354.6v60.7H178.7v-60.7Z" class="gf"/>
<path d="M224.3,1197.7h44.8" class="ge"/>
<g clip-path="url(#c0)">
<text transform="matrix(0.99,0,0,1,322.4,1201.9)" class="s18">) </text>
<text transform="matrix(0.99,0,0,1,305.1,1201.9)" class="s18">( </text>
<text transform="matrix(0.99,0,0,1,262.8,1214.9)" class="s18">) </text>
<text transform="matrix(0.99,0,0,1,225.2,1214.9)" dx="0,.1,-.1,-.5" class="s18">det( </text>
<text transform="matrix(0.99,0,0,1,242.5,1191.4)" class="s18">1 </text>
<text x="201.4" y="1194.4" class="s19">1 </text>
<text transform="matrix(0.99,0,0,1,312.3,1201.9)" class="s1a">A </text>
<text transform="matrix(0.99,0,0,1,282.9,1201.9)" dx="0,-.1,.1" class="s1a">adj </text>
<text transform="matrix(0.99,0,0,1,252.8,1214.9)" class="s1a">A </text>
<text transform="matrix(0.99,0,0,1,185.9,1201.9)" class="s1a">A </text>
<text transform="matrix(0.99,0,0,1,271.3,1201.9)" class="s1b"> </text>
<text transform="matrix(0.99,0,0,1,211,1201.9)" class="s1b"> </text>
<text x="196.6" y="1194.4" class="s1c"> </text>
</g>
<path d="M182.2,1175.4H330.6v45.9H182.2v-45.9Z" class="gf"/>
<path d="M617.6,445.5v54.4m80.1,-54.4v54.4" class="ge"/>
<g clip-path="url(#c0)">
<text transform="matrix(1.01,0,0,1,674.1,493.3)" class="s1d">d </text>
<text transform="matrix(1.01,0,0,1,622.3,493.3)" class="s1d">c </text>
<text transform="matrix(1.01,0,0,1,675.1,462.8)" class="s1d">b </text>
<text transform="matrix(1.01,0,0,1,621.3,462.8)" class="s1d">a </text>
<text transform="matrix(1.01,0,0,1,559.2,477.7)" class="s1d">A </text>
<text transform="matrix(1.01,0,0,1,588.3,477.7)" class="s1e"> </text>
<text transform="matrix(1.05,0,0,1,719.4,619.7)" dx="0,-.1" class="s1f">bc </text>
<text transform="matrix(1.05,0,0,1,661.7,619.7)" dx="0,-.3" class="s1f">ad </text>
<text transform="matrix(1.05,0,0,1,614.5,619.7)" class="s1f">A </text>
<text transform="matrix(1.05,0,0,1,699.1,619.7)" class="s1g"> </text>
<text transform="matrix(1.05,0,0,1,638.5,619.7)" class="s1g"> </text>
<text transform="matrix(1.05,0,0,1,570.9,619.7)" dx="0,0,-.3" class="s1h">det </text>
<text transform="matrix(1.05,0,0,1,657.6,808.3)" class="sk">i </text>
<text transform="matrix(1.05,0,0,1,625.8,808.3)" class="sk">h </text>
<text transform="matrix(1.05,0,0,1,596.4,808.3)" class="sk">g </text>
<text transform="matrix(1.05,0,0,1,657.7,780.5)" class="sk">f </text>
<text transform="matrix(1.05,0,0,1,626.2,780.5)" class="sk">e </text>
<text transform="matrix(1.05,0,0,1,595.7,780.5)" class="sk">d </text>
<text transform="matrix(1.05,0,0,1,656.2,752.7)" class="sk">c </text>
<text transform="matrix(1.05,0,0,1,625.6,752.7)" class="sk">b </text>
<text transform="matrix(1.05,0,0,1,596.4,752.7)" class="sk">a </text>
</g>
<path d="M592.6,734.3h77.6v81.3H592.6V734.3Z" class="gf"/>
<g clip-path="url(#c0)">
<text transform="matrix(1.05,0,0,1,743.3,808.3)" class="sk">i </text>
<text transform="matrix(1.05,0,0,1,711.5,808.3)" class="sk">h </text>
<text transform="matrix(1.05,0,0,1,682,808.3)" class="sk">g </text>
<text transform="matrix(1.05,0,0,1,743.4,780.5)" class="sk">f </text>
<text transform="matrix(1.05,0,0,1,711.9,780.5)" class="sk">e </text>
<text transform="matrix(1.05,0,0,1,681.2,780.5)" class="sk">d </text>
<text transform="matrix(1.05,0,0,1,741.9,752.7)" class="sk">c </text>
<text transform="matrix(1.05,0,0,1,711.2,752.7)" class="sk">b </text>
<text transform="matrix(1.05,0,0,1,682,752.7)" class="sk">a </text>
</g>
<path d="M971.8,715.8v79.4m151.3,-79.4v79.4" class="ge"/>
<g clip-path="url(#c0)">
<text x="1108.4" y="788.6" class="ss">2 </text>
<text x="1041.2" y="788.6" class="ss">0 </text>
<text x="983.7" y="788.6" class="ss">1 </text>
<text x="1098.8" y="760.2" class="ss">3 </text>
<text x="1051" y="760.2" class="ss">2 </text>
<text x="993.7" y="760.2" class="ss">2 </text>
<text x="1098.8" y="731.8" class="ss">2 </text>
<text x="1050.7" y="731.8" class="ss">1 </text>
<text x="983.7" y="731.8" class="ss">1 </text>
<text x="1089.3" y="788.6" class="st"> </text>
<text x="1031.9" y="760.2" class="st"> </text>
<text x="974.6" y="760.2" class="st"> </text>
<text x="1034.3" y="731.8" class="st"> </text>
<text x="950" y="760.2" class="st"> </text>
<text x="927.1" y="760.2" class="su">B </text>
</g>
<path d="M961.6,875.9v49m48.3,-49v49" class="ge"/>
<g clip-path="url(#c0)">
<text x="994.9" y="919.1" class="sq">3 </text>
<text x="963.6" y="919.1" class="sq">2 </text>
<text x="1001.3" y="891.5" class="sq">1 </text>
<text x="963.3" y="891.5" class="sq">1 </text>
<text x="990" y="891.5" class="s10"> </text>
<text x="946.6" y="905.1" class="s10"> </text>
<text x="929" y="905.1" class="sz">C </text>
</g>
<path d="M1345.5,102.9v54m92.1,-54v54" class="ge"/>
<g clip-path="url(#c0)">
<text x="1422.4" y="150.3" class="s1i">2 </text>
<text x="1365.1" y="150.3" class="s1i">1 </text>
<text x="1412.3" y="120.1" class="s1i">5 </text>
<text x="1355.8" y="120.1" class="s1i">2 </text>
<text x="1402.7" y="150.3" class="s16"> </text>
<text x="1348.3" y="150.3" class="s16"> </text>
<text x="1322.9" y="134.9" class="s16"> </text>
<text x="1296.2" y="134.9" class="s15">D </text>
<text x="1651.4" y="753" class="s16"> </text>
<text x="1651.4" y="745.3" class="s16"> </text>
<text x="1651.4" y="766" class="s16"> </text>
<text x="1651.4" y="732.3" class="s16"> </text>
<text x="1615.5" y="753" class="s16"> </text>
<text x="1615.5" y="745.3" class="s16"> </text>
<text x="1615.5" y="766" class="s16"> </text>
<text x="1615.5" y="732.3" class="s16"> </text>
<text x="1597" y="745.6" class="s16"> </text>
<text x="1582.2" y="753" class="s16"> </text>
<text x="1582.2" y="745.3" class="s16"> </text>
<text x="1582.2" y="766" class="s16"> </text>
<text x="1582.2" y="732.3" class="s16"> </text>
<text x="1553.8" y="753" class="s16"> </text>
<text x="1553.8" y="745.3" class="s16"> </text>
<text x="1553.8" y="766" class="s16"> </text>
<text x="1553.8" y="732.3" class="s16"> </text>
<text x="1544.6" y="753" class="s16"> </text>
<text x="1544.6" y="745.3" class="s16"> </text>
<text x="1544.6" y="766" class="s16"> </text>
<text x="1544.6" y="732.3" class="s16"> </text>
<text x="1484.4" y="753" class="s16"> </text>
<text x="1484.4" y="745.3" class="s16"> </text>
<text x="1484.4" y="766" class="s16"> </text>
<text x="1484.4" y="732.3" class="s16"> </text>
<text x="1632.3" y="761.1" class="s1i">5 </text>
<text x="1624.9" y="730.7" dx="0,.3" class="s1i">12 </text>
<text x="1530.7" y="761.1" class="s1i">1 </text>
<text x="1496.3" y="761.1" class="s1i">1 </text>
<text x="1531.1" y="730.7" class="s1i">3 </text>
<text x="1496.6" y="730.7" class="s1i">2 </text>
<text x="1568.3" y="761.1" class="s15">y </text>
<text x="1568" y="730.7" class="s15">x </text>
</g>
<path d="M1481.4,710.2h184V771h-184V710.2Z" class="gf"/>
<g clip-path="url(#c0)">
<text x="1311.8" y="752.4" class="s10"> </text>
<text x="1311.8" y="745.4" class="s10"> </text>
<text x="1311.8" y="764.2" class="s10"> </text>
<text x="1311.8" y="733.6" class="s10"> </text>
<text x="1360.9" y="759.8" class="s10"> </text>
<text x="1333.1" y="759.8" class="s10"> </text>
<text x="1378.7" y="732.3" class="s10"> </text>
<text x="1342.5" y="732.3" class="s10"> </text>
<text x="1374.7" y="759.8" class="sq">5 </text>
<text x="1391" y="732.3" class="sq">12 </text>
<text x="1355.3" y="732.3" class="sq">3 </text>
<text x="1320.8" y="732.3" class="sq">2 </text>
<text x="1348.1" y="759.8" class="sz">y </text>
<text x="1321.7" y="759.8" class="sz">x </text>
<text x="1365.8" y="732.3" class="sz">y </text>
<text x="1331.2" y="732.3" class="sz">x </text>
</g>
<path d="M1309.5,713.7h102.3v55H1309.5v-55Z" class="gf"/>
<path d="M1336.2,811.5V825m17.7,-13.5V825m-15.1,3.5v13.4m12.4,-13.4v13.4m-16.6,-15.5h21.1M1373.1,795v30m36.1,-30v30m-33.2,2.8v29.9m30.3,-29.9v29.9m-34.7,-31.3H1411m15.9,0h18.7" class="ge"/>
<g clip-path="url(#c0)">
<text transform="matrix(1.03,0,0,1,1460.7,829.1)" class="s1j">3 </text>
<text transform="matrix(1.03,0,0,1,1437.9,838)" class="s1j">1 </text>
<text transform="matrix(1.03,0,0,1,1438.1,822.1)" class="s1j">3 </text>
<text transform="matrix(1.03,0,0,1,1398.4,854.2)" class="s1j">1 </text>
<text transform="matrix(1.03,0,0,1,1377.3,854.2)" class="s1j">1 </text>
<text transform="matrix(1.03,0,0,1,1398.5,837.4)" class="s1j">3 </text>
<text transform="matrix(1.03,0,0,1,1377.6,837.4)" class="s1j">2 </text>
<text transform="matrix(1.03,0,0,1,1401.1,821.3)" class="s1j">1 </text>
<text transform="matrix(1.03,0,0,1,1377.4,821.3)" class="s1j">5 </text>
<text transform="matrix(1.03,0,0,1,1401.4,804.5)" class="s1j">3 </text>
<text transform="matrix(1.03,0,0,1,1373,804.5)" dx="0,.5" class="s1j">12 </text>
<text transform="matrix(1.03,0,0,1,1449.6,829.1)" class="s1k"> </text>
<text transform="matrix(1.03,0,0,1,1428.8,838)" class="s1k"> </text>
<text transform="matrix(1.03,0,0,1,1427.9,822.1)" class="s1k"> </text>
<text transform="matrix(1.03,0,0,1,1415,829.1)" class="s1k"> </text>
<text transform="matrix(1.03,0,0,1,1359.7,829.1)" class="s1k"> </text>
<text transform="matrix(1.03,0,0,1,1322.8,829.1)" class="s1k"> </text>
<text transform="matrix(1.03,0,0,1,1341.5,838)" class="s1l">A </text>
<text transform="matrix(1.03,0,0,1,1338.8,821)" class="s1l">A </text>
<text transform="matrix(1.03,0,0,1,1312.5,829.1)" class="s1l">x </text>
<text transform="matrix(1.03,0,0,1,1347.3,823.9)" class="s1m">x </text>
</g>
<path d="M1309.5,792.7h160.4v67.6H1309.5V792.7Z" class="gf"/>
<path d="M1335.2,890.4v16m17.8,-16v16m-14.9,3.4v13.5M1350,909.8v13.5m-16.4,-15.5h21.1m16.9,-31.4v30m36,-30v30m-32.7,2.7v30m29.4,-30v30m-34.2,-31.3h39.3m15.4,0h19.1" class="ge"/>
<g clip-path="url(#c0)">
<text transform="matrix(1.03,0,0,1,1459,910.6)" class="s1j">2 </text>
<text transform="matrix(1.03,0,0,1,1436,919.3)" class="s1j">1 </text>
<text transform="matrix(1.03,0,0,1,1436.1,903.5)" class="s1j">2 </text>
<text transform="matrix(1.03,0,0,1,1396.5,935.6)" class="s1j">1 </text>
<text transform="matrix(1.03,0,0,1,1376.2,935.6)" class="s1j">1 </text>
<text transform="matrix(1.03,0,0,1,1396.8,918.7)" class="s1j">3 </text>
<text transform="matrix(1.03,0,0,1,1376.4,918.7)" class="s1j">2 </text>
<text transform="matrix(1.03,0,0,1,1396.7,902.8)" class="s1j">5 </text>
<text transform="matrix(1.03,0,0,1,1372.9,902.8)" class="s1j">1 </text>
<text transform="matrix(1.03,0,0,1,1392.4,886)" dx="0,.6" class="s1j">12 </text>
<text transform="matrix(1.03,0,0,1,1373.2,886)" class="s1j">2 </text>
<text transform="matrix(1.03,0,0,1,1447.7,910.6)" class="s1k"> </text>
<text transform="matrix(1.03,0,0,1,1427.1,919.3)" class="s1k"> </text>
<text transform="matrix(1.03,0,0,1,1425.7,903.5)" class="s1k"> </text>
<text transform="matrix(1.03,0,0,1,1413.2,910.6)" class="s1k"> </text>
<text transform="matrix(1.03,0,0,1,1358.7,910.6)" class="s1k"> </text>
<text transform="matrix(1.03,0,0,1,1322.1,910.6)" class="s1k"> </text>
<text transform="matrix(1.03,0,0,1,1340.6,919.3)" class="s1l">A </text>
<text transform="matrix(1.03,0,0,1,1337.9,901.2)" class="s1l">A </text>
<text transform="matrix(1.03,0,0,1,1311.9,910.6)" class="s1l">y </text>
<text transform="matrix(1.03,0,0,1,1346.4,904)" class="s1m">y </text>
</g>
<path d="M1308.4,874.1h160.4v67.6H1308.4V874.1Z" class="gf"/>
<path d="M1348,398.3V476m71.8,-77.7V476" class="ge"/>
<g clip-path="url(#c0)">
<text x="1411.1" y="469.5" class="sp">1 </text>
<text x="1386.2" y="469.5" class="sp">1 </text>
<text x="1361.3" y="469.5" class="sp">1 </text>
<text x="1411.1" y="441.8" class="sp">1 </text>
<text x="1386.3" y="441.8" class="sp">2 </text>
<text x="1354.8" y="441.8" class="sp">2 </text>
<text x="1411.1" y="414" class="sp">1 </text>
<text x="1386.3" y="414" class="sp">2 </text>
<text x="1354.5" y="414" class="sp">1 </text>
<text x="1349.9" y="469.5" class="sl"> </text>
<text x="1332.8" y="441.8" class="sl"> </text>
<text x="1313" y="441.8" class="sk">H </text>
</g>

</g>

<!-- Any embedded fonts defined here -->
<style type="text/css" ><![CDATA[

@font-face {
	font-family: Carlito-BoldItalic_p;
	src: url("fonts/Carlito-BoldItalic_p.woff") format("woff");
}

@font-face {
	font-family: Carlito-Bold_z;
	src: url("fonts/Carlito-Bold_z.woff") format("woff");
}

@font-face {
	font-family: Carlito-Italic_k;
	src: url("fonts/Carlito-Italic_k.woff") format("woff");
}

@font-face {
	font-family: Carlito_f;
	src: url("fonts/Carlito_f.woff") format("woff");
}

@font-face {
	font-family: LiberationSerif-Italic_5;
	src: url("fonts/LiberationSerif-Italic_5.woff") format("woff");
}

@font-face {
	font-family: LiberationSerif_a;
	src: url("fonts/LiberationSerif_a.woff") format("woff");
}

@font-face {
	font-family: OpenSymbol_u;
	src: url("fonts/OpenSymbol_u.woff") format("woff");
}

]]></style>

</svg>
