<?xml version="1.0" encoding="UTF-8" standalone="no"?>
<svg
   width="2245.0393"
   height="1587.4016"
   viewBox="0 0 594.00002 420.00001"
   version="1.1"
   id="SVGRoot"
   sodipodi:docname="fisika.svg"
   inkscape:version="1.1 (c68e22c387, 2021-05-23)"
   inkscape:label="fsk"
   xmlns:inkscape="http://www.inkscape.org/namespaces/inkscape"
   xmlns:sodipodi="http://sodipodi.sourceforge.net/DTD/sodipodi-0.dtd"
   xmlns="http://www.w3.org/2000/svg"
   xmlns:svg="http://www.w3.org/2000/svg"
   xmlns:rdf="http://www.w3.org/1999/02/22-rdf-syntax-ns#"
   xmlns:cc="http://creativecommons.org/ns#"
   xmlns:dc="http://purl.org/dc/elements/1.1/">
  <defs
     id="defs833" />
  <sodipodi:namedview
     id="base"
     pagecolor="#d0f1cf"
     bordercolor="#999999"
     borderopacity="1.0"
     inkscape:pageopacity="1"
     inkscape:pageshadow="0"
     inkscape:zoom="0.25"
     inkscape:cx="392"
     inkscape:cy="80"
     inkscape:document-units="mm"
     inkscape:current-layer="layer3"
     inkscape:document-rotation="0"
     showgrid="true"
     inkscape:window-width="1267"
     inkscape:window-height="728"
     inkscape:window-x="83"
     inkscape:window-y="0"
     inkscape:window-maximized="0"
     units="px"
     inkscape:pagecheckerboard="0">
    <inkscape:grid
       type="xygrid"
       id="grid1981"
       dotted="false"
       snapvisiblegridlinesonly="true"
       empspacing="10" />
  </sodipodi:namedview>
  <metadata
     id="metadata836">
    <rdf:RDF>
      <cc:Work
         rdf:about="">
        <dc:format>image/svg+xml</dc:format>
        <dc:type
           rdf:resource="http://purl.org/dc/dcmitype/StillImage" />
      </cc:Work>
    </rdf:RDF>
  </metadata>
  <g
     inkscape:groupmode="layer"
     id="layer2"
     inkscape:label="fsk"
     style="display:inline">
    <rect
       style="display:inline;fill:#000000;stroke-width:0.959115;stroke-miterlimit:10"
       id="rect926"
       width="52.916664"
       height="21.166666"
       x="21.166666"
       y="84.666664" />
    <rect
       style="display:inline;fill:#000000;stroke-width:0.959115;stroke-miterlimit:10"
       id="rect1096"
       width="42.333332"
       height="21.166666"
       x="127"
       y="84.666664" />
    <g
       inkscape:groupmode="layer"
       id="layer3"
       inkscape:label="fsk 1"
       style="display:inline">
      <g
         id="g1460"
         style="display:inline">
        <ellipse
           style="fill:#e8cc4c;stroke-width:0.959115;stroke-miterlimit:10"
           id="path1343"
           cx="124.88332"
           cy="184.14999"
           rx="84.666664"
           ry="31.75" />
        <g
           transform="matrix(1.1920929,0,0,1.1920929,69.0391,164.48969)"
           id="g1241">
          <svg
             version="1.1"
             id="svg1239"
             width="100%"
             height="100%">
            <path
               d="m 11.55558,12.139041 c 0.2,0 0.333333,0.146666 0.4,0.44 0.173333,0.506667 0.446666,0.886667 0.819999,1.14 0.186667,0.133333 0.280001,0.266666 0.280001,0.399999 0,0.146668 -0.113334,0.286668 -0.34,0.420001 -0.6,0.293334 -1.126667,0.726667 -1.58,1.3 -0.146667,0.173334 -0.273334,0.26 -0.38,0.26 -0.186667,0 -0.313334,-0.09333 -0.38,-0.28 -0.01333,-0.04 -0.02,-0.08 -0.02,-0.12 0,-0.213333 0.313333,-0.606666 0.94,-1.18 H 4.8955798 c -0.4133334,0 -0.6399999,-0.09333 -0.6799998,-0.28 -0.013333,-0.04 -0.02,-0.08 -0.02,-0.120001 0.08,-0.266666 0.313333,-0.399999 0.6999998,-0.399999 H 11.63558 c -0.266667,-0.346666 -0.426668,-0.733333 -0.48,-1.16 -1e-6,-0.213332 0.09333,-0.346665 0.28,-0.4 0.04,-0.01333 0.08,-0.02 0.12,-0.02 z"
               fill="#000000"
               id="path1219" />
            <path
               d="m 5.2429299,17.579041 c 1.0266667,0 1.7466665,0.506668 2.1599999,1.52 0.4266662,-0.826666 0.9933333,-1.32 1.7000003,-1.48 0.1333332,-0.02667 0.2666664,-0.04 0.3999996,-0.04 0.7866673,0 1.3400003,0.220001 1.6600003,0.659999 0.133334,0.186669 0.199999,0.406668 0.2,0.66 -1e-6,0.546667 -0.246667,0.913334 -0.739999,1.100001 -0.12,0.04 -0.233334,0.06 -0.340001,0.06 -0.4133335,2e-6 -0.6600004,-0.179998 -0.7399994,-0.539999 -0.013333,-0.05333 -0.020001,-0.106667 -0.020001,-0.16 0,-0.399999 0.1933337,-0.713333 0.5800004,-0.94 0.119999,-0.06667 0.246667,-0.113333 0.38,-0.14 -0.280001,-0.173332 -0.613334,-0.26 -1.0000003,-0.26 -0.9066668,0 -1.5466676,0.706667 -1.9200006,2.120001 -0.026667,0.08 -0.046667,0.16 -0.06,0.239998 l -0.6799998,2.740001 c -0.226667,0.906666 -0.3400002,1.493332 -0.3400002,1.759999 0,0.693334 0.2466664,1.113334 0.7399998,1.26 0.1066665,0.04 0.2266664,0.06 0.3600001,0.06 0.666667,0 1.2733336,-0.333334 1.8200007,-1 0.3599996,-0.426668 0.6399993,-0.966667 0.8399993,-1.62 0.04,-0.146666 0.126666,-0.22 0.26,-0.22 0.16,0 0.24,0.06667 0.24,0.199999 0,0.333334 -0.206667,0.813334 -0.619999,1.440001 -0.7200003,1.093334 -1.58,1.639999 -2.580001,1.639999 -0.9066672,0 -1.566667,-0.379999 -1.98,-1.139999 -0.08,-0.120001 -0.1400003,-0.246666 -0.1799998,-0.38 -0.3200002,0.64 -0.7600002,1.086667 -1.3199997,1.340001 -0.2533336,0.119999 -0.5133338,0.179998 -0.7800002,0.179998 -0.8,0 -1.36,-0.233334 -1.68,-0.699999 -0.1333333,-0.173334 -0.2,-0.380001 -0.1999999,-0.620001 -1e-7,-0.493334 0.2133333,-0.84 0.6400001,-1.039999 0.1466666,-0.08 0.2999997,-0.120001 0.4599998,-0.120001 0.3999999,0 0.6399997,0.166666 0.7200001,0.5 0.013333,0.06667 0.019999,0.133334 0.02,0.200001 -4e-7,0.453333 -0.2266669,0.786667 -0.6799998,1 -0.08,0.04 -0.166667,0.06667 -0.2600002,0.08 0.2799999,0.173332 0.6133332,0.26 1,0.26 0.7066664,0 1.2666664,-0.473333 1.6799998,-1.42 0.08,-0.2 0.1533332,-0.42 0.2200003,-0.66 0.7199998,-2.720001 1.0799999,-4.306667 1.0799999,-4.76 -0.08,-0.826668 -0.4400005,-1.273332 -1.0799999,-1.34 -0.6933337,0 -1.3266669,0.353334 -1.9000001,1.06 v 0.02 c 0,0.01333 -0.00667,0.02 -0.02,0.02 -0.2000003,0.266667 -0.3800001,0.573334 -0.54,0.920001 -0.066667,0.159999 -0.1266665,0.319999 -0.1799998,0.479999 l -0.04,0.120001 c -0.026667,0.146665 -0.1133335,0.219999 -0.26,0.219999 -0.1600001,0 -0.2400002,-0.06667 -0.24,-0.200001 -2e-7,-0.333332 0.2133334,-0.813333 0.6400001,-1.44 0.7199998,-1.093332 1.5799999,-1.639999 2.5800002,-1.639999 z"
               fill="#000000"
               id="path1221" />
            <path
               d="m 20.431992,22.959042 h 11.940002 c 0.426666,0 0.653332,0.133333 0.68,0.399999 0,0.266667 -0.220001,0.4 -0.660003,0.4 H 20.411993 c -0.426668,0 -0.646667,-0.133333 -0.66,-0.4 -2e-6,-0.266666 0.226666,-0.399999 0.679999,-0.399999 z m -0.02,-3.880001 H 32.39199 c 0.426666,0 0.646667,0.133333 0.660003,0.399999 0,0.266668 -0.226669,0.4 -0.68,0.4 H 20.431992 c -0.426667,0 -0.653332,-0.133332 -0.679999,-0.4 -2e-6,-0.266666 0.219999,-0.399999 0.66,-0.399999 z"
               fill="#000000"
               id="path1223" />
            <path
               d="m 45.163185,-0.43111992 c 0.25333,0 0.399998,0.0466671 0.439999,0.14000031 v 0.0199996 c 0.01333,0.0400009 0.02,0.16000074 0.02,0.36000056 V 11.30888 c 0,0.399999 0.08,0.653334 0.239998,0.76 0.226669,0.133333 0.766666,0.2 1.620003,0.2 h 0.639999 v 0.62 c -0.466667,-0.04 -1.546669,-0.06 -3.240001,-0.06 -1.693333,0 -2.773335,0.02 -3.239998,0.06 v -0.62 h 0.639999 c 1.026665,0 1.613331,-0.12 1.759998,-0.36 l 0.02,-0.02 c 0.05333,-0.106667 0.08,-0.3 0.08,-0.58 V 0.9488802 c -0.693337,0.3466673 -1.56667,0.5199995 -2.620003,0.5199995 V 0.84887987 c 1.600002,9e-7 2.813335,-0.42666536 3.640003,-1.27999979 z"
               fill="#000000"
               id="path1225" />
            <rect
               x="39.743183"
               y="21.019051"
               width="10.00004"
               height="0.79997998"
               id="rect1227" />
            <path
               d="m 44.483185,26.818062 c 1.466663,0 2.606666,0.493334 3.419998,1.479999 0.466667,0.573334 0.733334,1.253334 0.799999,2.040001 0.01333,0.119999 0.02,0.24 0.02,0.360001 0,0.973331 -0.366669,1.899998 -1.099999,2.779999 -0.386669,0.453334 -0.986667,1.053333 -1.800003,1.799999 l -1.219997,1.080002 -0.200001,0.18 -2.119999,2.059998 h 3.599999 c 1.173332,0 1.806667,-0.05333 1.900001,-0.16 0.133331,-0.186665 0.279999,-0.779999 0.439999,-1.779999 h 0.5 l -0.559998,3.48 h -7.420002 c 0,-0.333333 0.04,-0.546666 0.119999,-0.64 l 0.100002,-0.100002 3.840001,-4.279999 c 1.399997,-1.573334 2.099998,-3.046665 2.099998,-4.419998 0,-1.186667 -0.360001,-2.086666 -1.080002,-2.700001 l -0.02,-0.02 h -0.02 c -0.426666,-0.360001 -0.946667,-0.540001 -1.560001,-0.540001 -0.959999,0 -1.726666,0.413334 -2.3,1.240001 -0.159999,0.24 -0.293335,0.506667 -0.400001,0.8 0.04,-0.01333 0.126667,-0.02 0.260002,-0.02 0.533333,2e-6 0.873333,0.240002 1.020001,0.720001 v 0.02 c 0.02666,0.09333 0.04,0.193333 0.04,0.299999 0,0.533333 -0.253331,0.873333 -0.759999,1.020001 -0.106666,0.02666 -0.2,0.04 -0.279998,0.04 -0.493336,0 -0.82,-0.206667 -0.980004,-0.620001 -0.05333,-0.146666 -0.08,-0.313332 -0.08,-0.5 0,-1.026665 0.393334,-1.906666 1.18,-2.64 0.706665,-0.653331 1.560002,-0.979999 2.560002,-0.979999 z"
               fill="#000000"
               id="path1229" />
            <path
               d="m 64.076569,12.139041 c 0.199997,0 0.333335,0.146666 0.400001,0.44 0.173332,0.506667 0.446663,0.886667 0.82,1.14 0.186661,0.133333 0.279999,0.266666 0.279999,0.399999 0,0.146668 -0.113335,0.286668 -0.339997,0.420001 -0.600006,0.293334 -1.126671,0.726667 -1.580002,1.3 -0.146667,0.173334 -0.273338,0.26 -0.380001,0.26 -0.186668,0 -0.313335,-0.09333 -0.380001,-0.28 -0.01333,-0.04 -0.02,-0.08 -0.02,-0.12 0,-0.213333 0.313335,-0.606666 0.939998,-1.18 h -6.399997 c -0.413334,0 -0.64,-0.09333 -0.680001,-0.28 -0.01333,-0.04 -0.02,-0.08 -0.02,-0.120001 0.08,-0.266666 0.313332,-0.399999 0.700001,-0.399999 h 6.740001 c -0.26667,-0.346666 -0.42667,-0.733333 -0.480003,-1.16 0,-0.213332 0.09333,-0.346665 0.280003,-0.4 0.04,-0.01333 0.08,-0.02 0.119999,-0.02 z"
               fill="#000000"
               id="path1231" />
            <path
               d="m 59.968876,18.019041 c -0.693333,0 -1.353333,0.453333 -1.98,1.359999 -0.119999,0.173334 -0.233333,0.36 -0.34,0.560001 -0.386665,0.773335 -0.713333,1.873333 -0.979999,3.299999 -0.08,0.453335 -0.119999,0.813334 -0.119999,1.08 0,0.906668 0.25333,1.493334 0.759998,1.760001 0.146668,0.08 0.32,0.12 0.52,0.12 0.746666,0 1.5,-0.473333 2.259999,-1.42 0.186668,-0.213333 0.313335,-0.433334 0.380001,-0.66 v -0.02 c 0.01333,-0.02667 0.02,-0.04667 0.02,-0.06 l 1,-3.920001 c 0.04,-0.2 0.06,-0.313333 0.06,-0.34 0,-0.28 -0.120003,-0.620001 -0.360001,-1.02 -0.293335,-0.493332 -0.700001,-0.74 -1.220001,-0.74 z m -0.02,-0.44 c 0.813336,0 1.426667,0.426666 1.840001,1.28 0.06667,-0.453333 0.273334,-0.733333 0.619999,-0.84 0.06667,-0.02667 0.139999,-0.04 0.220001,-0.04 0.346668,0 0.540001,0.18 0.580002,0.539999 0,0.08 -0.04667,0.306667 -0.14,0.68 l -0.720001,2.8 c -0.200001,0.84 -0.346668,1.44 -0.440002,1.800001 -0.173333,0.693332 -0.259999,1.186666 -0.259999,1.479999 0,0.613333 0.200001,0.92 0.599999,0.92 0.506668,0 0.933334,-0.533334 1.280002,-1.6 0.06667,-0.226667 0.146668,-0.52 0.239998,-0.880001 0.106667,-0.226666 0.200001,-0.346666 0.279999,-0.359999 0.160004,0 0.240005,0.06667 0.240005,0.199999 0,0.200001 -0.120002,0.666668 -0.360004,1.400002 -0.08,0.226665 -0.16,0.419998 -0.239998,0.58 -0.373333,0.733331 -0.866669,1.099998 -1.479999,1.099998 -0.74667,0 -1.286667,-0.32 -1.620003,-0.959999 -0.09333,-0.16 -0.16,-0.34 -0.199997,-0.540001 -0.840004,1 -1.706669,1.5 -2.600002,1.5 -1,0 -1.739998,-0.453333 -2.219998,-1.359999 -0.293335,-0.533333 -0.440002,-1.146667 -0.440002,-1.84 0,-1.44 0.5,-2.773334 1.5,-4 0.933334,-1.120001 1.946666,-1.733333 3.040001,-1.84 0.09333,-0.01333 0.186668,-0.02 0.279998,-0.02 z"
               fill="#000000"
               id="path1233" />
            <path
               d="m 70.672981,13.899041 c 0.346672,10e-7 0.540001,0.180001 0.580002,0.54 0,0.08 -0.273331,1.200001 -0.82,3.360001 h 1.760003 c 0.346664,0 0.533332,0.07333 0.559997,0.219999 0,0.24 -0.106666,0.373333 -0.32,0.4 h -0.02 -0.260002 -1.879998 L 68.79298,24.31904 c -0.08,0.333334 -0.120003,0.653334 -0.120003,0.960001 0,0.613333 0.206673,0.92 0.620003,0.92 0.879997,0 1.653336,-0.646667 2.32,-1.94 l 0.279998,-0.620001 c 0.08,-0.173332 0.180001,-0.266666 0.300004,-0.279999 0.159996,0 0.239997,0.06667 0.239997,0.199999 0,0.173334 -0.173332,0.553333 -0.519996,1.140001 -0.773339,1.293333 -1.660004,1.939999 -2.660004,1.939999 -0.773331,0 -1.32,-0.32 -1.639999,-0.959999 -0.133332,-0.266667 -0.199997,-0.56 -0.199997,-0.880001 0,-0.253332 0.406662,-1.98 1.220001,-5.179999 l 0.299995,-1.2 h -1.760002 c -0.333328,0 -0.513328,-0.05333 -0.539993,-0.16 h -0.02 v -0.08 c 0,-0.226667 0.106666,-0.353335 0.319999,-0.379999 h 0.279999 1.880005 l 0.779999,-3.180002 c 0.119995,-0.466666 0.386665,-0.706666 0.799995,-0.719999 z"
               fill="#000000"
               id="path1235" />
            <path
               d="m 76.693245,8.8371992 c 1.026665,0 1.824669,0.3453341 2.393997,1.0360003 0.326668,0.4013325 0.513336,0.8773325 0.560005,1.4279995 0.0093,0.084 0.014,0.168001 0.014,0.252001 0,0.681333 -0.256668,1.33 -0.770004,1.945999 -0.270668,0.317333 -0.690666,0.737333 -1.260002,1.26 l -0.853996,0.756001 -0.14,0.125999 -1.484001,1.442 h 2.520004 c 0.821328,0 1.264664,-0.03733 1.329994,-0.112 0.09334,-0.130667 0.196,-0.545999 0.307999,-1.245999 h 0.350006 l -0.392006,2.436 h -5.194 c 0,-0.233334 0.028,-0.382668 0.084,-0.448 l 0.07,-0.07 2.688004,-2.996 c 0.980003,-1.101334 1.470001,-2.132667 1.470001,-3.094 0,-0.830667 -0.251999,-1.460667 -0.756004,-1.8900006 l -0.014,-0.014 h -0.014 c -0.29866,-0.2519999 -0.662666,-0.3780003 -1.091995,-0.3780003 -0.672005,0 -1.208672,0.2893334 -1.610001,0.8679999 -0.111999,0.168 -0.205337,0.354667 -0.279999,0.560001 0.028,-0.0093 0.08866,-0.014 0.182,-0.014 0.373329,0 0.611335,0.168 0.713996,0.503999 v 0.014 c 0.01867,0.06533 0.028,0.135334 0.028,0.21 0,0.373334 -0.17733,0.611333 -0.531997,0.714 -0.07467,0.01867 -0.14,0.028 -0.196,0.028 -0.345336,1e-6 -0.574005,-0.144666 -0.686004,-0.434 -0.03733,-0.102666 -0.056,-0.219333 -0.056,-0.35 0,-0.718666 0.275337,-1.334666 0.826004,-1.848 0.494667,-0.4573326 1.091995,-0.6859999 1.792,-0.6859999 z"
               fill="#000000"
               id="path1237" />
          </svg>
        </g>
      </g>
    </g>
  </g>
</svg>
