<?xml version="1.0" encoding="UTF-8" standalone="no"?>
<!-- Created with Inkscape (http://www.inkscape.org/) -->

<svg
   width="125mm"
   height="88mm"
   viewBox="0 0 125 88"
   version="1.1"
   id="svg5"
   sodipodi:docname="lim.svg"
   inkscape:version="1.1.1 (3bf5ae0d25, 2021-09-20)"
   inkscape:export-filename="C:\Users\irzal\Desktop\barisan-repo\gbr\mtr.png"
   inkscape:export-xdpi="96"
   inkscape:export-ydpi="96"
   xmlns:inkscape="http://www.inkscape.org/namespaces/inkscape"
   xmlns:sodipodi="http://sodipodi.sourceforge.net/DTD/sodipodi-0.dtd"
   xmlns="http://www.w3.org/2000/svg"
   xmlns:svg="http://www.w3.org/2000/svg">
  <sodipodi:namedview
     id="namedview7"
     pagecolor="#ffffff"
     bordercolor="#666666"
     borderopacity="1.0"
     inkscape:pageshadow="2"
     inkscape:pageopacity="0.0"
     inkscape:pagecheckerboard="0"
     inkscape:document-units="mm"
     showgrid="false"
     inkscape:zoom="0.46324355"
     inkscape:cx="383.16778"
     inkscape:cy="387.48516"
     inkscape:window-width="1366"
     inkscape:window-height="705"
     inkscape:window-x="-8"
     inkscape:window-y="-8"
     inkscape:window-maximized="1"
     inkscape:current-layer="layer1" />
  <defs
     id="defs2">
    <filter
       inkscape:collect="always"
       style="color-interpolation-filters:sRGB"
       id="filter2942"
       x="-0.07895389"
       y="-0.113258"
       width="1.1579078"
       height="1.226516">
      <feGaussianBlur
         inkscape:collect="always"
         stdDeviation="3.9082177"
         id="feGaussianBlur2944" />
    </filter>
  </defs>
  <g
     inkscape:label="Layer 1"
     inkscape:groupmode="layer"
     id="layer1">
    <text
       xml:space="preserve"
       style="font-style:normal;font-weight:normal;font-size:29.3832px;line-height:1.25;font-family:sans-serif;fill:#000000;fill-opacity:1;stroke:none;stroke-width:0.734582"
       x="62.483971"
       y="34.044643"
       id="text627"
       transform="scale(0.79162454,1.2632251)"><tspan
         sodipodi:role="line"
         id="tspan625"
         style="stroke-width:0.734582"
         x="62.483971"
         y="34.044643">limit</tspan></text>
    <rect
       style="opacity:0.386179;fill:#ff6600;fill-opacity:1;fill-rule:evenodd;stroke-width:1.55962;filter:url(#filter2942)"
       id="rect1955"
       width="118.8"
       height="82.817307"
       x="1.842731"
       y="3.3941789"
       transform="matrix(0.92558704,0,0,0.92084209,5.9348173,5.5958566)" />
    <path
       sodipodi:type="spiral"
       style="fill:none;fill-rule:evenodd;stroke:#000000"
       id="path8291"
       sodipodi:cx="23.745609"
       sodipodi:cy="177.01273"
       sodipodi:expansion="1"
       sodipodi:revolution="3"
       sodipodi:radius="96.176926"
       sodipodi:argument="-18.080029"
       sodipodi:t0="0"
       d="m 23.745609,177.01273 c 3.463465,3.35523 -2.814042,6.32403 -5.576625,5.7565 -7.486431,-1.53797 -8.8373622,-11.07445 -5.936387,-16.90976 5.189163,-10.43799 19.071762,-11.8715 28.242889,-6.11626 13.458999,8.44604 14.993524,27.17682 6.296149,39.57602 -11.592234,16.52618 -35.320038,18.15286 -50.9091538,6.47603 -19.6173112,-14.69411 -21.3314802,-43.48141 -6.6559102,-62.24229 17.7740826,-22.72193 51.653009,-24.52126 73.575418,-6.83579 25.8348,20.84171 27.71804,59.83098 7.015671,84.90855 -23.901705,28.95305 -68.0132024,30.9195 -96.241681,7.19555 -32.074992,-26.95665 -34.124222,-76.19841 -7.375433,-107.57481 30.0080993,-35.199578 84.385806,-37.331321 118.907945,-7.55531 38.326119,33.05701 40.540199,92.57483 7.735194,130.24107"
       transform="matrix(0.26458333,0,0,0.26458333,22.846154,8.5673077)" />
  </g>
</svg>
