<svg xmlns="http://www.w3.org/2000/svg" xmlns:xlink="http://www.w3.org/1999/xlink" width="48" height="48" viewBox="0 0 12.7 12.7"><defs><linearGradient id="c"><stop style="stop-color:#000;stop-opacity:1" offset="0"/><stop style="stop-color:#000;stop-opacity:0" offset="1"/></linearGradient><linearGradient id="b"><stop style="stop-color:#00f;stop-opacity:1" offset="0"/><stop style="stop-color:#00f;stop-opacity:0" offset="1"/></linearGradient><linearGradient xlink:href="#b" id="e" x1="42.333" y1="89.034" x2="95.25" y2="90.882" gradientUnits="userSpaceOnUse"/><path id="g" d="M2.387 2.593h8.516v8.398H2.387z"/><path id="d" d="M-280.458-105.833h42.333v21.167h-42.333z"/><pattern patternUnits="userSpaceOnUse" width="2" height="1" patternTransform="scale(10)" id="a"><path style="fill:#000;stroke:none" d="M0-.5h1v2H0z"/></pattern><marker style="overflow:visible" id="f" refX="0" refY="0" orient="auto"><path transform="matrix(-.8 0 0 -.8 -10 0)" style="fill:#000;fill-opacity:1;fill-rule:evenodd;stroke:#000;stroke-width:1pt;stroke-opacity:1" d="m0 0 5-5-17.5 5L5 5z"/></marker></defs><path style="opacity:1;fill:#0f0;fill-opacity:.57661289;fill-rule:nonzero;stroke:#000;stroke-width:.0301926;stroke-miterlimit:4;stroke-dasharray:none;stroke-opacity:1;paint-order:normal" d="M.12 12.594c.031-.15.095-.27.152-.39.12-.267.294-.425.459-.592.163-.165.342-.277.52-.386.132-.08 1.299 1.177 1.433 1.1.12-.057-.794-1.456-.672-1.503.173-.06.35-.08.525-.097.198-.015.397-.005.596-.006.161.007 3.033 1.414 3.195 1.409.204-.009-2.303-1.428-2.1-1.427.209.012.417 0 .625.012.156.014.312.016.468-.012.151-.03.302-.067.453-.093l.456-.12c.147-.043 5.522 1.89.442-.113.115-.035.231-.057.348-.083.107-.04.216-.065.323-.113.093-.055.19-.076.284-.124.055-.028.11-.064.165-.094.171-.102 4.175.122 4.336-.019.186-.21-2.955-.746-2.768-.951.216-.23-.092-.507.106-.782.284-.388 3.66.823.842-1.186.21-.285 2.335-1 2.516-1.343.175-.335-1.61-.32-1.452-.683-.26 1.124.06-.135.09-.202.147-.329 1.318-.366 1.464-.698.091-.206-1.113-.103-1.024-.312.165-.368.315-.753.463-1.143.02-.053.04-.106.062-.16l-.044-.764V.002c0-.062-.04 1.833-.06 1.892-.148.4-.582.14-.748.518-.173.404-.06 1.467-.24 1.86-.158.35-.313.708-.483 1.04-.18.361-.367.709-.572 1.027-.264.423 1.04-5.267.74-4.926-.205.236-1.987 6.57-2.189 6.816-.183.198-.488-4.051-.68-3.88-.157.146-.2 4.72-.372 4.805a3.36 3.36 0 0 1-.446.183c-.107.034-.215.053-.322.088-.115.044-.23.085-.348.116-.146.05-.712-2.226-.859-2.183-.151.038.117 2.386-.036 2.415-.15.042-.3.09-.451.098-.155.022-.309.052-.464.05-.208.013-.416.001-.624.013-.204.001-.408-.016-.611-.024a5.466 5.466 0 0 0-.486.012c-.199.003-.398.02-.597.022-.177.003-.356.003-.532.042-.126.038-.246.1-.367.167-.135.085-.269.17-.403.257-.176.13-.35.269-.525.409-.167.154-.319.353-.477.533-.055.11-.112.218-.168.324l.058.918z"/><text xml:space="preserve" style="font-size:9.36778px;line-height:1.25;font-family:Algerian;-inkscape-font-specification:Algerian;opacity:1;mix-blend-mode:lighten;fill:#f6ec72;stroke:#000;stroke-width:.0264583;stroke-miterlimit:4;stroke-dasharray:none;stroke-opacity:1;paint-order:fill markers stroke;fill-opacity:1" x="-.245" y="7.958" transform="scale(.78736 1.27007)"><tspan x="-.245" y="7.958" style="fill:#f6ec72;stroke:#000;stroke-width:.0264583;stroke-miterlimit:4;stroke-dasharray:none;stroke-opacity:1;paint-order:fill markers stroke;fill-opacity:1">b&apos;<tspan style="font-style:normal;font-variant:normal;font-weight:400;font-stretch:extra-condensed;font-size:4.88079px;font-family:Algerian;-inkscape-font-specification:'Algerian Extra-Condensed';fill:#f6ec72;stroke:#000;stroke-width:.0264583;stroke-miterlimit:4;stroke-dasharray:none;stroke-opacity:1;paint-order:fill markers stroke;fill-opacity:1">Phy</tspan></tspan></text></svg>