<?xml version="1.0" encoding="UTF-8" standalone="no"?>
<!-- Created with Inkscape (http://www.inkscape.org/) -->

<svg
   width="210mm"
   height="74mm"
   viewBox="0 0 210 74"
   version="1.1"
   id="svg5"
   inkscape:version="1.1.1 (3bf5ae0d25, 2021-09-20)"
   sodipodi:docname="map1.svg"
   xmlns:inkscape="http://www.inkscape.org/namespaces/inkscape"
   xmlns:sodipodi="http://sodipodi.sourceforge.net/DTD/sodipodi-0.dtd"
   xmlns:xlink="http://www.w3.org/1999/xlink"
   xmlns="http://www.w3.org/2000/svg"
   xmlns:svg="http://www.w3.org/2000/svg">
  <sodipodi:namedview
     id="namedview7"
     pagecolor="#ffffff"
     bordercolor="#000000"
     borderopacity="0.25"
     inkscape:pageshadow="2"
     inkscape:pageopacity="0.0"
     inkscape:pagecheckerboard="0"
     inkscape:document-units="mm"
     showgrid="false"
     inkscape:zoom="1.4186706"
     inkscape:cx="284.4212"
     inkscape:cy="139.91972"
     inkscape:window-width="1350"
     inkscape:window-height="729"
     inkscape:window-x="0"
     inkscape:window-y="0"
     inkscape:window-maximized="0"
     inkscape:current-layer="layer1" />
  <defs
     id="defs2">
    <marker
       style="overflow:visible;"
       id="marker17124"
       refX="0.0"
       refY="0.0"
       orient="auto"
       inkscape:stockid="Arrow1Lend"
       inkscape:isstock="true">
      <path
         transform="scale(0.8) rotate(180) translate(12.5,0)"
         style="fill-rule:evenodd;fill:context-stroke;stroke:context-stroke;stroke-width:1.0pt;"
         d="M 0.0,0.0 L 5.0,-5.0 L -12.5,0.0 L 5.0,5.0 L 0.0,0.0 z "
         id="path17122" />
    </marker>
    <marker
       style="overflow:visible;"
       id="marker17114"
       refX="0.0"
       refY="0.0"
       orient="auto"
       inkscape:stockid="Arrow1Lend"
       inkscape:isstock="true">
      <path
         transform="scale(0.8) rotate(180) translate(12.5,0)"
         style="fill-rule:evenodd;fill:context-stroke;stroke:context-stroke;stroke-width:1.0pt;"
         d="M 0.0,0.0 L 5.0,-5.0 L -12.5,0.0 L 5.0,5.0 L 0.0,0.0 z "
         id="path17112" />
    </marker>
    <marker
       style="overflow:visible;"
       id="Arrow1Lend"
       refX="0.0"
       refY="0.0"
       orient="auto"
       inkscape:stockid="Arrow1Lend"
       inkscape:isstock="true">
      <path
         transform="scale(0.8) rotate(180) translate(12.5,0)"
         style="fill-rule:evenodd;fill:context-stroke;stroke:context-stroke;stroke-width:1.0pt;"
         d="M 0.0,0.0 L 5.0,-5.0 L -12.5,0.0 L 5.0,5.0 L 0.0,0.0 z "
         id="path10784" />
    </marker>
    <marker
       style="overflow:visible;"
       id="Arrow1Mend"
       refX="0.0"
       refY="0.0"
       orient="auto"
       inkscape:stockid="Arrow1Mend"
       inkscape:isstock="true">
      <path
         transform="scale(0.4) rotate(180) translate(10,0)"
         style="fill-rule:evenodd;fill:context-stroke;stroke:context-stroke;stroke-width:1.0pt;"
         d="M 0.0,0.0 L 5.0,-5.0 L -12.5,0.0 L 5.0,5.0 L 0.0,0.0 z "
         id="path10790" />
    </marker>
    <marker
       style="overflow:visible;"
       id="Arrow1Send"
       refX="0.0"
       refY="0.0"
       orient="auto"
       inkscape:stockid="Arrow1Send"
       inkscape:isstock="true">
      <path
         transform="scale(0.2) rotate(180) translate(6,0)"
         style="fill-rule:evenodd;fill:context-stroke;stroke:context-stroke;stroke-width:1.0pt;"
         d="M 0.0,0.0 L 5.0,-5.0 L -12.5,0.0 L 5.0,5.0 L 0.0,0.0 z "
         id="path10796" />
    </marker>
    <marker
       style="overflow:visible;"
       id="Arrow2Mend"
       refX="0.0"
       refY="0.0"
       orient="auto"
       inkscape:stockid="Arrow2Mend"
       inkscape:isstock="true">
      <path
         transform="scale(0.6) rotate(180) translate(0,0)"
         d="M 8.7185878,4.0337352 L -2.2072895,0.016013256 L 8.7185884,-4.0017078 C 6.9730900,-1.6296469 6.9831476,1.6157441 8.7185878,4.0337352 z "
         style="stroke:context-stroke;fill-rule:evenodd;fill:context-stroke;stroke-width:0.62500000;stroke-linejoin:round;"
         id="path10808" />
    </marker>
    <linearGradient
       id="linearGradient6508"
       inkscape:swatch="solid">
      <stop
         style="stop-color:#003900;stop-opacity:1;"
         offset="0"
         id="stop6506" />
    </linearGradient>
    <linearGradient
       inkscape:collect="always"
       xlink:href="#linearGradient6508"
       id="linearGradient6622"
       gradientUnits="userSpaceOnUse"
       gradientTransform="matrix(1.0001031,0,0,0.91599168,110.00219,151.38202)"
       x1="2.4869499"
       y1="40.411156"
       x2="112.75967"
       y2="40.411156" />
    <linearGradient
       inkscape:collect="always"
       xlink:href="#linearGradient6508"
       id="linearGradient6626"
       gradientUnits="userSpaceOnUse"
       gradientTransform="matrix(1.0001031,0,0,0.91599168,110.00219,220.61618)"
       x1="2.4869499"
       y1="40.411156"
       x2="112.75967"
       y2="40.411156" />
    <linearGradient
       inkscape:collect="always"
       xlink:href="#linearGradient6508"
       id="linearGradient6714"
       gradientUnits="userSpaceOnUse"
       gradientTransform="matrix(1.0001031,0,0,0.91599168,109.99651,75.803857)"
       x1="2.4869499"
       y1="40.411156"
       x2="112.75967"
       y2="40.411156" />
    <linearGradient
       inkscape:collect="always"
       xlink:href="#linearGradient6508"
       id="linearGradient8672"
       gradientUnits="userSpaceOnUse"
       gradientTransform="matrix(1.0001031,0,0,0.91599168,220.02167,151.38202)"
       x1="2.4869499"
       y1="40.411156"
       x2="112.75967"
       y2="40.411156" />
  </defs>
  <g
     inkscape:label="Layer 1"
     inkscape:groupmode="layer"
     id="layer1">
    <text
       xml:space="preserve"
       style="font-style:normal;font-variant:normal;font-weight:bold;font-stretch:normal;font-size:8.95879px;font-family:sans-serif;-inkscape-font-specification:'sans-serif Bold';fill:#99832f;fill-opacity:1;stroke-width:0.335951"
       x="6.127387"
       y="8.9207973"
       id="text5601"
       transform="scale(0.63374184,1.5779296)"><tspan
         sodipodi:role="line"
         id="tspan5599"
         style="font-size:8.95879px;fill:#99832f;fill-opacity:1;stroke-width:0.335951"
         x="6.127387"
         y="8.9207973">Bilangan Berpangkat</tspan></text>
    <text
       xml:space="preserve"
       style="font-style:normal;font-variant:normal;font-weight:bold;font-stretch:normal;font-size:11.825px;font-family:sans-serif;-inkscape-font-specification:'sans-serif Bold';fill:#241c1c;stroke-width:0.443437"
       x="444.99814"
       y="12.516476"
       id="text5605"
       transform="scale(0.52329943,1.9109518)"><tspan
         sodipodi:role="line"
         id="tspan5603"
         style="font-size:11.825px;stroke-width:0.443437"
         x="444.99814"
         y="12.516476">Bentuk Akar</tspan></text>
    <text
       xml:space="preserve"
       style="font-style:normal;font-variant:normal;font-weight:bold;font-stretch:normal;font-size:8.32764px;font-family:sans-serif;-inkscape-font-specification:'sans-serif Bold';fill:#241c1c;stroke-width:0.312286"
       x="623.40918"
       y="14.906974"
       id="text5609"
       transform="scale(0.54544382,1.8333694)"><tspan
         sodipodi:role="line"
         id="tspan5607"
         style="font-size:8.32764px;stroke-width:0.312286"
         x="623.40918"
         y="14.906974">Bentuk Logaritma</tspan></text>
    <text
       xml:space="preserve"
       style="font-style:normal;font-variant:normal;font-weight:bold;font-stretch:normal;font-size:6.67613px;font-family:sans-serif;-inkscape-font-specification:'sans-serif Bold';fill:#241c1c;stroke-width:0.250354"
       x="56.067802"
       y="69.074669"
       id="text5613"
       transform="scale(0.60646943,1.6488877)"><tspan
         sodipodi:role="line"
         id="tspan5611"
         style="font-size:6.67613px;stroke-width:0.250354"
         x="56.067802"
         y="69.074669">Sifat-sifat</tspan></text>
    <text
       xml:space="preserve"
       style="font-style:normal;font-variant:normal;font-weight:bold;font-stretch:normal;font-size:6.67613px;font-family:sans-serif;-inkscape-font-specification:'sans-serif Bold';fill:#241c1c;stroke-width:0.250354"
       x="43.111298"
       y="114.00623"
       id="text5617"
       transform="scale(0.60646943,1.6488877)"><tspan
         sodipodi:role="line"
         id="tspan5615"
         style="font-size:6.67613px;stroke-width:0.250354"
         x="43.111298"
         y="114.00623">TRANSFORMASI GEOMETRI</tspan></text>
    <text
       xml:space="preserve"
       style="font-style:normal;font-variant:normal;font-weight:bold;font-stretch:normal;font-size:6.67613px;font-family:sans-serif;-inkscape-font-specification:'sans-serif Bold';fill:#241c1c;stroke-width:0.250354"
       x="44.962227"
       y="151.4492"
       id="text5621"
       transform="scale(0.60646943,1.6488877)"><tspan
         sodipodi:role="line"
         id="tspan5619"
         style="font-size:6.67613px;stroke-width:0.250354"
         x="44.962227"
         y="151.4492">TRANSFORMASI GEOMETRI</tspan></text>
    <rect
       style="fill:none;stroke:url(#linearGradient6622);stroke-width:0.253239;stroke-opacity:1"
       id="rect6620"
       width="110.01948"
       height="69.234154"
       x="112.6217"
       y="153.78122"
       inkscape:transform-center-x="22.078743"
       inkscape:transform-center-y="-15.423454" />
    <rect
       style="fill:none;stroke:url(#linearGradient6626);stroke-width:0.253239;stroke-opacity:1"
       id="rect6624"
       width="110.01948"
       height="69.234154"
       x="112.6217"
       y="223.01538"
       inkscape:transform-center-x="22.078743"
       inkscape:transform-center-y="-15.423454" />
    <rect
       style="fill:none;stroke:url(#linearGradient6714);stroke-width:0.253239;stroke-opacity:1"
       id="rect6712"
       width="110.01948"
       height="69.234154"
       x="112.61602"
       y="78.203056"
       inkscape:transform-center-x="22.078743"
       inkscape:transform-center-y="-15.423454" />
    <rect
       style="fill:none;stroke:url(#linearGradient8672);stroke-width:0.253239;stroke-opacity:1"
       id="rect8670"
       width="110.01948"
       height="69.234154"
       x="222.64117"
       y="153.78122"
       inkscape:transform-center-x="22.078743"
       inkscape:transform-center-y="-15.423454" />
    <text
       xml:space="preserve"
       style="font-style:normal;font-variant:normal;font-weight:bold;font-stretch:normal;font-size:6.67613px;font-family:sans-serif;-inkscape-font-specification:'sans-serif Bold';fill:#241c1c;stroke-width:0.250354"
       x="402.19156"
       y="57.047531"
       id="text15684"
       transform="scale(0.60646943,1.6488877)"><tspan
         sodipodi:role="line"
         id="tspan15682"
         style="font-size:6.67613px;stroke-width:0.250354"
         x="402.19156"
         y="57.047531">Sifat-sifat</tspan></text>
    <text
       xml:space="preserve"
       style="font-style:normal;font-variant:normal;font-weight:bold;font-stretch:normal;font-size:6.67613px;font-family:sans-serif;-inkscape-font-specification:'sans-serif Bold';fill:#241c1c;stroke-width:0.250354"
       x="570.6261"
       y="37.758724"
       id="text15688"
       transform="scale(0.60646943,1.6488877)"><tspan
         sodipodi:role="line"
         id="tspan15686"
         style="font-size:6.67613px;stroke-width:0.250354"
         x="570.6261"
         y="37.758724">Sifat-sifat</tspan></text>
    <text
       xml:space="preserve"
       style="font-style:normal;font-variant:normal;font-weight:bold;font-stretch:normal;font-size:4.52335px;font-family:sans-serif;-inkscape-font-specification:'sans-serif Bold';fill:#4d1ca9;fill-opacity:1;stroke:#000000;stroke-width:0.169625;stroke-opacity:1"
       x="39.629574"
       y="86.725357"
       id="text16303"
       transform="scale(1.3654231,0.73237372)"><tspan
         sodipodi:role="line"
         id="tspan16301"
         style="stroke-width:0.169625"
         x="39.629574"
         y="86.725357">akar</tspan></text>
    <text
       xml:space="preserve"
       style="font-style:normal;font-variant:normal;font-weight:bold;font-stretch:normal;font-size:4.6912px;font-family:sans-serif;-inkscape-font-specification:'sans-serif Bold';fill:#4d1ca9;fill-opacity:1;stroke:#000000;stroke-width:0.17592;stroke-opacity:1"
       x="55.807602"
       y="37.625229"
       id="text16901"
       transform="scale(1.1584565,0.86321757)"><tspan
         sodipodi:role="line"
         id="tspan16899"
         style="stroke-width:0.17592"
         x="55.807602"
         y="37.625229">logaritma</tspan></text>
    <text
       xml:space="preserve"
       style="font-style:normal;font-variant:normal;font-weight:normal;font-stretch:normal;font-size:2.11667px;font-family:Cambria;-inkscape-font-specification:Cambria;fill:#4d1ca9;fill-opacity:1;stroke:#00075b;stroke-width:0.0264583;stroke-miterlimit:4;stroke-dasharray:none;stroke-opacity:1"
       x="103.97381"
       y="11.849971"
       id="text21341"><tspan
         sodipodi:role="line"
         id="tspan21339"
         style="font-style:normal;font-variant:normal;font-weight:normal;font-stretch:normal;font-size:2.11667px;font-family:Cambria;-inkscape-font-specification:Cambria;fill:#4d1ca9;fill-opacity:1;stroke:#00075b;stroke-width:0.0264583;stroke-miterlimit:4;stroke-dasharray:none;stroke-opacity:1"
         x="103.97381"
         y="11.849971">sifat 1</tspan></text>
    <path
       style="fill:#4d1ca9;fill-opacity:1;stroke:#00075b;stroke-width:0.079375;stroke-miterlimit:4;stroke-dasharray:none;stroke-opacity:1;marker-end:url(#marker17114)"
       d="M 12.493536,34.969418 25.344348,34.719226"
       id="path25783"
       sodipodi:nodetypes="cc" />
    <path
       style="fill:#4d1ca9;fill-opacity:1;stroke:#00075b;stroke-width:0.079375;stroke-miterlimit:4;stroke-dasharray:none;stroke-opacity:1"
       d="m 36.483498,40.435715 -0.456462,8.417792"
       id="path25787"
       sodipodi:nodetypes="cc" />
    <path
       style="fill:#4d1ca9;fill-opacity:1;stroke:#00075b;stroke-width:0.079375;stroke-miterlimit:4;stroke-dasharray:none;stroke-opacity:1;marker-end:url(#Arrow1Lend)"
       d="M 45.554503,64.894412 72.34035,64.795942"
       id="path25789"
       sodipodi:nodetypes="cc" />
    <path
       style="fill:#4d1ca9;fill-opacity:1;stroke:#00075b;stroke-width:0.079375;stroke-miterlimit:4;stroke-dasharray:none;stroke-opacity:1"
       d="m 106.53982,10.130032 c 1.74632,-0.8829757 1.74632,-0.8829757 1.74632,-0.8829757"
       id="path26012" />
    <path
       style="fill:#4d1ca9;fill-opacity:1;stroke:#00075b;stroke-width:0.079375;stroke-miterlimit:4;stroke-dasharray:none;stroke-opacity:1"
       d="m 105.64703,10.179085 c 0.48073,-1.2067327 0.48073,-1.2067327 0.48073,-1.2067327"
       id="path26014" />
    <path
       style="fill:#4d1ca9;fill-opacity:1;stroke:#00075b;stroke-width:0.079375;stroke-miterlimit:4;stroke-dasharray:none;stroke-opacity:1"
       d="m 105.69608,12.239361 c -2.09952,0.814298 -2.09952,0.814298 -2.09952,0.814298"
       id="path26016" />
    <path
       style="fill:#4d1ca9;fill-opacity:1;stroke:#00075b;stroke-width:0.079375;stroke-miterlimit:4;stroke-dasharray:none;stroke-opacity:1"
       d="m 106.15719,12.21974 c 1.50106,1.069379 1.50106,1.069379 1.50106,1.069379"
       id="path26018" />
    <path
       style="fill:#4d1ca9;fill-opacity:1;stroke:#00075b;stroke-width:0.079375;stroke-miterlimit:4;stroke-dasharray:none;stroke-opacity:1"
       d="m 104.13616,10.532275 c -0.5396,-0.8142977 -0.5396,-0.8142977 -0.5396,-0.8142977"
       id="path26020" />
    <text
       xml:space="preserve"
       style="font-style:normal;font-variant:normal;font-weight:normal;font-stretch:normal;font-size:0.748796px;font-family:Cambria;-inkscape-font-specification:Cambria;fill:#4d1ca9;fill-opacity:1;stroke:#00075b;stroke-width:0.0015875;stroke-miterlimit:4;stroke-dasharray:none;stroke-opacity:1"
       x="99.165825"
       y="11.472676"
       id="text29976"
       transform="scale(1.1136412,0.89795528)"><tspan
         sodipodi:role="line"
         id="tspan29974"
         style="stroke-width:0.0015875;stroke-miterlimit:4;stroke-dasharray:none"
         x="99.165825"
         y="11.472676">perkalian</tspan></text>
    <path
       style="fill:#c83737;stroke:#00075b;stroke-width:0.202;marker-end:url(#Arrow2Mend)"
       d="m 61.757058,35.465641 37.309734,0.31668"
       id="path16363" />
    <path
       style="fill:#4d1ca9;fill-opacity:1;stroke:#00075b;stroke-width:0.079375;stroke-miterlimit:4;stroke-dasharray:none;stroke-opacity:1;marker-end:url(#marker17124)"
       d="M 13.022542,64.898092 27.209357,64.508743"
       id="path16870"
       sodipodi:nodetypes="cc" />
  </g>
  <script
     id="mesh_polyfill"
     type="text/javascript">
!function(){const t=&quot;http://www.w3.org/2000/svg&quot;,e=&quot;http://www.w3.org/1999/xlink&quot;,s=&quot;http://www.w3.org/1999/xhtml&quot;,r=2;if(document.createElementNS(t,&quot;meshgradient&quot;).x)return;const n=(t,e,s,r)=&gt;{let n=new x(.5*(e.x+s.x),.5*(e.y+s.y)),o=new x(.5*(t.x+e.x),.5*(t.y+e.y)),i=new x(.5*(s.x+r.x),.5*(s.y+r.y)),a=new x(.5*(n.x+o.x),.5*(n.y+o.y)),h=new x(.5*(n.x+i.x),.5*(n.y+i.y)),l=new x(.5*(a.x+h.x),.5*(a.y+h.y));return[[t,o,a,l],[l,h,i,r]]},o=t=&gt;{let e=t[0].distSquared(t[1]),s=t[2].distSquared(t[3]),r=.25*t[0].distSquared(t[2]),n=.25*t[1].distSquared(t[3]),o=e&gt;s?e:s,i=r&gt;n?r:n;return 18*(o&gt;i?o:i)},i=(t,e)=&gt;Math.sqrt(t.distSquared(e)),a=(t,e)=&gt;t.scale(2/3).add(e.scale(1/3)),h=t=&gt;{let e,s,r,n,o,i,a,h=new g;return t.match(/(\w+\(\s*[^)]+\))+/g).forEach(t=&gt;{let l=t.match(/[\w.-]+/g),d=l.shift();switch(d){case&quot;translate&quot;:2===l.length?e=new g(1,0,0,1,l[0],l[1]):(console.error(&quot;mesh.js: translate does not have 2 arguments!&quot;),e=new g(1,0,0,1,0,0)),h=h.append(e);break;case&quot;scale&quot;:1===l.length?s=new g(l[0],0,0,l[0],0,0):2===l.length?s=new g(l[0],0,0,l[1],0,0):(console.error(&quot;mesh.js: scale does not have 1 or 2 arguments!&quot;),s=new g(1,0,0,1,0,0)),h=h.append(s);break;case&quot;rotate&quot;:if(3===l.length&amp;&amp;(e=new g(1,0,0,1,l[1],l[2]),h=h.append(e)),l[0]){r=l[0]*Math.PI/180;let t=Math.cos(r),e=Math.sin(r);Math.abs(t)&lt;1e-16&amp;&amp;(t=0),Math.abs(e)&lt;1e-16&amp;&amp;(e=0),a=new g(t,e,-e,t,0,0),h=h.append(a)}else console.error(&quot;math.js: No argument to rotate transform!&quot;);3===l.length&amp;&amp;(e=new g(1,0,0,1,-l[1],-l[2]),h=h.append(e));break;case&quot;skewX&quot;:l[0]?(r=l[0]*Math.PI/180,n=Math.tan(r),o=new g(1,0,n,1,0,0),h=h.append(o)):console.error(&quot;math.js: No argument to skewX transform!&quot;);break;case&quot;skewY&quot;:l[0]?(r=l[0]*Math.PI/180,n=Math.tan(r),i=new g(1,n,0,1,0,0),h=h.append(i)):console.error(&quot;math.js: No argument to skewY transform!&quot;);break;case&quot;matrix&quot;:6===l.length?h=h.append(new g(...l)):console.error(&quot;math.js: Incorrect number of arguments for matrix!&quot;);break;default:console.error(&quot;mesh.js: Unhandled transform type: &quot;+d)}}),h},l=t=&gt;{let e=[],s=t.split(/[ ,]+/);for(let t=0,r=s.length-1;t&lt;r;t+=2)e.push(new x(parseFloat(s[t]),parseFloat(s[t+1])));return e},d=(t,e)=&gt;{for(let s in e)t.setAttribute(s,e[s])},c=(t,e,s,r,n)=&gt;{let o,i,a=[0,0,0,0];for(let h=0;h&lt;3;++h)e[h]&lt;t[h]&amp;&amp;e[h]&lt;s[h]||t[h]&lt;e[h]&amp;&amp;s[h]&lt;e[h]?a[h]=0:(a[h]=.5*((e[h]-t[h])/r+(s[h]-e[h])/n),o=Math.abs(3*(e[h]-t[h])/r),i=Math.abs(3*(s[h]-e[h])/n),a[h]&gt;o?a[h]=o:a[h]&gt;i&amp;&amp;(a[h]=i));return a},u=[[1,0,0,0,0,0,0,0,0,0,0,0,0,0,0,0],[0,0,0,0,1,0,0,0,0,0,0,0,0,0,0,0],[-3,3,0,0,-2,-1,0,0,0,0,0,0,0,0,0,0],[2,-2,0,0,1,1,0,0,0,0,0,0,0,0,0,0],[0,0,0,0,0,0,0,0,1,0,0,0,0,0,0,0],[0,0,0,0,0,0,0,0,0,0,0,0,1,0,0,0],[0,0,0,0,0,0,0,0,-3,3,0,0,-2,-1,0,0],[0,0,0,0,0,0,0,0,2,-2,0,0,1,1,0,0],[-3,0,3,0,0,0,0,0,-2,0,-1,0,0,0,0,0],[0,0,0,0,-3,0,3,0,0,0,0,0,-2,0,-1,0],[9,-9,-9,9,6,3,-6,-3,6,-6,3,-3,4,2,2,1],[-6,6,6,-6,-3,-3,3,3,-4,4,-2,2,-2,-2,-1,-1],[2,0,-2,0,0,0,0,0,1,0,1,0,0,0,0,0],[0,0,0,0,2,0,-2,0,0,0,0,0,1,0,1,0],[-6,6,6,-6,-4,-2,4,2,-3,3,-3,3,-2,-1,-2,-1],[4,-4,-4,4,2,2,-2,-2,2,-2,2,-2,1,1,1,1]],f=t=&gt;{let e=[];for(let s=0;s&lt;16;++s){e[s]=0;for(let r=0;r&lt;16;++r)e[s]+=u[s][r]*t[r]}return e},p=(t,e,s)=&gt;{const r=e*e,n=s*s,o=e*e*e,i=s*s*s;return t[0]+t[1]*e+t[2]*r+t[3]*o+t[4]*s+t[5]*s*e+t[6]*s*r+t[7]*s*o+t[8]*n+t[9]*n*e+t[10]*n*r+t[11]*n*o+t[12]*i+t[13]*i*e+t[14]*i*r+t[15]*i*o},y=t=&gt;{let e=[],s=[],r=[];for(let s=0;s&lt;4;++s)e[s]=[],e[s][0]=n(t[0][s],t[1][s],t[2][s],t[3][s]),e[s][1]=[],e[s][1].push(...n(...e[s][0][0])),e[s][1].push(...n(...e[s][0][1])),e[s][2]=[],e[s][2].push(...n(...e[s][1][0])),e[s][2].push(...n(...e[s][1][1])),e[s][2].push(...n(...e[s][1][2])),e[s][2].push(...n(...e[s][1][3]));for(let t=0;t&lt;8;++t){s[t]=[];for(let r=0;r&lt;4;++r)s[t][r]=[],s[t][r][0]=n(e[0][2][t][r],e[1][2][t][r],e[2][2][t][r],e[3][2][t][r]),s[t][r][1]=[],s[t][r][1].push(...n(...s[t][r][0][0])),s[t][r][1].push(...n(...s[t][r][0][1])),s[t][r][2]=[],s[t][r][2].push(...n(...s[t][r][1][0])),s[t][r][2].push(...n(...s[t][r][1][1])),s[t][r][2].push(...n(...s[t][r][1][2])),s[t][r][2].push(...n(...s[t][r][1][3]))}for(let t=0;t&lt;8;++t){r[t]=[];for(let e=0;e&lt;8;++e)r[t][e]=[],r[t][e][0]=s[t][0][2][e],r[t][e][1]=s[t][1][2][e],r[t][e][2]=s[t][2][2][e],r[t][e][3]=s[t][3][2][e]}return r};class x{constructor(t,e){this.x=t||0,this.y=e||0}toString(){return`(x=${this.x}, y=${this.y})`}clone(){return new x(this.x,this.y)}add(t){return new x(this.x+t.x,this.y+t.y)}scale(t){return void 0===t.x?new x(this.x*t,this.y*t):new x(this.x*t.x,this.y*t.y)}distSquared(t){let e=this.x-t.x,s=this.y-t.y;return e*e+s*s}transform(t){let e=this.x*t.a+this.y*t.c+t.e,s=this.x*t.b+this.y*t.d+t.f;return new x(e,s)}}class g{constructor(t,e,s,r,n,o){void 0===t?(this.a=1,this.b=0,this.c=0,this.d=1,this.e=0,this.f=0):(this.a=t,this.b=e,this.c=s,this.d=r,this.e=n,this.f=o)}toString(){return`affine: ${this.a} ${this.c} ${this.e} \n       ${this.b} ${this.d} ${this.f}`}append(t){t instanceof g||console.error(&quot;mesh.js: argument to Affine.append is not affine!&quot;);let e=this.a*t.a+this.c*t.b,s=this.b*t.a+this.d*t.b,r=this.a*t.c+this.c*t.d,n=this.b*t.c+this.d*t.d,o=this.a*t.e+this.c*t.f+this.e,i=this.b*t.e+this.d*t.f+this.f;return new g(e,s,r,n,o,i)}}class w{constructor(t,e){this.nodes=t,this.colors=e}paintCurve(t,e){if(o(this.nodes)&gt;r){const s=n(...this.nodes);let r=[[],[]],o=[[],[]];for(let t=0;t&lt;4;++t)r[0][t]=this.colors[0][t],r[1][t]=(this.colors[0][t]+this.colors[1][t])/2,o[0][t]=r[1][t],o[1][t]=this.colors[1][t];let i=new w(s[0],r),a=new w(s[1],o);i.paintCurve(t,e),a.paintCurve(t,e)}else{let s=Math.round(this.nodes[0].x);if(s&gt;=0&amp;&amp;s&lt;e){let r=4*(~~this.nodes[0].y*e+s);t[r]=Math.round(this.colors[0][0]),t[r+1]=Math.round(this.colors[0][1]),t[r+2]=Math.round(this.colors[0][2]),t[r+3]=Math.round(this.colors[0][3])}}}}class m{constructor(t,e){this.nodes=t,this.colors=e}split(){let t=[[],[],[],[]],e=[[],[],[],[]],s=[[[],[]],[[],[]]],r=[[[],[]],[[],[]]];for(let s=0;s&lt;4;++s){const r=n(this.nodes[0][s],this.nodes[1][s],this.nodes[2][s],this.nodes[3][s]);t[0][s]=r[0][0],t[1][s]=r[0][1],t[2][s]=r[0][2],t[3][s]=r[0][3],e[0][s]=r[1][0],e[1][s]=r[1][1],e[2][s]=r[1][2],e[3][s]=r[1][3]}for(let t=0;t&lt;4;++t)s[0][0][t]=this.colors[0][0][t],s[0][1][t]=this.colors[0][1][t],s[1][0][t]=(this.colors[0][0][t]+this.colors[1][0][t])/2,s[1][1][t]=(this.colors[0][1][t]+this.colors[1][1][t])/2,r[0][0][t]=s[1][0][t],r[0][1][t]=s[1][1][t],r[1][0][t]=this.colors[1][0][t],r[1][1][t]=this.colors[1][1][t];return[new m(t,s),new m(e,r)]}paint(t,e){let s,n=!1;for(let t=0;t&lt;4;++t)if((s=o([this.nodes[0][t],this.nodes[1][t],this.nodes[2][t],this.nodes[3][t]]))&gt;r){n=!0;break}if(n){let s=this.split();s[0].paint(t,e),s[1].paint(t,e)}else{new w([...this.nodes[0]],[...this.colors[0]]).paintCurve(t,e)}}}class b{constructor(t){this.readMesh(t),this.type=t.getAttribute(&quot;type&quot;)||&quot;bilinear&quot;}readMesh(t){let e=[[]],s=[[]],r=Number(t.getAttribute(&quot;x&quot;)),n=Number(t.getAttribute(&quot;y&quot;));e[0][0]=new x(r,n);let o=t.children;for(let t=0,r=o.length;t&lt;r;++t){e[3*t+1]=[],e[3*t+2]=[],e[3*t+3]=[],s[t+1]=[];let r=o[t].children;for(let n=0,o=r.length;n&lt;o;++n){let o=r[n].children;for(let r=0,i=o.length;r&lt;i;++r){let i=r;0!==t&amp;&amp;++i;let h,d=o[r].getAttribute(&quot;path&quot;),c=&quot;l&quot;;null!=d&amp;&amp;(c=(h=d.match(/\s*([lLcC])\s*(.*)/))[1]);let u=l(h[2]);switch(c){case&quot;l&quot;:0===i?(e[3*t][3*n+3]=u[0].add(e[3*t][3*n]),e[3*t][3*n+1]=a(e[3*t][3*n],e[3*t][3*n+3]),e[3*t][3*n+2]=a(e[3*t][3*n+3],e[3*t][3*n])):1===i?(e[3*t+3][3*n+3]=u[0].add(e[3*t][3*n+3]),e[3*t+1][3*n+3]=a(e[3*t][3*n+3],e[3*t+3][3*n+3]),e[3*t+2][3*n+3]=a(e[3*t+3][3*n+3],e[3*t][3*n+3])):2===i?(0===n&amp;&amp;(e[3*t+3][3*n+0]=u[0].add(e[3*t+3][3*n+3])),e[3*t+3][3*n+1]=a(e[3*t+3][3*n],e[3*t+3][3*n+3]),e[3*t+3][3*n+2]=a(e[3*t+3][3*n+3],e[3*t+3][3*n])):(e[3*t+1][3*n]=a(e[3*t][3*n],e[3*t+3][3*n]),e[3*t+2][3*n]=a(e[3*t+3][3*n],e[3*t][3*n]));break;case&quot;L&quot;:0===i?(e[3*t][3*n+3]=u[0],e[3*t][3*n+1]=a(e[3*t][3*n],e[3*t][3*n+3]),e[3*t][3*n+2]=a(e[3*t][3*n+3],e[3*t][3*n])):1===i?(e[3*t+3][3*n+3]=u[0],e[3*t+1][3*n+3]=a(e[3*t][3*n+3],e[3*t+3][3*n+3]),e[3*t+2][3*n+3]=a(e[3*t+3][3*n+3],e[3*t][3*n+3])):2===i?(0===n&amp;&amp;(e[3*t+3][3*n+0]=u[0]),e[3*t+3][3*n+1]=a(e[3*t+3][3*n],e[3*t+3][3*n+3]),e[3*t+3][3*n+2]=a(e[3*t+3][3*n+3],e[3*t+3][3*n])):(e[3*t+1][3*n]=a(e[3*t][3*n],e[3*t+3][3*n]),e[3*t+2][3*n]=a(e[3*t+3][3*n],e[3*t][3*n]));break;case&quot;c&quot;:0===i?(e[3*t][3*n+1]=u[0].add(e[3*t][3*n]),e[3*t][3*n+2]=u[1].add(e[3*t][3*n]),e[3*t][3*n+3]=u[2].add(e[3*t][3*n])):1===i?(e[3*t+1][3*n+3]=u[0].add(e[3*t][3*n+3]),e[3*t+2][3*n+3]=u[1].add(e[3*t][3*n+3]),e[3*t+3][3*n+3]=u[2].add(e[3*t][3*n+3])):2===i?(e[3*t+3][3*n+2]=u[0].add(e[3*t+3][3*n+3]),e[3*t+3][3*n+1]=u[1].add(e[3*t+3][3*n+3]),0===n&amp;&amp;(e[3*t+3][3*n+0]=u[2].add(e[3*t+3][3*n+3]))):(e[3*t+2][3*n]=u[0].add(e[3*t+3][3*n]),e[3*t+1][3*n]=u[1].add(e[3*t+3][3*n]));break;case&quot;C&quot;:0===i?(e[3*t][3*n+1]=u[0],e[3*t][3*n+2]=u[1],e[3*t][3*n+3]=u[2]):1===i?(e[3*t+1][3*n+3]=u[0],e[3*t+2][3*n+3]=u[1],e[3*t+3][3*n+3]=u[2]):2===i?(e[3*t+3][3*n+2]=u[0],e[3*t+3][3*n+1]=u[1],0===n&amp;&amp;(e[3*t+3][3*n+0]=u[2])):(e[3*t+2][3*n]=u[0],e[3*t+1][3*n]=u[1]);break;default:console.error(&quot;mesh.js: &quot;+c+&quot; invalid path type.&quot;)}if(0===t&amp;&amp;0===n||r&gt;0){let e=window.getComputedStyle(o[r]).stopColor.match(/^rgb\s*\(\s*(\d+)\s*,\s*(\d+)\s*,\s*(\d+)\s*\)$/i),a=window.getComputedStyle(o[r]).stopOpacity,h=255;a&amp;&amp;(h=Math.floor(255*a)),e&amp;&amp;(0===i?(s[t][n]=[],s[t][n][0]=Math.floor(e[1]),s[t][n][1]=Math.floor(e[2]),s[t][n][2]=Math.floor(e[3]),s[t][n][3]=h):1===i?(s[t][n+1]=[],s[t][n+1][0]=Math.floor(e[1]),s[t][n+1][1]=Math.floor(e[2]),s[t][n+1][2]=Math.floor(e[3]),s[t][n+1][3]=h):2===i?(s[t+1][n+1]=[],s[t+1][n+1][0]=Math.floor(e[1]),s[t+1][n+1][1]=Math.floor(e[2]),s[t+1][n+1][2]=Math.floor(e[3]),s[t+1][n+1][3]=h):3===i&amp;&amp;(s[t+1][n]=[],s[t+1][n][0]=Math.floor(e[1]),s[t+1][n][1]=Math.floor(e[2]),s[t+1][n][2]=Math.floor(e[3]),s[t+1][n][3]=h))}}e[3*t+1][3*n+1]=new x,e[3*t+1][3*n+2]=new x,e[3*t+2][3*n+1]=new x,e[3*t+2][3*n+2]=new x,e[3*t+1][3*n+1].x=(-4*e[3*t][3*n].x+6*(e[3*t][3*n+1].x+e[3*t+1][3*n].x)+-2*(e[3*t][3*n+3].x+e[3*t+3][3*n].x)+3*(e[3*t+3][3*n+1].x+e[3*t+1][3*n+3].x)+-1*e[3*t+3][3*n+3].x)/9,e[3*t+1][3*n+2].x=(-4*e[3*t][3*n+3].x+6*(e[3*t][3*n+2].x+e[3*t+1][3*n+3].x)+-2*(e[3*t][3*n].x+e[3*t+3][3*n+3].x)+3*(e[3*t+3][3*n+2].x+e[3*t+1][3*n].x)+-1*e[3*t+3][3*n].x)/9,e[3*t+2][3*n+1].x=(-4*e[3*t+3][3*n].x+6*(e[3*t+3][3*n+1].x+e[3*t+2][3*n].x)+-2*(e[3*t+3][3*n+3].x+e[3*t][3*n].x)+3*(e[3*t][3*n+1].x+e[3*t+2][3*n+3].x)+-1*e[3*t][3*n+3].x)/9,e[3*t+2][3*n+2].x=(-4*e[3*t+3][3*n+3].x+6*(e[3*t+3][3*n+2].x+e[3*t+2][3*n+3].x)+-2*(e[3*t+3][3*n].x+e[3*t][3*n+3].x)+3*(e[3*t][3*n+2].x+e[3*t+2][3*n].x)+-1*e[3*t][3*n].x)/9,e[3*t+1][3*n+1].y=(-4*e[3*t][3*n].y+6*(e[3*t][3*n+1].y+e[3*t+1][3*n].y)+-2*(e[3*t][3*n+3].y+e[3*t+3][3*n].y)+3*(e[3*t+3][3*n+1].y+e[3*t+1][3*n+3].y)+-1*e[3*t+3][3*n+3].y)/9,e[3*t+1][3*n+2].y=(-4*e[3*t][3*n+3].y+6*(e[3*t][3*n+2].y+e[3*t+1][3*n+3].y)+-2*(e[3*t][3*n].y+e[3*t+3][3*n+3].y)+3*(e[3*t+3][3*n+2].y+e[3*t+1][3*n].y)+-1*e[3*t+3][3*n].y)/9,e[3*t+2][3*n+1].y=(-4*e[3*t+3][3*n].y+6*(e[3*t+3][3*n+1].y+e[3*t+2][3*n].y)+-2*(e[3*t+3][3*n+3].y+e[3*t][3*n].y)+3*(e[3*t][3*n+1].y+e[3*t+2][3*n+3].y)+-1*e[3*t][3*n+3].y)/9,e[3*t+2][3*n+2].y=(-4*e[3*t+3][3*n+3].y+6*(e[3*t+3][3*n+2].y+e[3*t+2][3*n+3].y)+-2*(e[3*t+3][3*n].y+e[3*t][3*n+3].y)+3*(e[3*t][3*n+2].y+e[3*t+2][3*n].y)+-1*e[3*t][3*n].y)/9}}this.nodes=e,this.colors=s}paintMesh(t,e){let s=(this.nodes.length-1)/3,r=(this.nodes[0].length-1)/3;if(&quot;bilinear&quot;===this.type||s&lt;2||r&lt;2){let n;for(let o=0;o&lt;s;++o)for(let s=0;s&lt;r;++s){let r=[];for(let t=3*o,e=3*o+4;t&lt;e;++t)r.push(this.nodes[t].slice(3*s,3*s+4));let i=[];i.push(this.colors[o].slice(s,s+2)),i.push(this.colors[o+1].slice(s,s+2)),(n=new m(r,i)).paint(t,e)}}else{let n,o,a,h,l,d,u;const x=s,g=r;s++,r++;let w=new Array(s);for(let t=0;t&lt;s;++t){w[t]=new Array(r);for(let e=0;e&lt;r;++e)w[t][e]=[],w[t][e][0]=this.nodes[3*t][3*e],w[t][e][1]=this.colors[t][e]}for(let t=0;t&lt;s;++t)for(let e=0;e&lt;r;++e)0!==t&amp;&amp;t!==x&amp;&amp;(n=i(w[t-1][e][0],w[t][e][0]),o=i(w[t+1][e][0],w[t][e][0]),w[t][e][2]=c(w[t-1][e][1],w[t][e][1],w[t+1][e][1],n,o)),0!==e&amp;&amp;e!==g&amp;&amp;(n=i(w[t][e-1][0],w[t][e][0]),o=i(w[t][e+1][0],w[t][e][0]),w[t][e][3]=c(w[t][e-1][1],w[t][e][1],w[t][e+1][1],n,o));for(let t=0;t&lt;r;++t){w[0][t][2]=[],w[x][t][2]=[];for(let e=0;e&lt;4;++e)n=i(w[1][t][0],w[0][t][0]),o=i(w[x][t][0],w[x-1][t][0]),w[0][t][2][e]=n&gt;0?2*(w[1][t][1][e]-w[0][t][1][e])/n-w[1][t][2][e]:0,w[x][t][2][e]=o&gt;0?2*(w[x][t][1][e]-w[x-1][t][1][e])/o-w[x-1][t][2][e]:0}for(let t=0;t&lt;s;++t){w[t][0][3]=[],w[t][g][3]=[];for(let e=0;e&lt;4;++e)n=i(w[t][1][0],w[t][0][0]),o=i(w[t][g][0],w[t][g-1][0]),w[t][0][3][e]=n&gt;0?2*(w[t][1][1][e]-w[t][0][1][e])/n-w[t][1][3][e]:0,w[t][g][3][e]=o&gt;0?2*(w[t][g][1][e]-w[t][g-1][1][e])/o-w[t][g-1][3][e]:0}for(let s=0;s&lt;x;++s)for(let r=0;r&lt;g;++r){let n=i(w[s][r][0],w[s+1][r][0]),o=i(w[s][r+1][0],w[s+1][r+1][0]),c=i(w[s][r][0],w[s][r+1][0]),x=i(w[s+1][r][0],w[s+1][r+1][0]),g=[[],[],[],[]];for(let t=0;t&lt;4;++t){(d=[])[0]=w[s][r][1][t],d[1]=w[s+1][r][1][t],d[2]=w[s][r+1][1][t],d[3]=w[s+1][r+1][1][t],d[4]=w[s][r][2][t]*n,d[5]=w[s+1][r][2][t]*n,d[6]=w[s][r+1][2][t]*o,d[7]=w[s+1][r+1][2][t]*o,d[8]=w[s][r][3][t]*c,d[9]=w[s+1][r][3][t]*x,d[10]=w[s][r+1][3][t]*c,d[11]=w[s+1][r+1][3][t]*x,d[12]=0,d[13]=0,d[14]=0,d[15]=0,u=f(d);for(let e=0;e&lt;9;++e){g[t][e]=[];for(let s=0;s&lt;9;++s)g[t][e][s]=p(u,e/8,s/8),g[t][e][s]&gt;255?g[t][e][s]=255:g[t][e][s]&lt;0&amp;&amp;(g[t][e][s]=0)}}h=[];for(let t=3*s,e=3*s+4;t&lt;e;++t)h.push(this.nodes[t].slice(3*r,3*r+4));l=y(h);for(let s=0;s&lt;8;++s)for(let r=0;r&lt;8;++r)(a=new m(l[s][r],[[[g[0][s][r],g[1][s][r],g[2][s][r],g[3][s][r]],[g[0][s][r+1],g[1][s][r+1],g[2][s][r+1],g[3][s][r+1]]],[[g[0][s+1][r],g[1][s+1][r],g[2][s+1][r],g[3][s+1][r]],[g[0][s+1][r+1],g[1][s+1][r+1],g[2][s+1][r+1],g[3][s+1][r+1]]]])).paint(t,e)}}}transform(t){if(t instanceof x)for(let e=0,s=this.nodes.length;e&lt;s;++e)for(let s=0,r=this.nodes[0].length;s&lt;r;++s)this.nodes[e][s]=this.nodes[e][s].add(t);else if(t instanceof g)for(let e=0,s=this.nodes.length;e&lt;s;++e)for(let s=0,r=this.nodes[0].length;s&lt;r;++s)this.nodes[e][s]=this.nodes[e][s].transform(t)}scale(t){for(let e=0,s=this.nodes.length;e&lt;s;++e)for(let s=0,r=this.nodes[0].length;s&lt;r;++s)this.nodes[e][s]=this.nodes[e][s].scale(t)}}document.querySelectorAll(&quot;rect,circle,ellipse,path,text&quot;).forEach((r,n)=&gt;{let o=r.getAttribute(&quot;id&quot;);o||(o=&quot;patchjs_shape&quot;+n,r.setAttribute(&quot;id&quot;,o));const i=r.style.fill.match(/^url\(\s*&quot;?\s*#([^\s&quot;]+)&quot;?\s*\)/),a=r.style.stroke.match(/^url\(\s*&quot;?\s*#([^\s&quot;]+)&quot;?\s*\)/);if(i&amp;&amp;i[1]){const a=document.getElementById(i[1]);if(a&amp;&amp;&quot;meshgradient&quot;===a.nodeName){const i=r.getBBox();let l=document.createElementNS(s,&quot;canvas&quot;);d(l,{width:i.width,height:i.height});const c=l.getContext(&quot;2d&quot;);let u=c.createImageData(i.width,i.height);const f=new b(a);&quot;objectBoundingBox&quot;===a.getAttribute(&quot;gradientUnits&quot;)&amp;&amp;f.scale(new x(i.width,i.height));const p=a.getAttribute(&quot;gradientTransform&quot;);null!=p&amp;&amp;f.transform(h(p)),&quot;userSpaceOnUse&quot;===a.getAttribute(&quot;gradientUnits&quot;)&amp;&amp;f.transform(new x(-i.x,-i.y)),f.paintMesh(u.data,l.width),c.putImageData(u,0,0);const y=document.createElementNS(t,&quot;image&quot;);d(y,{width:i.width,height:i.height,x:i.x,y:i.y});let g=l.toDataURL();y.setAttributeNS(e,&quot;xlink:href&quot;,g),r.parentNode.insertBefore(y,r),r.style.fill=&quot;none&quot;;const w=document.createElementNS(t,&quot;use&quot;);w.setAttributeNS(e,&quot;xlink:href&quot;,&quot;#&quot;+o);const m=&quot;patchjs_clip&quot;+n,M=document.createElementNS(t,&quot;clipPath&quot;);M.setAttribute(&quot;id&quot;,m),M.appendChild(w),r.parentElement.insertBefore(M,r),y.setAttribute(&quot;clip-path&quot;,&quot;url(#&quot;+m+&quot;)&quot;),u=null,l=null,g=null}}if(a&amp;&amp;a[1]){const o=document.getElementById(a[1]);if(o&amp;&amp;&quot;meshgradient&quot;===o.nodeName){const i=parseFloat(r.style.strokeWidth.slice(0,-2))*(parseFloat(r.style.strokeMiterlimit)||parseFloat(r.getAttribute(&quot;stroke-miterlimit&quot;))||1),a=r.getBBox(),l=Math.trunc(a.width+i),c=Math.trunc(a.height+i),u=Math.trunc(a.x-i/2),f=Math.trunc(a.y-i/2);let p=document.createElementNS(s,&quot;canvas&quot;);d(p,{width:l,height:c});const y=p.getContext(&quot;2d&quot;);let g=y.createImageData(l,c);const w=new b(o);&quot;objectBoundingBox&quot;===o.getAttribute(&quot;gradientUnits&quot;)&amp;&amp;w.scale(new x(l,c));const m=o.getAttribute(&quot;gradientTransform&quot;);null!=m&amp;&amp;w.transform(h(m)),&quot;userSpaceOnUse&quot;===o.getAttribute(&quot;gradientUnits&quot;)&amp;&amp;w.transform(new x(-u,-f)),w.paintMesh(g.data,p.width),y.putImageData(g,0,0);const M=document.createElementNS(t,&quot;image&quot;);d(M,{width:l,height:c,x:0,y:0});let S=p.toDataURL();M.setAttributeNS(e,&quot;xlink:href&quot;,S);const k=&quot;pattern_clip&quot;+n,A=document.createElementNS(t,&quot;pattern&quot;);d(A,{id:k,patternUnits:&quot;userSpaceOnUse&quot;,width:l,height:c,x:u,y:f}),A.appendChild(M),o.parentNode.appendChild(A),r.style.stroke=&quot;url(#&quot;+k+&quot;)&quot;,g=null,p=null,S=null}}})}();
</script>
  <g
     transform="matrix(0.63040767,0,0,0.50520047,86.022363,5.076626)"
     id="g13402">
    <svg
       version="1.1"
       id="svg13400"
       width="100%"
       height="100%">
      <path
         d="m 5.6399999,5.8856106 c -0.6933337,0 -1.3533335,0.4533334 -1.9800001,1.3599996 -0.1199998,0.1733337 -0.2333331,0.3600006 -0.3399999,0.56 -0.3866665,0.773334 -0.7133333,1.8733334 -0.98,3.2999998 -0.08,0.453334 -0.1200001,0.813333 -0.1199999,1.08 -2e-7,0.906667 0.2533334,1.493334 0.76,1.76 0.1466663,0.08 0.3199997,0.12 0.52,0.12 0.7466664,0 1.4999995,-0.473333 2.2599998,-1.42 0.1866664,-0.213333 0.313333,-0.433334 0.3800001,-0.66 v -0.02 c 0.013333,-0.02667 0.019999,-0.04667 0.02,-0.06 l 1,-3.9199995 c 0.04,-0.1999998 0.06,-0.313333 0.06,-0.3400002 0,-0.2800002 -0.1200004,-0.6199999 -0.3600001,-1.0199999 -0.2933332,-0.4933329 -0.7,-0.7399998 -1.2199999,-0.7399998 z m -0.02,-0.4400006 c 0.813333,0 1.4266662,0.4266673 1.8400001,1.2800003 0.066666,-0.4533325 0.2733326,-0.7333332 0.6199999,-0.8399997 0.066666,-0.026667 0.1399994,-0.04 0.2200003,-0.04 0.3466663,0 0.54,0.1800003 0.5799999,0.54 -9e-7,0.08 -0.046667,0.3066668 -0.1400003,0.6799998 L 8.0199995,9.8656101 C 7.8199992,10.70561 7.6733327,11.305611 7.5799999,11.66561 c -0.1733336,0.693334 -0.2600002,1.186667 -0.2600002,1.48 0,0.613334 0.1999998,0.92 0.5999999,0.92 0.5066667,0 0.9333329,-0.533333 1.2800002,-1.599999 0.066667,-0.226668 0.1466665,-0.520001 0.2399998,-0.880001 0.1066656,-0.226666 0.1999998,-0.346666 0.2799997,-0.359999 0.1599999,0 0.2400007,0.06667 0.2400007,0.2 0,0.199999 -0.1199998,0.666667 -0.3600006,1.399999 -0.080001,0.226667 -0.1600008,0.42 -0.2399997,0.58 -0.373334,0.733334 -0.8666668,1.1 -1.4800001,1.1 -0.7466669,0 -1.2866668,-0.32 -1.6199998,-0.96 -0.093334,-0.159999 -0.1600004,-0.34 -0.1999999,-0.54 -0.8400006,1 -1.7066669,1.5 -2.5999999,1.5 -1,0 -1.7400002,-0.453333 -2.22,-1.36 C 0.9466666,12.612277 0.79999989,11.998943 0.79999995,11.305611 0.79999989,9.8656101 1.3,8.5322771 2.3,7.3056102 3.2333331,6.1856098 4.2466664,5.5722771 5.3399997,5.4656105 5.4333334,5.4522772 5.5266666,5.44561 5.6199999,5.44561 Z"
         fill="#000000"
         id="path13396" />
      <path
         d="m 12.447801,-0.16023017 c 0.522666,10e-9 0.900666,0.21933318 1.133999,0.658 0.084,0.16799975 0.135334,0.35466671 0.154,0.55999997 0.597334,-0.81199982 1.325333,-1.21799996 2.184,-1.21799997 0.802666,10e-9 1.311333,0.3080001 1.526001,0.92400021 0.056,0.16800028 0.084,0.35933356 0.084,0.57399996 0,0.4760003 -0.284668,1.5026669 -0.854,3.0799999 -0.167999,0.410667 -0.251999,0.7420001 -0.251999,0.994 0,0.3080001 0.112,0.4620003 0.335999,0.4620003 0.616001,0 1.091999,-0.5786671 1.428001,-1.7360005 0.04667,-0.149333 0.09333,-0.2286663 0.14,-0.2379997 v -0.014 h 0.07 c 0.112,2e-7 0.168,0.046667 0.168,0.1400001 0,0.1586666 -0.098,0.4526663 -0.293999,0.882 -0.401333,0.8493332 -0.914667,1.2739996 -1.540001,1.2739996 -0.476,0 -0.816667,-0.2006664 -1.021999,-0.6019997 -0.084,-0.1680002 -0.126001,-0.3499999 -0.126001,-0.546 0,-0.186667 0.04667,-0.4013333 0.140001,-0.6440001 0.606666,-1.6333334 0.91,-2.7206669 0.91,-3.2620001 0,-0.65333314 -0.252001,-0.97999997 -0.756001,-0.97999999 -0.84,2e-8 -1.544666,0.46666719 -2.113999,1.40000009 -0.06533,0.1026664 -0.121334,0.2053333 -0.168001,0.3080001 l -0.182,0.6999998 c -0.04667,0.2146669 -0.126,0.5273335 -0.238,0.938 l -0.308,1.26 c -0.158667,0.644 -0.247333,0.9893336 -0.266,1.0360002 -0.084,0.2426667 -0.256666,0.3733335 -0.518,0.3919997 -0.233333,-0.046667 -0.368666,-0.1726665 -0.406,-0.3779997 0,0.018667 0.042,-0.1820002 0.126001,-0.6020003 l 0.812,-3.2339997 C 12.765134,1.3704367 12.8398,0.97843647 12.8398,0.79176992 c 0,-0.42933315 -0.144667,-0.64399999 -0.434,-0.64400001 -0.382667,2e-8 -0.695334,0.44333364 -0.938,1.32999999 -0.028,0.1026668 -0.056,0.2146668 -0.084,0.3359999 -0.102667,0.2053337 -0.182001,0.3126669 -0.238,0.322 -0.112001,0 -0.168001,-0.046667 -0.168001,-0.1399998 0,-0.1493335 0.09333,-0.485333 0.28,-1.00799986 v -0.0140005 c 0,-0.009333 0.0047,-0.0139995 0.014,-0.014 v -0.0139999 -0.0139999 l 0.126,-0.29400015 c 0.205333,-0.37333298 0.415333,-0.60666657 0.630001,-0.69999984 0.130665,-0.06533334 0.270666,-0.09800002 0.42,-0.09800003 z"
         fill="#000000"
         id="path13398" />
    </svg>
  </g>
  <path
     style="fill:#c83737;stroke:#00075b;stroke-width:0.202"
     d="m 12.650652,18.311909 c 0,4.662523 -0.06614,-2.573994 0,4.849023 l 0.37189,41.73716"
     id="path13620"
     sodipodi:nodetypes="csc" />
  <g
     transform="matrix(0.6,0,0,0.6,77.900017,53.424603)"
     id="g14425">
    <svg
       version="1.1"
       id="svg14423"
       width="100%"
       height="100%">
      <path
         d="m 20,0.79996002 c 0.226665,6e-8 0.360001,0.13333338 0.4,0.39999998 -2e-6,0.066667 -0.04667,0.1866667 -0.14,0.36 l -10.9400003,22.84 C 9.1999989,24.626625 9.0866661,24.753292 8.9799995,24.779961 H 8.96 8.94 c -0.08,0.01333 -0.2333336,0.02 -0.4600001,0.02 L 3.9200001,14.17996 2.5,15.25996 2.1999998,14.93996 4.98,12.79996 9.2399998,22.719959 19.559999,1.19996 C 19.666666,0.95996004 19.813332,0.82662672 20,0.79996002 Z"
         fill="#000000"
         id="path14415" />
      <rect
         x="20.000059"
         y="0.79997998"
         width="19.47509"
         height="0.79997998"
         id="rect14417" />
      <path
         d="m 25.640059,12.179243 c -0.693333,0 -1.353333,0.453333 -1.98,1.36 -0.120001,0.173333 -0.233334,0.36 -0.34,0.56 -0.386667,0.773334 -0.713333,1.873333 -0.98,3.299999 -0.08,0.453335 -0.120001,0.813334 -0.120001,1.08 0,0.906668 0.253334,1.493334 0.760001,1.760001 0.146667,0.08 0.319999,0.12 0.52,0.12 0.746666,0 1.5,-0.473333 2.26,-1.42 0.186667,-0.213333 0.313332,-0.433334 0.38,-0.66 v -0.02 c 0.01333,-0.02667 0.02,-0.04667 0.02,-0.06 l 1,-3.920001 c 0.04,-0.2 0.06,-0.313333 0.06,-0.34 0,-0.28 -0.119998,-0.620001 -0.36,-1.02 -0.293331,-0.493333 -0.699999,-0.74 -1.219999,-0.74 z m -0.02,-0.44 c 0.813332,0 1.426666,0.426667 1.84,1.28 0.06667,-0.453333 0.273331,-0.733333 0.619999,-0.84 0.06667,-0.02667 0.139999,-0.04 0.220001,-0.04 0.346665,0 0.539999,0.18 0.579998,0.54 0,0.08 -0.04666,0.306667 -0.139999,0.68 l -0.720001,2.8 c -0.199999,0.84 -0.346667,1.44 -0.439999,1.800001 -0.173334,0.693332 -0.26,1.186666 -0.26,1.479999 0,0.613333 0.199999,0.92 0.6,0.92 0.506666,0 0.933333,-0.533334 1.279999,-1.6 0.06667,-0.226667 0.146667,-0.52 0.240002,-0.880001 0.106664,-0.226666 0.199999,-0.346666 0.279998,-0.359999 0.16,0 0.240002,0.06667 0.240002,0.199999 0,0.200001 -0.120001,0.666668 -0.36,1.400002 -0.08,0.226665 -0.160002,0.419998 -0.240002,0.58 -0.373333,0.733331 -0.866665,1.099998 -1.48,1.099998 -0.746666,0 -1.286667,-0.32 -1.619999,-0.959999 -0.09333,-0.16 -0.159999,-0.34 -0.2,-0.540001 -0.840001,1 -1.706667,1.5 -2.599999,1.5 -1,0 -1.740002,-0.453333 -2.220001,-1.359999 -0.293333,-0.533333 -0.440001,-1.146667 -0.440001,-1.84 0,-1.44 0.5,-2.773333 1.5,-4 0.933335,-1.120001 1.946667,-1.733333 3.040001,-1.84 0.09333,-0.01333 0.186667,-0.02 0.280001,-0.02 z"
         fill="#000000"
         id="path14419" />
      <path
         d="m 32.447861,8.6134624 c 0.522667,0 0.900665,0.2193327 1.133999,0.6579991 0.084,0.1680002 0.135334,0.3546677 0.153999,0.5600004 0.597332,-0.8119993 1.325333,-1.2179995 2.184002,-1.2179995 0.802666,0 1.311333,0.3079997 1.525997,0.9239998 0.056,0.1680003 0.084,0.3593331 0.084,0.5739998 0,0.476 -0.284668,1.502667 -0.854003,3.080001 -0.168,0.410666 -0.251999,0.741999 -0.251999,0.993999 0,0.308001 0.111999,0.462 0.336002,0.462 0.615997,0 1.091999,-0.578667 1.427998,-1.736 0.04667,-0.149333 0.09333,-0.228666 0.139999,-0.238 v -0.014 h 0.07 c 0.112003,0 0.168003,0.04667 0.168003,0.14 0,0.158667 -0.098,0.452667 -0.294003,0.882 -0.401333,0.849333 -0.914665,1.274 -1.539997,1.274 -0.476002,0 -0.816669,-0.200667 -1.022003,-0.602 -0.084,-0.168 -0.126,-0.35 -0.126,-0.546 0,-0.186667 0.04667,-0.401333 0.14,-0.644 0.606666,-1.633334 0.91,-2.720667 0.91,-3.2619994 0,-0.6533337 -0.251999,-0.9800005 -0.755997,-0.9800005 -0.840004,0 -1.54467,0.4666671 -2.114002,1.4000009 -0.06533,0.102666 -0.121334,0.205332 -0.167999,0.307999 l -0.182,0.7 c -0.04667,0.214666 -0.125999,0.527333 -0.238002,0.938 l -0.307999,1.26 c -0.158665,0.644 -0.247334,0.989333 -0.265999,1.036 -0.084,0.242667 -0.256668,0.373333 -0.518002,0.392 -0.233331,-0.04667 -0.368665,-0.172666 -0.405998,-0.378 0,0.01867 0.042,-0.182 0.126,-0.602 l 0.812,-3.233999 c 0.149334,-0.597334 0.223999,-0.9893344 0.223999,-1.1760009 0,-0.4293327 -0.144665,-0.644 -0.433998,-0.644 -0.382668,0 -0.695335,0.4433336 -0.938002,1.3299999 -0.028,0.102667 -0.056,0.214667 -0.084,0.335999 -0.102667,0.205334 -0.182001,0.312668 -0.238001,0.322001 -0.112,0 -0.168,-0.04667 -0.168,-0.139999 0,-0.149334 0.09333,-0.485334 0.280001,-1.0080008 v -0.014001 c 0,-0.00933 0.0047,-0.013999 0.014,-0.014 v -0.014 -0.014 l 0.126,-0.2939997 c 0.205333,-0.3733329 0.415332,-0.6066665 0.629999,-0.6999998 0.130668,-0.065333 0.270668,-0.098 0.420002,-0.098 z"
         fill="#000000"
         id="path14421" />
    </svg>
  </g>
  <g
     transform="matrix(0.6,0,0,0.6,30.804154,56.070438)"
     id="g14640">
    <svg
       version="1.1"
       id="svg14638"
       width="100%"
       height="100%">
      <path
         d="m 5.6399999,9.6756382 c -0.6933337,0 -1.3533335,0.4533328 -1.9800001,1.3599998 -0.1199998,0.173333 -0.2333331,0.36 -0.3399999,0.56 -0.3866665,0.773334 -0.7133333,1.873333 -0.98,3.3 -0.08,0.453333 -0.1200001,0.813333 -0.1199999,1.079999 -2e-7,0.906668 0.2533334,1.493334 0.76,1.760001 0.1466663,0.08 0.3199997,0.120001 0.52,0.120001 0.7466664,0 1.4999995,-0.473334 2.2599998,-1.420001 0.1866664,-0.213333 0.313333,-0.433334 0.3800001,-0.66 v -0.02 c 0.013333,-0.02667 0.019999,-0.04667 0.02,-0.06 l 1,-3.919999 c 0.04,-0.200001 0.06,-0.313334 0.06,-0.340001 0,-0.28 -0.1200004,-0.62 -0.3600001,-1.02 -0.2933332,-0.4933329 -0.7,-0.7399998 -1.2199999,-0.7399998 z m -0.02,-0.4400005 c 0.813333,0 1.4266662,0.4266672 1.8400001,1.2800003 0.066666,-0.453333 0.2733326,-0.7333332 0.6199999,-0.8399998 0.066666,-0.026667 0.1399994,-0.04 0.2200003,-0.04 0.3466663,0 0.54,0.1800003 0.5799999,0.5399998 -9e-7,0.08 -0.046667,0.306668 -0.1400003,0.680001 l -0.7200003,2.799999 c -0.2000003,0.84 -0.3466668,1.44 -0.4399996,1.8 -0.1733336,0.693334 -0.2600002,1.186667 -0.2600002,1.48 0,0.613333 0.1999998,0.920001 0.5999999,0.920001 0.5066667,0 0.9333329,-0.533335 1.2800002,-1.600001 0.066667,-0.226667 0.1466665,-0.52 0.2399998,-0.88 0.1066656,-0.226666 0.1999998,-0.346666 0.2799997,-0.36 0.1599999,0 0.2400007,0.06667 0.2400007,0.2 0,0.2 -0.1199998,0.666667 -0.3600006,1.400001 -0.080001,0.226665 -0.1600008,0.419998 -0.2399997,0.58 -0.373334,0.733331 -0.8666668,1.099998 -1.4800001,1.099998 -0.7466669,0 -1.2866668,-0.32 -1.6199998,-0.959999 -0.093334,-0.16 -0.1600004,-0.34 -0.1999999,-0.540001 -0.8400006,1 -1.7066669,1.5 -2.5999999,1.5 -1,0 -1.7400002,-0.453333 -2.22,-1.359999 -0.2933334,-0.533332 -0.44000011,-1.146667 -0.44000005,-1.84 -6e-8,-1.44 0.50000005,-2.773333 1.50000005,-4 0.9333331,-1.1200006 1.9466664,-1.7333333 3.0399997,-1.8399999 0.093334,-0.013333 0.1866669,-0.02 0.2800002,-0.02 z"
         fill="#000000"
         id="path14630" />
      <path
         d="m 11.9118,-0.11444996 c 0.373333,-2e-8 0.643334,0.15666674 0.81,0.47000022 0.06,0.12000015 0.09667,0.25333336 0.11,0.39999989 0.426667,-0.58000017 0.946667,-0.87000013 1.56,-0.87000011 0.573334,-2e-8 0.936666,0.22000025 1.09,0.66000007 0.04,0.12000012 0.06,0.2566669 0.06,0.41000008 0,0.34000011 -0.203333,1.07333331 -0.609999,2.19999981 -0.120001,0.2933335 -0.18,0.5300002 -0.18,0.71 0,0.2200003 0.08,0.33 0.239999,0.33 0.44,0 0.78,-0.4133332 1.020001,-1.2399998 0.03333,-0.1066666 0.06667,-0.1633334 0.1,-0.1700001 v -0.01 h 0.05 c 0.08,3e-7 0.119999,0.033334 0.119999,0.1000002 0,0.1133332 -0.07,0.3233332 -0.209999,0.6299998 -0.286667,0.6066668 -0.653333,0.9100001 -1.1,0.9100001 -0.34,0 -0.583333,-0.1433334 -0.73,-0.43 -0.06,-0.1200002 -0.09,-0.25 -0.09,-0.3900001 0,-0.1333332 0.03333,-0.2866667 0.100001,-0.4600001 0.433332,-1.1666665 0.649999,-1.9433331 0.649999,-2.3299999 0,-0.46666646 -0.18,-0.69999981 -0.54,-0.69999977 -0.6,-4e-8 -1.103333,0.33333345 -1.51,0.99999997 -0.04667,0.073333 -0.08667,0.1466668 -0.12,0.2199998 l -0.13,0.5 c -0.03333,0.1533334 -0.09,0.3766668 -0.17,0.6700001 l -0.22,0.9000001 C 12.098467,3.8555501 12.035133,4.1022167 12.0218,4.13555 c -0.06,0.1733332 -0.183333,0.2666669 -0.37,0.2800002 -0.166667,-0.033333 -0.263333,-0.1233334 -0.29,-0.2699999 0,0.013333 0.03,-0.1300002 0.09,-0.4300001 l 0.58,-2.31 c 0.106667,-0.4266667 0.16,-0.70666667 0.16,-0.84000011 0,-0.30666614 -0.103333,-0.4599998 -0.31,-0.45999976 -0.273333,-4e-8 -0.496666,0.31666656 -0.669999,0.94999977 -0.02,0.073334 -0.04,0.1533337 -0.06,0.24 -0.07333,0.1466668 -0.13,0.2233334 -0.17,0.23 -0.08,0 -0.12,-0.033333 -0.12,-0.1 0,-0.1066665 0.06667,-0.3466666 0.2,-0.72000001 v -0.01 c 0,-0.006667 0.0033,-0.01 0.01,-0.01 v -0.01 -0.01 l 0.09,-0.21000007 c 0.146667,-0.26666686 0.296667,-0.43333336 0.45,-0.49999994 0.09333,-0.04666665 0.193334,-0.0700002 0.3,-0.07000018 z"
         fill="#000000"
         id="path14632" />
      <rect
         x="10.5718"
         y="6.0378051"
         width="6.0023499"
         height="0.559986"
         id="rect14634" />
      <path
         d="m 13.442965,7.9855719 c 0.733333,0 1.303333,0.2466669 1.71,0.7399997 0.233332,0.2866669 0.366666,0.6266671 0.4,1.0199995 0.0067,0.060001 0.01,0.1200009 0.01,0.1800003 0,0.4866676 -0.183333,0.9500006 -0.55,1.3900006 -0.193332,0.226666 -0.493333,0.526666 -0.899999,0.9 l -0.610001,0.539999 -0.1,0.09 -1.060001,1.03 h 1.8 c 0.586667,0 0.903333,-0.02667 0.95,-0.08 0.06667,-0.09333 0.140001,-0.389999 0.22,-0.889999 h 0.25 l -0.279999,1.74 h -3.71 c 0,-0.166667 0.02,-0.273334 0.06,-0.32 l 0.05,-0.05 1.92,-2.140001 c 0.700001,-0.786665 1.050001,-1.523332 1.050001,-2.2099996 0,-0.5933322 -0.180001,-1.043333 -0.54,-1.3499994 l -0.01,-0.01 h -0.01 c -0.213333,-0.1799994 -0.473333,-0.2699995 -0.78,-0.2699995 -0.479999,0 -0.863333,0.206666 -1.149999,0.6199989 -0.08,0.1200009 -0.146667,0.2533341 -0.2,0.4000006 0.02,-0.00667 0.06333,-0.01 0.129999,-0.01 0.266668,0 0.436668,0.1199999 0.51,0.3599987 v 0.01 c 0.01333,0.046667 0.02,0.096667 0.02,0.1500006 0,0.2666657 -0.126667,0.4366667 -0.38,0.5099987 -0.05333,0.01333 -0.100001,0.02 -0.140001,0.02 -0.246666,0 -0.409999,-0.103334 -0.489999,-0.31 -0.02667,-0.073334 -0.04,-0.1566671 -0.04,-0.2499994 0,-0.5133343 0.196666,-0.9533339 0.59,-1.3200007 0.353333,-0.3266668 0.78,-0.4899997 1.28,-0.4899997 z"
         fill="#000000"
         id="path14636" />
    </svg>
  </g>
  <g
     transform="matrix(0.4817895,0,0,0.43468308,26.711068,30.213056)"
     id="g15330">
    <svg
       version="1.1"
       id="svg15328"
       width="100%"
       height="100%">
      <path
         d="m 5.6399999,5.8856106 c -0.6933337,0 -1.3533335,0.4533334 -1.9800001,1.3599996 -0.1199998,0.1733337 -0.2333331,0.3600006 -0.3399999,0.56 -0.3866665,0.773334 -0.7133333,1.8733334 -0.98,3.2999998 -0.08,0.453334 -0.1200001,0.813333 -0.1199999,1.08 -2e-7,0.906667 0.2533334,1.493334 0.76,1.76 0.1466663,0.08 0.3199997,0.12 0.52,0.12 0.7466664,0 1.4999995,-0.473333 2.2599998,-1.42 0.1866664,-0.213333 0.313333,-0.433334 0.3800001,-0.66 v -0.02 c 0.013333,-0.02667 0.019999,-0.04667 0.02,-0.06 l 1,-3.9199995 c 0.04,-0.1999998 0.06,-0.313333 0.06,-0.3400002 0,-0.2800002 -0.1200004,-0.6199999 -0.3600001,-1.0199999 -0.2933332,-0.4933329 -0.7,-0.7399998 -1.2199999,-0.7399998 z m -0.02,-0.4400006 c 0.813333,0 1.4266662,0.4266673 1.8400001,1.2800003 0.066666,-0.4533325 0.2733326,-0.7333332 0.6199999,-0.8399997 0.066666,-0.026667 0.1399994,-0.04 0.2200003,-0.04 0.3466663,0 0.54,0.1800003 0.5799999,0.54 -9e-7,0.08 -0.046667,0.3066668 -0.1400003,0.6799998 L 8.0199995,9.8656101 C 7.8199992,10.70561 7.6733327,11.305611 7.5799999,11.66561 c -0.1733336,0.693334 -0.2600002,1.186667 -0.2600002,1.48 0,0.613334 0.1999998,0.92 0.5999999,0.92 0.5066667,0 0.9333329,-0.533333 1.2800002,-1.599999 0.066667,-0.226668 0.1466665,-0.520001 0.2399998,-0.880001 0.1066656,-0.226666 0.1999998,-0.346666 0.2799997,-0.359999 0.1599999,0 0.2400007,0.06667 0.2400007,0.2 0,0.199999 -0.1199998,0.666667 -0.3600006,1.399999 -0.080001,0.226667 -0.1600008,0.42 -0.2399997,0.58 -0.373334,0.733334 -0.8666668,1.1 -1.4800001,1.1 -0.7466669,0 -1.2866668,-0.32 -1.6199998,-0.96 -0.093334,-0.159999 -0.1600004,-0.34 -0.1999999,-0.54 -0.8400006,1 -1.7066669,1.5 -2.5999999,1.5 -1,0 -1.7400002,-0.453333 -2.22,-1.36 C 0.9466666,12.612277 0.79999989,11.998943 0.79999995,11.305611 0.79999989,9.8656101 1.3,8.5322771 2.3,7.3056102 3.2333331,6.1856098 4.2466664,5.5722771 5.3399997,5.4656105 5.4333334,5.4522772 5.5266666,5.44561 5.6199999,5.44561 Z"
         fill="#000000"
         id="path15320" />
      <path
         d="m 12.447801,-0.16023017 c 0.522666,10e-9 0.900666,0.21933318 1.133999,0.658 0.084,0.16799975 0.135334,0.35466671 0.154,0.55999997 0.597334,-0.81199982 1.325333,-1.21799996 2.184,-1.21799997 0.802666,10e-9 1.311333,0.3080001 1.526001,0.92400021 0.056,0.16800028 0.084,0.35933356 0.084,0.57399996 0,0.4760003 -0.284668,1.5026669 -0.854,3.0799999 -0.167999,0.410667 -0.251999,0.7420001 -0.251999,0.994 0,0.3080001 0.112,0.4620003 0.335999,0.4620003 0.616001,0 1.091999,-0.5786671 1.428001,-1.7360005 0.04667,-0.149333 0.09333,-0.2286663 0.14,-0.2379997 v -0.014 h 0.07 c 0.112,2e-7 0.168,0.046667 0.168,0.1400001 0,0.1586666 -0.098,0.4526663 -0.293999,0.882 -0.401333,0.8493332 -0.914667,1.2739996 -1.540001,1.2739996 -0.476,0 -0.816667,-0.2006664 -1.021999,-0.6019997 -0.084,-0.1680002 -0.126001,-0.3499999 -0.126001,-0.546 0,-0.186667 0.04667,-0.4013333 0.140001,-0.6440001 0.606666,-1.6333334 0.91,-2.7206669 0.91,-3.2620001 0,-0.65333314 -0.252001,-0.97999997 -0.756001,-0.97999999 -0.84,2e-8 -1.544666,0.46666719 -2.113999,1.40000009 -0.06533,0.1026664 -0.121334,0.2053333 -0.168001,0.3080001 l -0.182,0.6999998 c -0.04667,0.2146669 -0.126,0.5273335 -0.238,0.938 l -0.308,1.26 c -0.158667,0.644 -0.247333,0.9893336 -0.266,1.0360002 -0.084,0.2426667 -0.256666,0.3733335 -0.518,0.3919997 -0.233333,-0.046667 -0.368666,-0.1726665 -0.406,-0.3779997 0,0.018667 0.042,-0.1820002 0.126001,-0.6020003 l 0.812,-3.2339997 C 12.765134,1.3704367 12.8398,0.97843647 12.8398,0.79176992 c 0,-0.42933315 -0.144667,-0.64399999 -0.434,-0.64400001 -0.382667,2e-8 -0.695334,0.44333364 -0.938,1.32999999 -0.028,0.1026668 -0.056,0.2146668 -0.084,0.3359999 -0.102667,0.2053337 -0.182001,0.3126669 -0.238,0.322 -0.112001,0 -0.168001,-0.046667 -0.168001,-0.1399998 0,-0.1493335 0.09333,-0.485333 0.28,-1.00799986 v -0.0140005 c 0,-0.009333 0.0047,-0.0139995 0.014,-0.014 v -0.0139999 -0.0139999 l 0.126,-0.29400015 c 0.205333,-0.37333298 0.415333,-0.60666657 0.630001,-0.69999984 0.130665,-0.06533334 0.270666,-0.09800002 0.42,-0.09800003 z"
         fill="#000000"
         id="path15322" />
      <path
         d="M 26.830662,10.82561 H 38.77066 c 0.426667,0 0.653336,0.133333 0.680001,0.400001 0,0.266666 -0.220002,0.399999 -0.66,0.399999 H 26.810663 c -0.426668,0 -0.646667,-0.133333 -0.66,-0.399999 -2e-6,-0.266668 0.226666,-0.400001 0.679999,-0.400001 z m -0.02,-3.8799995 H 38.79066 c 0.42667,0 0.646667,0.1333332 0.66,0.3999996 0,0.2666669 -0.226666,0.4000001 -0.680001,0.4000001 H 26.830662 c -0.426666,0 -0.653332,-0.1333332 -0.679999,-0.4000001 -2e-6,-0.2666664 0.22,-0.3999996 0.66,-0.3999996 z"
         fill="#000000"
         id="path15324" />
      <path
         d="m 51.741852,5.8856106 c -0.799999,0 -1.599999,0.5333338 -2.399998,1.5999999 -0.106666,0.1333337 -0.206669,0.3666668 -0.299999,0.6999993 L 48.601852,10.02561 c -0.213333,0.84 -0.319999,1.513334 -0.319999,2.02 0,1.146667 0.346668,1.806667 1.040001,1.98 0.09333,0.02667 0.193332,0.04 0.299999,0.04 0.706669,0 1.366665,-0.466666 1.979999,-1.4 0.133336,-0.199999 0.260003,-0.42 0.380001,-0.66 0.360001,-0.76 0.66,-1.786666 0.899998,-3.0799995 0.08,-0.4666662 0.120003,-0.8533334 0.120003,-1.1600003 0,-1.0666661 -0.326668,-1.6799998 -0.98,-1.8399997 l -0.02,-0.02 c -0.08,-0.013333 -0.166668,-0.019999 -0.260002,-0.02 z M 50.661854,0.40561008 c 0.173332,0 0.259998,0.0733337 0.259998,0.22000027 L 49.441853,6.6456103 c 0.773334,-0.7999997 1.553333,-1.2000003 2.34,-1.2000003 1,0 1.746666,0.460001 2.240001,1.3800002 0.279999,0.5333337 0.419999,1.1400003 0.419999,1.8200006 0,1.4133332 -0.493332,2.7333322 -1.48,3.9599992 -0.919998,1.133333 -1.933334,1.76 -3.040001,1.88 -0.106666,0.01333 -0.206665,0.02 -0.299999,0.02 -0.959999,0 -1.673332,-0.446666 -2.14,-1.34 -0.266666,-0.506667 -0.400001,-1.106666 -0.400001,-1.8 0,-0.453333 0.106667,-1.126667 0.32,-2.0200003 l 1.640003,-6.5199995 c 0.186664,-0.786666 0.279999,-1.1999989 0.279999,-1.2399998 0,-0.1466665 -0.09334,-0.2399998 -0.279999,-0.2799997 -0.160004,-0.04 -0.400002,-0.059999 -0.720001,-0.060001 -0.293335,1.1e-6 -0.453335,-0.079999 -0.48,-0.2399996 0,-0.22666648 0.126667,-0.35999969 0.380001,-0.39999971 z"
         fill="#000000"
         id="path15326" />
    </svg>
  </g>
  <g
     transform="matrix(0.40960529,0,0,0.52004693,107.32297,31.260972)"
     id="g15869">
    <svg
       version="1.1"
       id="svg15867"
       width="100%"
       height="100%">
      <path
         d="m 2.6799998,5.0488997 c 0.7466665,0 1.2866664,0.3133335 1.6199999,0.9400005 C 4.4199996,6.2289004 4.4933329,6.4955668 4.52,6.7888999 5.373333,5.6288996 6.4133329,5.0488997 7.6399999,5.0488997 c 1.146666,0 1.8733325,0.4400005 2.1799998,1.3200001 0.08,0.2400003 0.1199999,0.5133338 0.1199999,0.8200002 0,0.6800003 -0.4066668,2.1466665 -1.2199993,4.4 -0.2400008,0.586667 -0.3600006,1.06 -0.3600006,1.42 0,0.44 0.1599998,0.66 0.4800005,0.66 0.8799991,0 1.5599998,-0.826667 2.0399998,-2.48 0.06667,-0.213333 0.133332,-0.326667 0.2,-0.34 v -0.02 h 0.1 c 0.16,10e-7 0.240001,0.06667 0.240001,0.200001 0,0.226667 -0.14,0.646667 -0.42,1.26 -0.573334,1.213334 -1.3066673,1.82 -2.1999998,1.82 -0.6800013,0 -1.1666675,-0.286667 -1.4600005,-0.860001 -0.1199999,-0.239999 -0.1799999,-0.5 -0.1799999,-0.779999 0,-0.266667 0.066667,-0.573333 0.1999999,-0.92 0.8666668,-2.3333334 1.3000001,-3.8866666 1.3000001,-4.6600002 0,-0.9333329 -0.3600006,-1.3999996 -1.0799999,-1.3999996 -1.2000003,0 -2.2066669,0.666667 -3.02,2 -0.093334,0.146667 -0.1733336,0.2933335 -0.2400002,0.4399996 l -0.2599998,1 C 3.9933329,9.2355671 3.8799996,9.6822338 3.72,10.2689 l -0.44,1.8 c -0.2266667,0.92 -0.3533335,1.413333 -0.3800001,1.48 -0.1199999,0.346666 -0.3666666,0.533333 -0.7400001,0.56 -0.3333332,-0.06667 -0.5266666,-0.246667 -0.5799999,-0.54 -1e-7,0.02667 0.06,-0.26 0.18,-0.860001 L 2.9199998,8.0888996 C 3.1333332,7.2355666 3.2399998,6.6755667 3.24,6.4088998 3.2399998,5.7955675 3.0333333,5.4889002 2.6199999,5.4889002 2.0733333,5.4889002 1.6266665,6.1222334 1.28,7.3888998 1.24,7.5355673 1.2,7.6955671 1.1600001,7.8688998 1.0133333,8.1622334 0.89999998,8.315567 0.81999999,8.3288994 c -0.16000002,0 -0.24000007,-0.066666 -0.24000001,-0.1999989 -6e-8,-0.2133336 0.13333327,-0.6933336 0.40000004,-1.4400005 v -0.02 c -1.2e-7,-0.013333 0.006667,-0.02 0.02,-0.02 v -0.02 -0.02 l 0.1800001,-0.42 C 1.4733332,5.6555662 1.7733333,5.3222332 2.0799999,5.1889 2.2666664,5.095567 2.4666665,5.0488997 2.6799998,5.0488997 Z"
         fill="#000000"
         id="path15853" />
      <path
         d="m 19.360271,10.4289 h 11.940001 c 0.426666,0 0.653334,0.133333 0.68,0.399999 0,0.266668 -0.220001,0.400001 -0.660001,0.400001 H 19.340273 c -0.426668,0 -0.646668,-0.133333 -0.66,-0.400001 -2e-6,-0.266666 0.226666,-0.399999 0.679998,-0.399999 z m -0.02,-3.8799999 h 11.979998 c 0.426668,0 0.646667,0.1333332 0.660001,0.3999996 0,0.2666669 -0.226667,0.4000001 -0.68,0.4000001 H 19.360271 c -0.426666,0 -0.653331,-0.1333332 -0.679998,-0.4000001 -2e-6,-0.2666664 0.219999,-0.3999996 0.66,-0.3999996 z"
         fill="#000000"
         id="path15855" />
      <path
         d="M 42.211464,0.00889969 V 12.3689 c 0,0.453333 0.106666,0.72 0.32,0.8 0.146667,0.06667 0.559997,0.1 1.239997,0.1 v 0.62 l -2.219997,-0.06 c -0.16,0 -0.900001,0.02 -2.220001,0.06 v -0.62 c 0.786667,0 1.246666,-0.06 1.380001,-0.18 l 0.04,-0.04 c 0.09333,-0.106667 0.139999,-0.333333 0.139999,-0.68 V 1.9688997 c 0,-0.5199995 -0.09333,-0.8400001 -0.280002,-0.9599999 h -0.02 C 40.444798,0.92890072 40.191463,0.87556744 39.831463,0.84889984 h -0.5 V 0.22889987 Z"
         fill="#000000"
         id="path15857" />
      <path
         d="m 49.207043,5.3689003 c -0.826668,0 -1.506668,0.333333 -2.040001,0.9999995 -0.09333,0.1066671 -0.173332,0.2200003 -0.239998,0.3400002 -0.32,0.586667 -0.48,1.5000005 -0.48,2.7400002 0,1.2933328 0.166664,2.2333338 0.5,2.8199998 0.559998,0.866667 1.32,1.313333 2.279999,1.34 0.893334,0 1.599999,-0.373334 2.119999,-1.12 l 0.200001,-0.36 c 0.293335,-0.586667 0.439998,-1.48 0.439998,-2.6799998 0,-1.2799997 -0.173332,-2.2066664 -0.52,-2.7800002 C 50.893707,5.8422327 50.140377,5.4089003 49.207043,5.3689003 Z m 0.02,-0.4400005 c 1.293335,9e-7 2.380001,0.5133333 3.260002,1.5400004 0.773331,0.8933334 1.159996,1.9400001 1.159996,3.1399999 0,1.3733329 -0.506664,2.5066659 -1.519996,3.3999999 -0.840004,0.733333 -1.813336,1.1 -2.920002,1.1 -1.279999,0 -2.360001,-0.48 -3.239998,-1.44 -0.786667,-0.866667 -1.18,-1.886667 -1.18,-3.0599999 0,-1.3599997 0.486663,-2.5066662 1.459999,-3.4400001 0.84,-0.8266663 1.833332,-1.2399993 2.979999,-1.2400002 z"
         fill="#000000"
         id="path15859" />
      <path
         d="m 57.467087,13.748899 c -0.626667,0.04 -1.100002,0.340001 -1.420002,0.900001 -0.146668,0.253333 -0.220001,0.526667 -0.220001,0.82 0,0.626666 0.386669,1.146666 1.159999,1.56 0.626667,0.346666 1.373337,0.520001 2.240002,0.520001 1.266667,0 2.226666,-0.333334 2.880001,-1 0.333332,-0.333334 0.5,-0.693335 0.5,-1.080001 0,-0.986667 -0.786667,-1.546666 -2.36,-1.680001 h -0.02 c -0.346668,-0.02667 -0.873333,-0.04 -1.579998,-0.04 z m 1.199997,-8.2399993 c -0.586666,0 -1.059998,0.2666674 -1.419998,0.8000002 -0.213334,0.3600001 -0.32,0.9200001 -0.32,1.6799998 0.05333,1.5999999 0.633331,2.4199993 1.739998,2.4600003 0.586666,0 1.060001,-0.266666 1.420002,-0.8 0.213333,-0.3599996 0.319999,-0.92 0.319999,-1.6800003 -0.05333,-1.5999994 -0.633335,-2.42 -1.740001,-2.46 z m 4.240001,-0.6799994 c 0.520001,0 0.846669,0.2399998 0.98,0.7199994 0.02667,0.08 0.04,0.1666669 0.04,0.2600002 -0.05333,0.3466673 -0.246666,0.5466671 -0.580002,0.5999999 -0.293335,5e-7 -0.479999,-0.1399994 -0.559998,-0.4199996 -0.01334,-0.053333 -0.02,-0.1066666 -0.02,-0.1599999 0,-0.2799997 0.106667,-0.46 0.32,-0.5399999 -0.04,-0.013333 -0.106667,-0.020001 -0.200001,-0.020001 -0.653336,0 -1.253334,0.2600002 -1.799999,0.7800002 0.546665,0.5066667 0.819999,1.1533332 0.819999,1.9399996 0,0.9200006 -0.400001,1.6733337 -1.2,2.2599998 -0.586666,0.440001 -1.266667,0.66 -2.040001,0.66 -0.746666,0 -1.406666,-0.206666 -1.98,-0.619999 -0.226665,0.266667 -0.34,0.58 -0.34,0.94 0,0.546666 0.213333,0.946667 0.639999,1.2 0.133336,0.08 0.273335,0.126667 0.420002,0.14 0.09333,0.01333 0.593335,0.02 1.5,0.02 1.373333,0 2.373333,0.12 3,0.36 0.146664,0.05333 0.293332,0.12 0.439999,0.2 0.813335,0.533333 1.246666,1.293333 1.300003,2.28 0,0.866666 -0.560001,1.546666 -1.68,2.039999 -0.800003,0.359999 -1.720001,0.540001 -2.760002,0.540001 -1.546666,0 -2.753334,-0.360001 -3.619999,-1.080001 -0.533333,-0.426666 -0.8,-0.913334 -0.8,-1.46 0,-0.666667 0.340001,-1.213333 1.019997,-1.640001 0.240002,-0.159999 0.513336,-0.279999 0.820004,-0.359999 -0.546669,-0.426667 -0.840001,-1.019999 -0.880001,-1.779999 0,-0.626667 0.206665,-1.18 0.619999,-1.66 -0.599999,-0.5733341 -0.913334,-1.2600006 -0.939999,-2.0600008 0,-0.9199996 0.399998,-1.6733327 1.200001,-2.2599992 0.586666,-0.4399996 1.266666,-0.6600008 2.039997,-0.6600008 0.800003,0 1.506668,0.2400007 2.120002,0.7200002 0.64,-0.6266661 1.346665,-0.9399996 2.119999,-0.9399996 z"
         fill="#000000"
         id="path15861" />
      <path
         d="m 68.175125,12.5978 c -0.485329,0 -0.947334,0.317334 -1.386001,0.952001 -0.084,0.121332 -0.163331,0.251999 -0.237999,0.391999 -0.270668,0.541333 -0.499329,1.311334 -0.685997,2.310001 -0.056,0.317333 -0.084,0.569334 -0.084,0.756 0,0.634666 0.17733,1.045332 0.531998,1.231998 0.102668,0.056 0.223999,0.084 0.363998,0.084 0.522667,0 1.050003,-0.331333 1.582001,-0.994001 0.130668,-0.149332 0.219337,-0.303334 0.266006,-0.462 v -0.014 c 0.0093,-0.01866 0.01399,-0.03266 0.01399,-0.042 l 0.700004,-2.743999 c 0.028,-0.140001 0.042,-0.219334 0.042,-0.238001 0,-0.195999 -0.084,-0.434 -0.251999,-0.713999 C 68.823792,12.770468 68.539124,12.5978 68.175125,12.5978 Z m -0.014,-0.307999 c 0.569336,0 0.998665,0.298666 1.288002,0.896 0.04667,-0.317334 0.19133,-0.513334 0.433998,-0.588001 0.04667,-0.01867 0.098,-0.028 0.154,-0.028 0.242668,0 0.378006,0.126001 0.406005,0.378 0,0.056 -0.03267,0.214667 -0.09801,0.476 l -0.503998,1.960001 c -0.139999,0.587999 -0.242668,1.007999 -0.307998,1.26 -0.12133,0.485332 -0.181999,0.830665 -0.181999,1.035999 0,0.429333 0.139999,0.644001 0.419998,0.644001 0.354667,0 0.653335,-0.373335 0.896004,-1.120001 0.04666,-0.158666 0.102661,-0.364 0.167999,-0.615999 0.07466,-0.158667 0.139999,-0.242666 0.195999,-0.252001 0.111999,0 0.167999,0.04667 0.167999,0.14 0,0.140001 -0.084,0.466667 -0.251999,0.980001 -0.056,0.158667 -0.111999,0.293999 -0.167999,0.406 -0.261337,0.513333 -0.606667,0.769999 -1.036003,0.769999 -0.522667,0 -0.900665,-0.223999 -1.133995,-0.671999 -0.06534,-0.112 -0.112007,-0.238001 -0.140007,-0.378001 -0.587998,0.700001 -1.194664,1.05 -1.82,1.05 -0.699997,0 -1.217995,-0.317334 -1.554001,-0.952 -0.20533,-0.373333 -0.307998,-0.802666 -0.307998,-1.288 0,-1.007999 0.350006,-1.941333 1.050003,-2.799999 0.653335,-0.784001 1.362663,-1.213333 2.127998,-1.288 0.06533,-0.0093 0.130669,-0.014 0.195999,-0.014 z"
         fill="#000000"
         id="path15863" />
      <path
         d="m 81.06073,5.4889002 c -0.799995,0 -1.599998,0.5333338 -2.400002,1.5999999 -0.106666,0.1333337 -0.206665,0.3666668 -0.299995,0.6999998 l -0.440002,1.8400006 c -0.213334,0.8399995 -0.32,1.5133325 -0.32,2.0199995 0,1.146667 0.346664,1.806666 1.040001,1.98 0.09333,0.02667 0.193336,0.04 0.300003,0.04 0.706665,0 1.366661,-0.466667 1.979996,-1.4 0.133331,-0.2 0.260002,-0.42 0.379997,-0.66 0.36,-0.76 0.660004,-1.7866668 0.900001,-3.0799999 0.08,-0.4666662 0.120003,-0.8533334 0.120003,-1.1600003 0,-1.0666661 -0.326668,-1.6799998 -0.980003,-1.8399997 l -0.02,-0.02 c -0.08,-0.013333 -0.166664,-0.019999 -0.260002,-0.019999 z M 79.980728,0.00889969 c 0.17334,0 0.260002,0.07333374 0.260002,0.22000028 L 78.760735,6.2488999 c 0.77333,-0.7999997 1.553329,-1.2000002 2.339996,-1.2000002 1,0 1.746666,0.4600009 2.239998,1.3800001 0.279999,0.5333337 0.420006,1.1400003 0.420006,1.8199997 0,1.4133339 -0.49334,2.7333335 -1.480004,3.9599995 -0.919998,1.133334 -1.933334,1.760001 -3.040001,1.880001 -0.106666,0.01333 -0.206665,0.02 -0.299995,0.02 -0.960007,0 -1.67334,-0.446667 -2.140007,-1.34 -0.266663,-0.506666 -0.399994,-1.106667 -0.399994,-1.8 0,-0.453333 0.106667,-1.1266663 0.32,-2.0199998 l 1.639999,-6.5200004 c 0.186668,-0.786666 0.279999,-1.1999989 0.279999,-1.2399998 0,-0.1466665 -0.09333,-0.23999978 -0.279999,-0.27999974 -0.160004,-0.04 -0.400001,-0.0599995 -0.720001,-0.0600005 -0.293335,1.07e-6 -0.453331,-0.0799989 -0.480004,-0.23999965 0,-0.22666645 0.126671,-0.35999966 0.380005,-0.39999969 z"
         fill="#000000"
         id="path15865" />
    </svg>
  </g>
</svg>
