<?xml version="1.0" encoding="UTF-8" standalone="no"?>
<!-- Created with Inkscape (http://www.inkscape.org/) -->

<svg
   width="105mm"
   height="225mm"
   viewBox="0 0 105 225"
   version="1.1"
   id="svg5"
   inkscape:version="1.1.1 (3bf5ae0d25, 2021-09-20)"
   sodipodi:docname="mapexp.svg"
   xmlns:inkscape="http://www.inkscape.org/namespaces/inkscape"
   xmlns:sodipodi="http://sodipodi.sourceforge.net/DTD/sodipodi-0.dtd"
   xmlns:xlink="http://www.w3.org/1999/xlink"
   xmlns="http://www.w3.org/2000/svg"
   xmlns:svg="http://www.w3.org/2000/svg">
  <sodipodi:namedview
     id="namedview7"
     pagecolor="#ffffff"
     bordercolor="#000000"
     borderopacity="0.25"
     inkscape:pageshadow="2"
     inkscape:pageopacity="0.0"
     inkscape:pagecheckerboard="0"
     inkscape:document-units="mm"
     showgrid="false"
     inkscape:zoom="1.5698611"
     inkscape:cx="199.0622"
     inkscape:cy="749.42936"
     inkscape:window-width="1366"
     inkscape:window-height="705"
     inkscape:window-x="-8"
     inkscape:window-y="-8"
     inkscape:window-maximized="1"
     inkscape:current-layer="layer1"
     showguides="false"
     height="150mm" />
  <defs
     id="defs2">
    <marker
       style="overflow:visible"
       id="marker10457"
       refX="0"
       refY="0"
       orient="auto"
       inkscape:stockid="Arrow1Lend"
       inkscape:isstock="true">
      <path
         transform="matrix(-0.8,0,0,-0.8,-10,0)"
         style="fill:context-stroke;fill-rule:evenodd;stroke:context-stroke;stroke-width:1pt"
         d="M 0,0 5,-5 -12.5,0 5,5 Z"
         id="path10455" />
    </marker>
    <marker
       style="overflow:visible"
       id="Arrow1Lend"
       refX="0"
       refY="0"
       orient="auto"
       inkscape:stockid="Arrow1Lend"
       inkscape:isstock="true">
      <path
         transform="matrix(-0.8,0,0,-0.8,-10,0)"
         style="fill:context-stroke;fill-rule:evenodd;stroke:context-stroke;stroke-width:1pt"
         d="M 0,0 5,-5 -12.5,0 5,5 Z"
         id="path2855" />
    </marker>
    <marker
       style="overflow:visible"
       id="Arrow2Lend"
       refX="0"
       refY="0"
       orient="auto"
       inkscape:stockid="Arrow2Lend"
       inkscape:isstock="true">
      <path
         transform="matrix(-1.1,0,0,-1.1,-1.1,0)"
         d="M 8.7185878,4.0337352 -2.2072895,0.01601326 8.7185884,-4.0017078 c -1.7454984,2.3720609 -1.7354408,5.6174519 -6e-7,8.035443 z"
         style="fill:context-stroke;fill-rule:evenodd;stroke:context-stroke;stroke-width:0.625;stroke-linejoin:round"
         id="path2873" />
    </marker>
    <marker
       style="overflow:visible"
       id="Arrow1Mend"
       refX="0"
       refY="0"
       orient="auto"
       inkscape:stockid="Arrow1Mend"
       inkscape:isstock="true">
      <path
         transform="matrix(-0.4,0,0,-0.4,-4,0)"
         style="fill:context-stroke;fill-rule:evenodd;stroke:context-stroke;stroke-width:1pt"
         d="M 0,0 5,-5 -12.5,0 5,5 Z"
         id="path2861" />
    </marker>
    <linearGradient
       id="linearGradient6508"
       inkscape:swatch="solid">
      <stop
         style="stop-color:#003900;stop-opacity:1;"
         offset="0"
         id="stop6506" />
    </linearGradient>
    <linearGradient
       inkscape:collect="always"
       xlink:href="#linearGradient6508"
       id="linearGradient6622"
       gradientUnits="userSpaceOnUse"
       gradientTransform="matrix(1.0001031,0,0,0.91599168,110.00219,151.38202)"
       x1="2.4869499"
       y1="40.411156"
       x2="112.75967"
       y2="40.411156" />
    <linearGradient
       inkscape:collect="always"
       xlink:href="#linearGradient6508"
       id="linearGradient6626"
       gradientUnits="userSpaceOnUse"
       gradientTransform="matrix(1.0001031,0,0,0.91599168,110.00219,220.61618)"
       x1="2.4869499"
       y1="40.411156"
       x2="112.75967"
       y2="40.411156" />
    <linearGradient
       inkscape:collect="always"
       xlink:href="#linearGradient6508"
       id="linearGradient6630"
       gradientUnits="userSpaceOnUse"
       gradientTransform="matrix(1.0001031,0,0,0.91599168,110.00786,0.22004199)"
       x1="2.4869499"
       y1="40.411156"
       x2="112.75967"
       y2="40.411156" />
    <linearGradient
       inkscape:collect="always"
       xlink:href="#linearGradient6508"
       id="linearGradient6714"
       gradientUnits="userSpaceOnUse"
       gradientTransform="matrix(1.0001031,0,0,0.91599168,109.99651,75.803857)"
       x1="2.4869499"
       y1="40.411156"
       x2="112.75967"
       y2="40.411156" />
    <linearGradient
       inkscape:collect="always"
       xlink:href="#linearGradient6508"
       id="linearGradient8672"
       gradientUnits="userSpaceOnUse"
       gradientTransform="matrix(1.0001031,0,0,0.91599168,220.02167,151.38202)"
       x1="2.4869499"
       y1="40.411156"
       x2="112.75967"
       y2="40.411156" />
  </defs>
  <g
     inkscape:label="Layer 1"
     inkscape:groupmode="layer"
     id="layer1">
    <text
       xml:space="preserve"
       style="font-style:normal;font-variant:normal;font-weight:bold;font-stretch:normal;font-size:6.67613px;font-family:sans-serif;-inkscape-font-specification:'sans-serif Bold';fill:#241c1c;stroke-width:0.250354"
       x="254.73421"
       y="19.377623"
       id="text3821"
       transform="scale(0.60646943,1.6488877)"><tspan
         sodipodi:role="line"
         id="tspan3819"
         style="font-size:6.67613px;stroke-width:0.250354"
         x="254.73421"
         y="19.377623">Bentuk umum</tspan></text>
    <text
       xml:space="preserve"
       style="font-style:normal;font-variant:normal;font-weight:bold;font-stretch:normal;font-size:8.95879px;font-family:sans-serif;-inkscape-font-specification:'sans-serif Bold';fill:#200e0c;fill-opacity:1;stroke-width:0.335951"
       x="25.332104"
       y="9.591507"
       id="text5601"
       transform="scale(0.63374184,1.5779296)"
       inkscape:transform-center-y="16.933333"><tspan
         sodipodi:role="line"
         id="tspan5599"
         style="font-size:8.95879px;fill:#200e0c;fill-opacity:1;stroke-width:0.335951"
         x="25.332104"
         y="9.591507">Persamaan Exponen</tspan></text>
    <text
       xml:space="preserve"
       style="font-style:normal;font-variant:normal;font-weight:bold;font-stretch:normal;font-size:11.825px;font-family:sans-serif;-inkscape-font-specification:'sans-serif Bold';fill:#241c1c;stroke-width:0.443437"
       x="444.99814"
       y="12.516476"
       id="text5605"
       transform="scale(0.52329943,1.9109518)"><tspan
         sodipodi:role="line"
         id="tspan5603"
         style="font-size:11.825px;stroke-width:0.443437"
         x="444.99814"
         y="12.516476">Bentuk Akar</tspan></text>
    <text
       xml:space="preserve"
       style="font-style:normal;font-variant:normal;font-weight:bold;font-stretch:normal;font-size:8.32764px;font-family:sans-serif;-inkscape-font-specification:'sans-serif Bold';fill:#241c1c;stroke-width:0.312286"
       x="623.40918"
       y="14.906974"
       id="text5609"
       transform="scale(0.54544382,1.8333694)"><tspan
         sodipodi:role="line"
         id="tspan5607"
         style="font-size:8.32764px;stroke-width:0.312286"
         x="623.40918"
         y="14.906974">Bentuk Logaritma</tspan></text>
    <rect
       style="fill:none;stroke:url(#linearGradient6622);stroke-width:0.253239;stroke-opacity:1"
       id="rect6620"
       width="110.01948"
       height="69.234154"
       x="112.6217"
       y="153.78122"
       inkscape:transform-center-x="22.078743"
       inkscape:transform-center-y="-15.423454" />
    <rect
       style="fill:none;stroke:url(#linearGradient6626);stroke-width:0.253239;stroke-opacity:1"
       id="rect6624"
       width="110.01948"
       height="69.234154"
       x="112.6217"
       y="223.01538"
       inkscape:transform-center-x="22.078743"
       inkscape:transform-center-y="-15.423454" />
    <rect
       style="fill:none;stroke:url(#linearGradient6630);stroke-width:0.253239;stroke-opacity:1"
       id="rect6628"
       width="110.01948"
       height="69.234154"
       x="112.62737"
       y="2.6192415"
       inkscape:transform-center-x="22.078743"
       inkscape:transform-center-y="-15.423454" />
    <rect
       style="fill:none;stroke:url(#linearGradient6714);stroke-width:0.253239;stroke-opacity:1"
       id="rect6712"
       width="110.01948"
       height="69.234154"
       x="112.61602"
       y="78.203056"
       inkscape:transform-center-x="22.078743"
       inkscape:transform-center-y="-15.423454" />
    <rect
       style="fill:none;stroke:url(#linearGradient8672);stroke-width:0.253239;stroke-opacity:1"
       id="rect8670"
       width="110.01948"
       height="69.234154"
       x="222.64117"
       y="153.78122"
       inkscape:transform-center-x="22.078743"
       inkscape:transform-center-y="-15.423454" />
    <text
       xml:space="preserve"
       style="font-style:normal;font-variant:normal;font-weight:bold;font-stretch:normal;font-size:6.67613px;font-family:sans-serif;-inkscape-font-specification:'sans-serif Bold';fill:#241c1c;stroke-width:0.250354"
       x="402.19156"
       y="57.047531"
       id="text15684"
       transform="scale(0.60646943,1.6488877)"><tspan
         sodipodi:role="line"
         id="tspan15682"
         style="font-size:6.67613px;stroke-width:0.250354"
         x="402.19156"
         y="57.047531">Sifat-sifat</tspan></text>
    <text
       xml:space="preserve"
       style="font-style:normal;font-variant:normal;font-weight:bold;font-stretch:normal;font-size:6.67613px;font-family:sans-serif;-inkscape-font-specification:'sans-serif Bold';fill:#241c1c;stroke-width:0.250354"
       x="570.6261"
       y="37.758724"
       id="text15688"
       transform="scale(0.60646943,1.6488877)"><tspan
         sodipodi:role="line"
         id="tspan15686"
         style="font-size:6.67613px;stroke-width:0.250354"
         x="570.6261"
         y="37.758724">Sifat-sifat</tspan></text>
    <path
       style="fill:#4d1ca9;fill-opacity:1;stroke:#00075b;stroke-width:0.079375;stroke-miterlimit:4;stroke-dasharray:none;stroke-opacity:1;marker-end:url(#marker10457)"
       d="m 20.60412,91.877362 0.121632,8.961438"
       id="path25783"
       sodipodi:nodetypes="cc" />
    <path
       style="fill:#4d1ca9;fill-opacity:1;stroke:#00075b;stroke-width:0.079375;stroke-miterlimit:4;stroke-dasharray:none;stroke-opacity:1;marker-end:url(#Arrow1Lend)"
       d="m 45.721428,40.303571 0.171951,17.578373"
       id="path25787"
       sodipodi:nodetypes="cc" />
    <path
       sodipodi:type="star"
       style="fill:#ffaaaa;stroke:#00b85b;stroke-width:0.999999;stroke-dasharray:0.999999, 3.99999"
       id="path6021"
       inkscape:flatsided="false"
       sodipodi:sides="5"
       sodipodi:cx="22.931965"
       sodipodi:cy="1094.3643"
       sodipodi:r1="17.949362"
       sodipodi:r2="8.9746809"
       sodipodi:arg1="1.091277"
       sodipodi:arg2="1.7195956"
       inkscape:rounded="0"
       inkscape:randomized="0"
       d="m 31.212953,1110.2892 -9.611492,-7.0494 -11.256081,3.9212 3.734326,-11.3194 -7.2076664,-9.4935 11.9194324,0.054 6.801499,-9.7886 3.632287,11.3527 11.411224,3.4438 -9.674555,6.9626 z"
       transform="scale(0.26458333)"
       inkscape:transform-center-x="-0.21756579"
       inkscape:transform-center-y="-0.24157385" />
    <text
       xml:space="preserve"
       style="font-size:2.11667px;line-height:1.25;font-family:sans-serif;stroke-width:0.264583"
       x="11.217789"
       y="164.49438"
       id="text30078"><tspan
         sodipodi:role="line"
         id="tspan30076"
         style="stroke-width:0.264583"
         x="11.217789"
         y="164.49438">sifat 1</tspan></text>
    <text
       xml:space="preserve"
       style="font-size:2.11667px;line-height:1.25;font-family:sans-serif;stroke-width:0.264583"
       x="9.94382"
       y="180"
       id="text31072"><tspan
         sodipodi:role="line"
         id="tspan31070"
         style="stroke-width:0.264583"
         x="9.94382"
         y="180">sifat 2</tspan></text>
    <text
       xml:space="preserve"
       style="font-size:2.11667px;line-height:1.25;font-family:sans-serif;stroke-width:0.264583"
       x="10.280899"
       y="194.32585"
       id="text31970"><tspan
         sodipodi:role="line"
         id="tspan31968"
         style="stroke-width:0.264583"
         x="10.280899"
         y="194.32585">sifat 3</tspan></text>
    <text
       xml:space="preserve"
       style="font-size:2.11667px;line-height:1.25;font-family:sans-serif;stroke-width:0.264583"
       x="10.786516"
       y="209.66293"
       id="text33954"><tspan
         sodipodi:role="line"
         id="tspan33952"
         style="stroke-width:0.264583"
         x="10.786516"
         y="209.66293">sifat 4</tspan></text>
    <path
       style="fill:none;stroke:#e80000;stroke-width:1.165;stroke-linecap:butt;stroke-linejoin:miter;stroke-opacity:1;stroke-miterlimit:4;stroke-dasharray:none"
       d="M 19.382022,20.898876 20.224719,61.179775 8.258427,99.438202 v 40.449438 40.44944 37.07865"
       id="path34465" />
  </g>
  <script
     id="mesh_polyfill"
     type="text/javascript">
!function(){const t=&quot;http://www.w3.org/2000/svg&quot;,e=&quot;http://www.w3.org/1999/xlink&quot;,s=&quot;http://www.w3.org/1999/xhtml&quot;,r=2;if(document.createElementNS(t,&quot;meshgradient&quot;).x)return;const n=(t,e,s,r)=&gt;{let n=new x(.5*(e.x+s.x),.5*(e.y+s.y)),o=new x(.5*(t.x+e.x),.5*(t.y+e.y)),i=new x(.5*(s.x+r.x),.5*(s.y+r.y)),a=new x(.5*(n.x+o.x),.5*(n.y+o.y)),h=new x(.5*(n.x+i.x),.5*(n.y+i.y)),l=new x(.5*(a.x+h.x),.5*(a.y+h.y));return[[t,o,a,l],[l,h,i,r]]},o=t=&gt;{let e=t[0].distSquared(t[1]),s=t[2].distSquared(t[3]),r=.25*t[0].distSquared(t[2]),n=.25*t[1].distSquared(t[3]),o=e&gt;s?e:s,i=r&gt;n?r:n;return 18*(o&gt;i?o:i)},i=(t,e)=&gt;Math.sqrt(t.distSquared(e)),a=(t,e)=&gt;t.scale(2/3).add(e.scale(1/3)),h=t=&gt;{let e,s,r,n,o,i,a,h=new g;return t.match(/(\w+\(\s*[^)]+\))+/g).forEach(t=&gt;{let l=t.match(/[\w.-]+/g),d=l.shift();switch(d){case&quot;translate&quot;:2===l.length?e=new g(1,0,0,1,l[0],l[1]):(console.error(&quot;mesh.js: translate does not have 2 arguments!&quot;),e=new g(1,0,0,1,0,0)),h=h.append(e);break;case&quot;scale&quot;:1===l.length?s=new g(l[0],0,0,l[0],0,0):2===l.length?s=new g(l[0],0,0,l[1],0,0):(console.error(&quot;mesh.js: scale does not have 1 or 2 arguments!&quot;),s=new g(1,0,0,1,0,0)),h=h.append(s);break;case&quot;rotate&quot;:if(3===l.length&amp;&amp;(e=new g(1,0,0,1,l[1],l[2]),h=h.append(e)),l[0]){r=l[0]*Math.PI/180;let t=Math.cos(r),e=Math.sin(r);Math.abs(t)&lt;1e-16&amp;&amp;(t=0),Math.abs(e)&lt;1e-16&amp;&amp;(e=0),a=new g(t,e,-e,t,0,0),h=h.append(a)}else console.error(&quot;math.js: No argument to rotate transform!&quot;);3===l.length&amp;&amp;(e=new g(1,0,0,1,-l[1],-l[2]),h=h.append(e));break;case&quot;skewX&quot;:l[0]?(r=l[0]*Math.PI/180,n=Math.tan(r),o=new g(1,0,n,1,0,0),h=h.append(o)):console.error(&quot;math.js: No argument to skewX transform!&quot;);break;case&quot;skewY&quot;:l[0]?(r=l[0]*Math.PI/180,n=Math.tan(r),i=new g(1,n,0,1,0,0),h=h.append(i)):console.error(&quot;math.js: No argument to skewY transform!&quot;);break;case&quot;matrix&quot;:6===l.length?h=h.append(new g(...l)):console.error(&quot;math.js: Incorrect number of arguments for matrix!&quot;);break;default:console.error(&quot;mesh.js: Unhandled transform type: &quot;+d)}}),h},l=t=&gt;{let e=[],s=t.split(/[ ,]+/);for(let t=0,r=s.length-1;t&lt;r;t+=2)e.push(new x(parseFloat(s[t]),parseFloat(s[t+1])));return e},d=(t,e)=&gt;{for(let s in e)t.setAttribute(s,e[s])},c=(t,e,s,r,n)=&gt;{let o,i,a=[0,0,0,0];for(let h=0;h&lt;3;++h)e[h]&lt;t[h]&amp;&amp;e[h]&lt;s[h]||t[h]&lt;e[h]&amp;&amp;s[h]&lt;e[h]?a[h]=0:(a[h]=.5*((e[h]-t[h])/r+(s[h]-e[h])/n),o=Math.abs(3*(e[h]-t[h])/r),i=Math.abs(3*(s[h]-e[h])/n),a[h]&gt;o?a[h]=o:a[h]&gt;i&amp;&amp;(a[h]=i));return a},u=[[1,0,0,0,0,0,0,0,0,0,0,0,0,0,0,0],[0,0,0,0,1,0,0,0,0,0,0,0,0,0,0,0],[-3,3,0,0,-2,-1,0,0,0,0,0,0,0,0,0,0],[2,-2,0,0,1,1,0,0,0,0,0,0,0,0,0,0],[0,0,0,0,0,0,0,0,1,0,0,0,0,0,0,0],[0,0,0,0,0,0,0,0,0,0,0,0,1,0,0,0],[0,0,0,0,0,0,0,0,-3,3,0,0,-2,-1,0,0],[0,0,0,0,0,0,0,0,2,-2,0,0,1,1,0,0],[-3,0,3,0,0,0,0,0,-2,0,-1,0,0,0,0,0],[0,0,0,0,-3,0,3,0,0,0,0,0,-2,0,-1,0],[9,-9,-9,9,6,3,-6,-3,6,-6,3,-3,4,2,2,1],[-6,6,6,-6,-3,-3,3,3,-4,4,-2,2,-2,-2,-1,-1],[2,0,-2,0,0,0,0,0,1,0,1,0,0,0,0,0],[0,0,0,0,2,0,-2,0,0,0,0,0,1,0,1,0],[-6,6,6,-6,-4,-2,4,2,-3,3,-3,3,-2,-1,-2,-1],[4,-4,-4,4,2,2,-2,-2,2,-2,2,-2,1,1,1,1]],f=t=&gt;{let e=[];for(let s=0;s&lt;16;++s){e[s]=0;for(let r=0;r&lt;16;++r)e[s]+=u[s][r]*t[r]}return e},p=(t,e,s)=&gt;{const r=e*e,n=s*s,o=e*e*e,i=s*s*s;return t[0]+t[1]*e+t[2]*r+t[3]*o+t[4]*s+t[5]*s*e+t[6]*s*r+t[7]*s*o+t[8]*n+t[9]*n*e+t[10]*n*r+t[11]*n*o+t[12]*i+t[13]*i*e+t[14]*i*r+t[15]*i*o},y=t=&gt;{let e=[],s=[],r=[];for(let s=0;s&lt;4;++s)e[s]=[],e[s][0]=n(t[0][s],t[1][s],t[2][s],t[3][s]),e[s][1]=[],e[s][1].push(...n(...e[s][0][0])),e[s][1].push(...n(...e[s][0][1])),e[s][2]=[],e[s][2].push(...n(...e[s][1][0])),e[s][2].push(...n(...e[s][1][1])),e[s][2].push(...n(...e[s][1][2])),e[s][2].push(...n(...e[s][1][3]));for(let t=0;t&lt;8;++t){s[t]=[];for(let r=0;r&lt;4;++r)s[t][r]=[],s[t][r][0]=n(e[0][2][t][r],e[1][2][t][r],e[2][2][t][r],e[3][2][t][r]),s[t][r][1]=[],s[t][r][1].push(...n(...s[t][r][0][0])),s[t][r][1].push(...n(...s[t][r][0][1])),s[t][r][2]=[],s[t][r][2].push(...n(...s[t][r][1][0])),s[t][r][2].push(...n(...s[t][r][1][1])),s[t][r][2].push(...n(...s[t][r][1][2])),s[t][r][2].push(...n(...s[t][r][1][3]))}for(let t=0;t&lt;8;++t){r[t]=[];for(let e=0;e&lt;8;++e)r[t][e]=[],r[t][e][0]=s[t][0][2][e],r[t][e][1]=s[t][1][2][e],r[t][e][2]=s[t][2][2][e],r[t][e][3]=s[t][3][2][e]}return r};class x{constructor(t,e){this.x=t||0,this.y=e||0}toString(){return`(x=${this.x}, y=${this.y})`}clone(){return new x(this.x,this.y)}add(t){return new x(this.x+t.x,this.y+t.y)}scale(t){return void 0===t.x?new x(this.x*t,this.y*t):new x(this.x*t.x,this.y*t.y)}distSquared(t){let e=this.x-t.x,s=this.y-t.y;return e*e+s*s}transform(t){let e=this.x*t.a+this.y*t.c+t.e,s=this.x*t.b+this.y*t.d+t.f;return new x(e,s)}}class g{constructor(t,e,s,r,n,o){void 0===t?(this.a=1,this.b=0,this.c=0,this.d=1,this.e=0,this.f=0):(this.a=t,this.b=e,this.c=s,this.d=r,this.e=n,this.f=o)}toString(){return`affine: ${this.a} ${this.c} ${this.e} \n       ${this.b} ${this.d} ${this.f}`}append(t){t instanceof g||console.error(&quot;mesh.js: argument to Affine.append is not affine!&quot;);let e=this.a*t.a+this.c*t.b,s=this.b*t.a+this.d*t.b,r=this.a*t.c+this.c*t.d,n=this.b*t.c+this.d*t.d,o=this.a*t.e+this.c*t.f+this.e,i=this.b*t.e+this.d*t.f+this.f;return new g(e,s,r,n,o,i)}}class w{constructor(t,e){this.nodes=t,this.colors=e}paintCurve(t,e){if(o(this.nodes)&gt;r){const s=n(...this.nodes);let r=[[],[]],o=[[],[]];for(let t=0;t&lt;4;++t)r[0][t]=this.colors[0][t],r[1][t]=(this.colors[0][t]+this.colors[1][t])/2,o[0][t]=r[1][t],o[1][t]=this.colors[1][t];let i=new w(s[0],r),a=new w(s[1],o);i.paintCurve(t,e),a.paintCurve(t,e)}else{let s=Math.round(this.nodes[0].x);if(s&gt;=0&amp;&amp;s&lt;e){let r=4*(~~this.nodes[0].y*e+s);t[r]=Math.round(this.colors[0][0]),t[r+1]=Math.round(this.colors[0][1]),t[r+2]=Math.round(this.colors[0][2]),t[r+3]=Math.round(this.colors[0][3])}}}}class m{constructor(t,e){this.nodes=t,this.colors=e}split(){let t=[[],[],[],[]],e=[[],[],[],[]],s=[[[],[]],[[],[]]],r=[[[],[]],[[],[]]];for(let s=0;s&lt;4;++s){const r=n(this.nodes[0][s],this.nodes[1][s],this.nodes[2][s],this.nodes[3][s]);t[0][s]=r[0][0],t[1][s]=r[0][1],t[2][s]=r[0][2],t[3][s]=r[0][3],e[0][s]=r[1][0],e[1][s]=r[1][1],e[2][s]=r[1][2],e[3][s]=r[1][3]}for(let t=0;t&lt;4;++t)s[0][0][t]=this.colors[0][0][t],s[0][1][t]=this.colors[0][1][t],s[1][0][t]=(this.colors[0][0][t]+this.colors[1][0][t])/2,s[1][1][t]=(this.colors[0][1][t]+this.colors[1][1][t])/2,r[0][0][t]=s[1][0][t],r[0][1][t]=s[1][1][t],r[1][0][t]=this.colors[1][0][t],r[1][1][t]=this.colors[1][1][t];return[new m(t,s),new m(e,r)]}paint(t,e){let s,n=!1;for(let t=0;t&lt;4;++t)if((s=o([this.nodes[0][t],this.nodes[1][t],this.nodes[2][t],this.nodes[3][t]]))&gt;r){n=!0;break}if(n){let s=this.split();s[0].paint(t,e),s[1].paint(t,e)}else{new w([...this.nodes[0]],[...this.colors[0]]).paintCurve(t,e)}}}class b{constructor(t){this.readMesh(t),this.type=t.getAttribute(&quot;type&quot;)||&quot;bilinear&quot;}readMesh(t){let e=[[]],s=[[]],r=Number(t.getAttribute(&quot;x&quot;)),n=Number(t.getAttribute(&quot;y&quot;));e[0][0]=new x(r,n);let o=t.children;for(let t=0,r=o.length;t&lt;r;++t){e[3*t+1]=[],e[3*t+2]=[],e[3*t+3]=[],s[t+1]=[];let r=o[t].children;for(let n=0,o=r.length;n&lt;o;++n){let o=r[n].children;for(let r=0,i=o.length;r&lt;i;++r){let i=r;0!==t&amp;&amp;++i;let h,d=o[r].getAttribute(&quot;path&quot;),c=&quot;l&quot;;null!=d&amp;&amp;(c=(h=d.match(/\s*([lLcC])\s*(.*)/))[1]);let u=l(h[2]);switch(c){case&quot;l&quot;:0===i?(e[3*t][3*n+3]=u[0].add(e[3*t][3*n]),e[3*t][3*n+1]=a(e[3*t][3*n],e[3*t][3*n+3]),e[3*t][3*n+2]=a(e[3*t][3*n+3],e[3*t][3*n])):1===i?(e[3*t+3][3*n+3]=u[0].add(e[3*t][3*n+3]),e[3*t+1][3*n+3]=a(e[3*t][3*n+3],e[3*t+3][3*n+3]),e[3*t+2][3*n+3]=a(e[3*t+3][3*n+3],e[3*t][3*n+3])):2===i?(0===n&amp;&amp;(e[3*t+3][3*n+0]=u[0].add(e[3*t+3][3*n+3])),e[3*t+3][3*n+1]=a(e[3*t+3][3*n],e[3*t+3][3*n+3]),e[3*t+3][3*n+2]=a(e[3*t+3][3*n+3],e[3*t+3][3*n])):(e[3*t+1][3*n]=a(e[3*t][3*n],e[3*t+3][3*n]),e[3*t+2][3*n]=a(e[3*t+3][3*n],e[3*t][3*n]));break;case&quot;L&quot;:0===i?(e[3*t][3*n+3]=u[0],e[3*t][3*n+1]=a(e[3*t][3*n],e[3*t][3*n+3]),e[3*t][3*n+2]=a(e[3*t][3*n+3],e[3*t][3*n])):1===i?(e[3*t+3][3*n+3]=u[0],e[3*t+1][3*n+3]=a(e[3*t][3*n+3],e[3*t+3][3*n+3]),e[3*t+2][3*n+3]=a(e[3*t+3][3*n+3],e[3*t][3*n+3])):2===i?(0===n&amp;&amp;(e[3*t+3][3*n+0]=u[0]),e[3*t+3][3*n+1]=a(e[3*t+3][3*n],e[3*t+3][3*n+3]),e[3*t+3][3*n+2]=a(e[3*t+3][3*n+3],e[3*t+3][3*n])):(e[3*t+1][3*n]=a(e[3*t][3*n],e[3*t+3][3*n]),e[3*t+2][3*n]=a(e[3*t+3][3*n],e[3*t][3*n]));break;case&quot;c&quot;:0===i?(e[3*t][3*n+1]=u[0].add(e[3*t][3*n]),e[3*t][3*n+2]=u[1].add(e[3*t][3*n]),e[3*t][3*n+3]=u[2].add(e[3*t][3*n])):1===i?(e[3*t+1][3*n+3]=u[0].add(e[3*t][3*n+3]),e[3*t+2][3*n+3]=u[1].add(e[3*t][3*n+3]),e[3*t+3][3*n+3]=u[2].add(e[3*t][3*n+3])):2===i?(e[3*t+3][3*n+2]=u[0].add(e[3*t+3][3*n+3]),e[3*t+3][3*n+1]=u[1].add(e[3*t+3][3*n+3]),0===n&amp;&amp;(e[3*t+3][3*n+0]=u[2].add(e[3*t+3][3*n+3]))):(e[3*t+2][3*n]=u[0].add(e[3*t+3][3*n]),e[3*t+1][3*n]=u[1].add(e[3*t+3][3*n]));break;case&quot;C&quot;:0===i?(e[3*t][3*n+1]=u[0],e[3*t][3*n+2]=u[1],e[3*t][3*n+3]=u[2]):1===i?(e[3*t+1][3*n+3]=u[0],e[3*t+2][3*n+3]=u[1],e[3*t+3][3*n+3]=u[2]):2===i?(e[3*t+3][3*n+2]=u[0],e[3*t+3][3*n+1]=u[1],0===n&amp;&amp;(e[3*t+3][3*n+0]=u[2])):(e[3*t+2][3*n]=u[0],e[3*t+1][3*n]=u[1]);break;default:console.error(&quot;mesh.js: &quot;+c+&quot; invalid path type.&quot;)}if(0===t&amp;&amp;0===n||r&gt;0){let e=window.getComputedStyle(o[r]).stopColor.match(/^rgb\s*\(\s*(\d+)\s*,\s*(\d+)\s*,\s*(\d+)\s*\)$/i),a=window.getComputedStyle(o[r]).stopOpacity,h=255;a&amp;&amp;(h=Math.floor(255*a)),e&amp;&amp;(0===i?(s[t][n]=[],s[t][n][0]=Math.floor(e[1]),s[t][n][1]=Math.floor(e[2]),s[t][n][2]=Math.floor(e[3]),s[t][n][3]=h):1===i?(s[t][n+1]=[],s[t][n+1][0]=Math.floor(e[1]),s[t][n+1][1]=Math.floor(e[2]),s[t][n+1][2]=Math.floor(e[3]),s[t][n+1][3]=h):2===i?(s[t+1][n+1]=[],s[t+1][n+1][0]=Math.floor(e[1]),s[t+1][n+1][1]=Math.floor(e[2]),s[t+1][n+1][2]=Math.floor(e[3]),s[t+1][n+1][3]=h):3===i&amp;&amp;(s[t+1][n]=[],s[t+1][n][0]=Math.floor(e[1]),s[t+1][n][1]=Math.floor(e[2]),s[t+1][n][2]=Math.floor(e[3]),s[t+1][n][3]=h))}}e[3*t+1][3*n+1]=new x,e[3*t+1][3*n+2]=new x,e[3*t+2][3*n+1]=new x,e[3*t+2][3*n+2]=new x,e[3*t+1][3*n+1].x=(-4*e[3*t][3*n].x+6*(e[3*t][3*n+1].x+e[3*t+1][3*n].x)+-2*(e[3*t][3*n+3].x+e[3*t+3][3*n].x)+3*(e[3*t+3][3*n+1].x+e[3*t+1][3*n+3].x)+-1*e[3*t+3][3*n+3].x)/9,e[3*t+1][3*n+2].x=(-4*e[3*t][3*n+3].x+6*(e[3*t][3*n+2].x+e[3*t+1][3*n+3].x)+-2*(e[3*t][3*n].x+e[3*t+3][3*n+3].x)+3*(e[3*t+3][3*n+2].x+e[3*t+1][3*n].x)+-1*e[3*t+3][3*n].x)/9,e[3*t+2][3*n+1].x=(-4*e[3*t+3][3*n].x+6*(e[3*t+3][3*n+1].x+e[3*t+2][3*n].x)+-2*(e[3*t+3][3*n+3].x+e[3*t][3*n].x)+3*(e[3*t][3*n+1].x+e[3*t+2][3*n+3].x)+-1*e[3*t][3*n+3].x)/9,e[3*t+2][3*n+2].x=(-4*e[3*t+3][3*n+3].x+6*(e[3*t+3][3*n+2].x+e[3*t+2][3*n+3].x)+-2*(e[3*t+3][3*n].x+e[3*t][3*n+3].x)+3*(e[3*t][3*n+2].x+e[3*t+2][3*n].x)+-1*e[3*t][3*n].x)/9,e[3*t+1][3*n+1].y=(-4*e[3*t][3*n].y+6*(e[3*t][3*n+1].y+e[3*t+1][3*n].y)+-2*(e[3*t][3*n+3].y+e[3*t+3][3*n].y)+3*(e[3*t+3][3*n+1].y+e[3*t+1][3*n+3].y)+-1*e[3*t+3][3*n+3].y)/9,e[3*t+1][3*n+2].y=(-4*e[3*t][3*n+3].y+6*(e[3*t][3*n+2].y+e[3*t+1][3*n+3].y)+-2*(e[3*t][3*n].y+e[3*t+3][3*n+3].y)+3*(e[3*t+3][3*n+2].y+e[3*t+1][3*n].y)+-1*e[3*t+3][3*n].y)/9,e[3*t+2][3*n+1].y=(-4*e[3*t+3][3*n].y+6*(e[3*t+3][3*n+1].y+e[3*t+2][3*n].y)+-2*(e[3*t+3][3*n+3].y+e[3*t][3*n].y)+3*(e[3*t][3*n+1].y+e[3*t+2][3*n+3].y)+-1*e[3*t][3*n+3].y)/9,e[3*t+2][3*n+2].y=(-4*e[3*t+3][3*n+3].y+6*(e[3*t+3][3*n+2].y+e[3*t+2][3*n+3].y)+-2*(e[3*t+3][3*n].y+e[3*t][3*n+3].y)+3*(e[3*t][3*n+2].y+e[3*t+2][3*n].y)+-1*e[3*t][3*n].y)/9}}this.nodes=e,this.colors=s}paintMesh(t,e){let s=(this.nodes.length-1)/3,r=(this.nodes[0].length-1)/3;if(&quot;bilinear&quot;===this.type||s&lt;2||r&lt;2){let n;for(let o=0;o&lt;s;++o)for(let s=0;s&lt;r;++s){let r=[];for(let t=3*o,e=3*o+4;t&lt;e;++t)r.push(this.nodes[t].slice(3*s,3*s+4));let i=[];i.push(this.colors[o].slice(s,s+2)),i.push(this.colors[o+1].slice(s,s+2)),(n=new m(r,i)).paint(t,e)}}else{let n,o,a,h,l,d,u;const x=s,g=r;s++,r++;let w=new Array(s);for(let t=0;t&lt;s;++t){w[t]=new Array(r);for(let e=0;e&lt;r;++e)w[t][e]=[],w[t][e][0]=this.nodes[3*t][3*e],w[t][e][1]=this.colors[t][e]}for(let t=0;t&lt;s;++t)for(let e=0;e&lt;r;++e)0!==t&amp;&amp;t!==x&amp;&amp;(n=i(w[t-1][e][0],w[t][e][0]),o=i(w[t+1][e][0],w[t][e][0]),w[t][e][2]=c(w[t-1][e][1],w[t][e][1],w[t+1][e][1],n,o)),0!==e&amp;&amp;e!==g&amp;&amp;(n=i(w[t][e-1][0],w[t][e][0]),o=i(w[t][e+1][0],w[t][e][0]),w[t][e][3]=c(w[t][e-1][1],w[t][e][1],w[t][e+1][1],n,o));for(let t=0;t&lt;r;++t){w[0][t][2]=[],w[x][t][2]=[];for(let e=0;e&lt;4;++e)n=i(w[1][t][0],w[0][t][0]),o=i(w[x][t][0],w[x-1][t][0]),w[0][t][2][e]=n&gt;0?2*(w[1][t][1][e]-w[0][t][1][e])/n-w[1][t][2][e]:0,w[x][t][2][e]=o&gt;0?2*(w[x][t][1][e]-w[x-1][t][1][e])/o-w[x-1][t][2][e]:0}for(let t=0;t&lt;s;++t){w[t][0][3]=[],w[t][g][3]=[];for(let e=0;e&lt;4;++e)n=i(w[t][1][0],w[t][0][0]),o=i(w[t][g][0],w[t][g-1][0]),w[t][0][3][e]=n&gt;0?2*(w[t][1][1][e]-w[t][0][1][e])/n-w[t][1][3][e]:0,w[t][g][3][e]=o&gt;0?2*(w[t][g][1][e]-w[t][g-1][1][e])/o-w[t][g-1][3][e]:0}for(let s=0;s&lt;x;++s)for(let r=0;r&lt;g;++r){let n=i(w[s][r][0],w[s+1][r][0]),o=i(w[s][r+1][0],w[s+1][r+1][0]),c=i(w[s][r][0],w[s][r+1][0]),x=i(w[s+1][r][0],w[s+1][r+1][0]),g=[[],[],[],[]];for(let t=0;t&lt;4;++t){(d=[])[0]=w[s][r][1][t],d[1]=w[s+1][r][1][t],d[2]=w[s][r+1][1][t],d[3]=w[s+1][r+1][1][t],d[4]=w[s][r][2][t]*n,d[5]=w[s+1][r][2][t]*n,d[6]=w[s][r+1][2][t]*o,d[7]=w[s+1][r+1][2][t]*o,d[8]=w[s][r][3][t]*c,d[9]=w[s+1][r][3][t]*x,d[10]=w[s][r+1][3][t]*c,d[11]=w[s+1][r+1][3][t]*x,d[12]=0,d[13]=0,d[14]=0,d[15]=0,u=f(d);for(let e=0;e&lt;9;++e){g[t][e]=[];for(let s=0;s&lt;9;++s)g[t][e][s]=p(u,e/8,s/8),g[t][e][s]&gt;255?g[t][e][s]=255:g[t][e][s]&lt;0&amp;&amp;(g[t][e][s]=0)}}h=[];for(let t=3*s,e=3*s+4;t&lt;e;++t)h.push(this.nodes[t].slice(3*r,3*r+4));l=y(h);for(let s=0;s&lt;8;++s)for(let r=0;r&lt;8;++r)(a=new m(l[s][r],[[[g[0][s][r],g[1][s][r],g[2][s][r],g[3][s][r]],[g[0][s][r+1],g[1][s][r+1],g[2][s][r+1],g[3][s][r+1]]],[[g[0][s+1][r],g[1][s+1][r],g[2][s+1][r],g[3][s+1][r]],[g[0][s+1][r+1],g[1][s+1][r+1],g[2][s+1][r+1],g[3][s+1][r+1]]]])).paint(t,e)}}}transform(t){if(t instanceof x)for(let e=0,s=this.nodes.length;e&lt;s;++e)for(let s=0,r=this.nodes[0].length;s&lt;r;++s)this.nodes[e][s]=this.nodes[e][s].add(t);else if(t instanceof g)for(let e=0,s=this.nodes.length;e&lt;s;++e)for(let s=0,r=this.nodes[0].length;s&lt;r;++s)this.nodes[e][s]=this.nodes[e][s].transform(t)}scale(t){for(let e=0,s=this.nodes.length;e&lt;s;++e)for(let s=0,r=this.nodes[0].length;s&lt;r;++s)this.nodes[e][s]=this.nodes[e][s].scale(t)}}document.querySelectorAll(&quot;rect,circle,ellipse,path,text&quot;).forEach((r,n)=&gt;{let o=r.getAttribute(&quot;id&quot;);o||(o=&quot;patchjs_shape&quot;+n,r.setAttribute(&quot;id&quot;,o));const i=r.style.fill.match(/^url\(\s*&quot;?\s*#([^\s&quot;]+)&quot;?\s*\)/),a=r.style.stroke.match(/^url\(\s*&quot;?\s*#([^\s&quot;]+)&quot;?\s*\)/);if(i&amp;&amp;i[1]){const a=document.getElementById(i[1]);if(a&amp;&amp;&quot;meshgradient&quot;===a.nodeName){const i=r.getBBox();let l=document.createElementNS(s,&quot;canvas&quot;);d(l,{width:i.width,height:i.height});const c=l.getContext(&quot;2d&quot;);let u=c.createImageData(i.width,i.height);const f=new b(a);&quot;objectBoundingBox&quot;===a.getAttribute(&quot;gradientUnits&quot;)&amp;&amp;f.scale(new x(i.width,i.height));const p=a.getAttribute(&quot;gradientTransform&quot;);null!=p&amp;&amp;f.transform(h(p)),&quot;userSpaceOnUse&quot;===a.getAttribute(&quot;gradientUnits&quot;)&amp;&amp;f.transform(new x(-i.x,-i.y)),f.paintMesh(u.data,l.width),c.putImageData(u,0,0);const y=document.createElementNS(t,&quot;image&quot;);d(y,{width:i.width,height:i.height,x:i.x,y:i.y});let g=l.toDataURL();y.setAttributeNS(e,&quot;xlink:href&quot;,g),r.parentNode.insertBefore(y,r),r.style.fill=&quot;none&quot;;const w=document.createElementNS(t,&quot;use&quot;);w.setAttributeNS(e,&quot;xlink:href&quot;,&quot;#&quot;+o);const m=&quot;patchjs_clip&quot;+n,M=document.createElementNS(t,&quot;clipPath&quot;);M.setAttribute(&quot;id&quot;,m),M.appendChild(w),r.parentElement.insertBefore(M,r),y.setAttribute(&quot;clip-path&quot;,&quot;url(#&quot;+m+&quot;)&quot;),u=null,l=null,g=null}}if(a&amp;&amp;a[1]){const o=document.getElementById(a[1]);if(o&amp;&amp;&quot;meshgradient&quot;===o.nodeName){const i=parseFloat(r.style.strokeWidth.slice(0,-2))*(parseFloat(r.style.strokeMiterlimit)||parseFloat(r.getAttribute(&quot;stroke-miterlimit&quot;))||1),a=r.getBBox(),l=Math.trunc(a.width+i),c=Math.trunc(a.height+i),u=Math.trunc(a.x-i/2),f=Math.trunc(a.y-i/2);let p=document.createElementNS(s,&quot;canvas&quot;);d(p,{width:l,height:c});const y=p.getContext(&quot;2d&quot;);let g=y.createImageData(l,c);const w=new b(o);&quot;objectBoundingBox&quot;===o.getAttribute(&quot;gradientUnits&quot;)&amp;&amp;w.scale(new x(l,c));const m=o.getAttribute(&quot;gradientTransform&quot;);null!=m&amp;&amp;w.transform(h(m)),&quot;userSpaceOnUse&quot;===o.getAttribute(&quot;gradientUnits&quot;)&amp;&amp;w.transform(new x(-u,-f)),w.paintMesh(g.data,p.width),y.putImageData(g,0,0);const M=document.createElementNS(t,&quot;image&quot;);d(M,{width:l,height:c,x:0,y:0});let S=p.toDataURL();M.setAttributeNS(e,&quot;xlink:href&quot;,S);const k=&quot;pattern_clip&quot;+n,A=document.createElementNS(t,&quot;pattern&quot;);d(A,{id:k,patternUnits:&quot;userSpaceOnUse&quot;,width:l,height:c,x:u,y:f}),A.appendChild(M),o.parentNode.appendChild(A),r.style.stroke=&quot;url(#&quot;+k+&quot;)&quot;,g=null,p=null,S=null}}})}();
</script>
  <g
     transform="matrix(0.1,0,0,0.1,52.45055,50.010989)"
     id="g6788" />
  <g
     transform="matrix(0.1,0,0,0.1,42.396377,60.594329)"
     id="g6935" />
  <g
     transform="matrix(0.3,0,0,0.3,71.500562,50.010989)"
     id="g7530">
    <svg
       version="1.1"
       id="svg7528"
       width="100%"
       height="100%">
      <path
         d="m -46.168891,39.903952 c 0.706666,0 1.2,0.3 1.48,0.9 0.106666,0.226667 0.16,0.473334 0.16,0.74 0,0.28 -0.133333,0.76 -0.4,1.44 -0.68,1.76 -1.02,3.066667 -1.02,3.92 0,1.08 0.413333,1.620001 1.24,1.620001 0.773333,0 1.446666,-0.413334 2.02,-1.24 0.133333,-0.200001 0.213333,-0.353334 0.24,-0.460001 l 0.9,-3.6 c 0.09333,-0.439999 0.226667,-0.973333 0.4,-1.6 0.133333,-0.573333 0.226666,-0.933333 0.28,-1.08 0.173333,-0.279999 0.406667,-0.42 0.700001,-0.42 0.333332,0.06667 0.526665,0.246667 0.58,0.54 0,0.120001 -0.02667,0.273335 -0.08,0.46 l -1.92,7.640001 c -0.32,1.306665 -1.033334,2.366664 -2.14,3.18 -0.813334,0.599998 -1.66,0.899999 -2.54,0.899999 -0.893334,0 -1.526667,-0.306667 -1.9,-0.92 -0.146667,-0.253334 -0.22,-0.526666 -0.22,-0.819999 0,-0.680001 0.273333,-1.100001 0.82,-1.260001 0.106666,-0.02667 0.206666,-0.04 0.3,-0.04 0.426667,0 0.666667,0.186666 0.72,0.560001 0.01333,0.04 0.02,0.08667 0.02,0.139999 0,0.306666 -0.133334,0.58 -0.4,0.82 -0.186667,0.16 -0.473334,0.24 -0.86,0.24 0.24,0.559999 0.746666,0.84 1.52,0.84 0.826666,0 1.56,-0.42 2.2,-1.26 0.519999,-0.693333 0.933333,-1.633334 1.24,-2.82 0.01333,-0.05333 0.03333,-0.139999 0.06,-0.26 -0.6,0.6 -1.273334,0.899999 -2.02,0.899999 -1.066667,0 -1.793334,-0.393333 -2.18,-1.179998 -0.173334,-0.346668 -0.26,-0.746668 -0.26,-1.200001 0,-0.733333 0.353333,-2.046667 1.06,-3.94 0.02667,-0.08 0.06,-0.166666 0.1,-0.26 0.226667,-0.613333 0.34,-1.08 0.34,-1.4 0,-0.426666 -0.166667,-0.64 -0.5,-0.64 -0.733333,0 -1.333333,0.606667 -1.8,1.82 v 0.02 c -0.08,0.2 -0.153333,0.413334 -0.22,0.64 -0.146667,0.226667 -0.253334,0.346666 -0.32,0.360001 -0.16,0 -0.24,-0.06667 -0.24,-0.200001 0,-0.24 0.14,-0.66 0.42,-1.26 0.586666,-1.213334 1.326666,-1.82 2.219999,-1.82 z"
         fill="#000000"
         id="path7514"
         style="fill:#971f47;fill-opacity:1" />
      <path
         d="m -32.22768,45.283952 h 11.940001 c 0.426666,0 0.653333,0.133333 0.68,0.400001 0,0.266666 -0.220001,0.399999 -0.66,0.399999 h -11.98 c -0.426668,0 -0.646667,-0.133333 -0.659999,-0.399999 0,-0.266668 0.226665,-0.400001 0.679998,-0.400001 z m -0.02,-3.88 h 11.98 c 0.426666,0 0.646666,0.133333 0.66,0.4 0,0.266667 -0.226668,0.4 -0.68,0.4 h -11.94 c -0.426666,0 -0.653334,-0.133333 -0.679998,-0.4 0,-0.266667 0.219999,-0.4 0.659998,-0.4 z"
         fill="#000000"
         id="path7516"
         style="fill:#971f47;fill-opacity:1" />
      <path
         d="m -7.2764869,40.343952 c -0.6933329,0 -1.3533329,0.453333 -1.9799999,1.36 -0.119999,0.173333 -0.2333329,0.360001 -0.3399999,0.560001 -0.386665,0.773333 -0.7133333,1.873332 -0.9799993,3.299999 -0.08,0.453335 -0.119999,0.813333 -0.119999,1.08 0,0.906667 0.253334,1.493333 0.7599983,1.76 0.146668,0.08 0.32,0.120001 0.52,0.120001 0.7466659,0 1.4999999,-0.473334 2.2599988,-1.42 0.186668,-0.213333 0.313335,-0.433335 0.380001,-0.66 v -0.02 c 0.01333,-0.02667 0.02,-0.04667 0.02,-0.06 l 0.9999999,-3.92 c 0.04,-0.200001 0.06,-0.313334 0.06,-0.34 0,-0.280001 -0.120003,-0.620001 -0.3600009,-1.020001 -0.293335,-0.493333 -0.700001,-0.74 -1.220001,-0.74 z m -0.02,-0.44 c 0.813336,0 1.4266669,0.426667 1.8400009,1.280001 0.06667,-0.453333 0.273334,-0.733334 0.620002,-0.840001 0.06667,-0.02667 0.14,-0.04 0.219998,-0.04 0.346668,0 0.5400009,0.180001 0.5800019,0.54 -4e-6,0.08 -0.04667,0.306668 -0.1400039,0.680001 l -0.719997,2.799999 c -0.200001,0.84 -0.346668,1.440001 -0.439999,1.800001 -0.173336,0.693333 -0.260002,1.186667 -0.260002,1.48 0,0.613332 0.200001,0.92 0.599999,0.92 0.506668,0 0.9333339,-0.533335 1.2800019,-1.600001 0.06667,-0.226667 0.146664,-0.52 0.239998,-0.880001 0.106667,-0.226665 0.200001,-0.346665 0.280003,-0.359998 0.159996,0 0.239998,0.06667 0.239998,0.199999 0,0.2 -0.119999,0.666667 -0.360001,1.400001 -0.08,0.226665 -0.16,0.419998 -0.239998,0.58 -0.373337,0.733332 -0.8666689,1.099998 -1.4799989,1.099998 -0.74667,0 -1.2866669,-0.319999 -1.6200029,-0.959999 -0.09333,-0.16 -0.16,-0.34 -0.199997,-0.540001 -0.8399999,1 -1.7066689,1.5 -2.6000018,1.5 -1.0000003,0 -1.7399983,-0.453333 -2.2199983,-1.359998 -0.293335,-0.533333 -0.440002,-1.146668 -0.440002,-1.84 0,-1.440001 0.5,-2.773334 1.5,-4 0.9333343,-1.120001 1.9466662,-1.733334 3.0400011,-1.840001 0.09333,-0.01333 0.186664,-0.02 0.279998,-0.02 z"
         fill="#000000"
         id="path7518"
         style="fill:#971f47;fill-opacity:1" />
      <path
         d="m 4.1653154,30.616112 c 0.485332,10e-7 0.8399959,0.158668 1.0639989,0.476 0.102665,0.140001 0.153999,0.303334 0.153999,0.49 0,0.373334 -0.158668,0.63 -0.476001,0.770001 -0.09333,0.04667 -0.191334,0.07 -0.2939989,0.07 -0.270668,0 -0.438667,-0.116667 -0.504002,-0.350001 -0.0093,-0.04667 -0.014,-0.09333 -0.014,-0.139999 0,-0.289334 0.130669,-0.504 0.392002,-0.644 0.102665,-0.06533 0.2239989,-0.102667 0.3639989,-0.112001 -0.1773339,-0.168 -0.4059979,-0.252 -0.6859969,-0.252 -0.289337,0 -0.508667,0.158667 -0.658001,0.476 -0.06533,0.130667 -0.177334,0.616 -0.336002,1.456001 l -0.2939989,1.595999 h 1.1619989 c 0.233333,10e-7 0.359333,0.05133 0.378002,0.154001 0,0.168 -0.07467,0.261333 -0.223999,0.28 h -0.014 -0.182003 -1.2039989 l -0.84,4.438 c -0.084,0.578667 -0.251999,1.241333 -0.504002,1.988 -0.09333,0.270666 -0.186664,0.499333 -0.2799979,0.686 -0.32666796,0.690667 -0.73266596,1.12 -1.21799896,1.288 -0.121334,0.04667 -0.242668,0.07 -0.364002,0.07 -0.46666686,0 -0.81199984,-0.158667 -1.03599884,-0.476 -0.102665,-0.14 -0.154,-0.303333 -0.154,-0.49 0,-0.373334 0.158665,-0.63 0.475998,-0.77 0.09333,-0.04667 0.19133398,-0.07 0.29400298,-0.07 0.27066386,0 0.43866686,0.116667 0.50399786,0.349999 0.0093,0.04667 0.014,0.09334 0.014,0.140001 0,0.317333 -0.139999,0.541333 -0.4199979,0.672 -0.10266796,0.04667 -0.21933296,0.07467 -0.35000194,0.084 0.17733398,0.168001 0.40133694,0.252 0.67200084,0.252 0.410667,0 0.732666,-0.457333 0.966,-1.372 0.04667,-0.214667 0.102668,-0.494667 0.168003,-0.84 l 0.084,-0.42 1.04999886,-5.53 H 0.93131664 c -0.233334,0 -0.359333,-0.03733 -0.378002,-0.112 h -0.014 v -0.056 c 0,-0.158667 0.07933,-0.247334 0.238002,-0.266001 h 0.182 0.96599886 c 0.223999,-1.166666 0.377999,-1.899333 0.462002,-2.198 0.279999,-0.933332 0.7746659,-1.469999 1.4839969,-1.61 0.102665,-0.01867 0.200669,-0.028 0.294003,-0.028 z"
         fill="#000000"
         id="path7520"
         style="fill:#971f47;fill-opacity:1" />
      <path
         d="m 9.0035141,29.986112 c 0.09333,0 0.14,0.04667 0.14,0.14 0,0.04667 -0.06067,0.126 -0.181999,0.238 -1.5026669,1.530667 -2.2540019,3.738001 -2.2540019,6.622001 0,2.874666 0.73267,5.058666 2.1980019,6.552 0.158665,0.158667 0.237999,0.261333 0.237999,0.308 0,0.09333 -0.04667,0.14 -0.14,0.14 -0.111999,0 -0.359333,-0.191334 -0.742,-0.574 -0.5786669,-0.578666 -1.0593339,-1.264667 -1.4419979,-2.058 -0.6160009,-1.269333 -0.9239989,-2.725333 -0.9239989,-4.368 0,-1.577334 0.293998,-3.000667 0.8819999,-4.270001 0.485332,-1.035999 1.101329,-1.866667 1.8479989,-2.492 0.195999,-0.158665 0.321999,-0.238 0.377998,-0.238 z"
         fill="#000000"
         id="path7522"
         style="fill:#971f47;fill-opacity:1" />
      <path
         d="m 13.047979,34.298112 c 0.718666,0 1.222663,0.354667 1.511997,1.064001 0.298668,-0.578667 0.695335,-0.924001 1.190002,-1.036001 0.09333,-0.01867 0.186669,-0.028 0.279999,-0.028 0.550667,0 0.938004,0.154 1.162003,0.462 0.09333,0.130667 0.139999,0.284667 0.139999,0.462 0,0.382667 -0.172668,0.639334 -0.518005,0.77 -0.084,0.028 -0.16333,0.042 -0.237999,0.042 -0.28933,0 -0.461998,-0.125999 -0.517998,-0.377999 -0.0093,-0.03733 -0.014,-0.07467 -0.014,-0.112001 0,-0.28 0.13533,-0.499333 0.405998,-0.658 0.084,-0.04667 0.172669,-0.07933 0.265999,-0.098 -0.195999,-0.121333 -0.429329,-0.182 -0.699997,-0.182 -0.634666,0 -1.082664,0.494667 -1.344002,1.484 -0.01866,0.056 -0.03267,0.112 -0.042,0.168 l -0.475997,1.918 c -0.158669,0.634668 -0.237999,1.045334 -0.237999,1.232001 0,0.485333 0.172664,0.779333 0.517997,0.882 0.07467,0.028 0.158669,0.042 0.251999,0.042 0.466667,0 0.891335,-0.233333 1.274002,-0.7 0.251999,-0.298667 0.447998,-0.676666 0.587998,-1.134 0.028,-0.102667 0.08867,-0.154 0.181999,-0.154 0.111999,0 0.167999,0.04667 0.167999,0.14 0,0.233334 -0.144661,0.569333 -0.433998,1.007999 -0.503998,0.765335 -1.105995,1.148001 -1.806,1.148001 -0.634666,0 -1.096664,-0.266001 -1.385997,-0.798 -0.056,-0.084 -0.098,-0.172667 -0.126,-0.266 -0.224003,0.448 -0.532001,0.760667 -0.924,0.938 -0.177333,0.084 -0.359336,0.126 -0.546001,0.126 -0.560001,0 -0.952,-0.163334 -1.175999,-0.490001 -0.09333,-0.121333 -0.140003,-0.265999 -0.140003,-0.434 0,-0.345333 0.149334,-0.587999 0.448002,-0.727999 0.102665,-0.056 0.209999,-0.084 0.321998,-0.084 0.280003,0 0.448002,0.116667 0.504002,0.35 0.0093,0.04667 0.014,0.09333 0.014,0.14 0,0.317333 -0.158668,0.550667 -0.476002,0.7 -0.056,0.028 -0.116665,0.04667 -0.181999,0.056 0.195999,0.121334 0.429333,0.182001 0.700001,0.182001 0.494667,0 0.886665,-0.331334 1.175999,-0.994 0.056,-0.14 0.107334,-0.294 0.153999,-0.462 0.504001,-1.904 0.756,-3.014667 0.756,-3.332001 -0.056,-0.578666 -0.307998,-0.891333 -0.756,-0.938 -0.485333,0 -0.928665,0.247334 -1.329998,0.742001 v 0.014 c 0,0.0093 -0.0047,0.014 -0.014,0.014 -0.139999,0.186667 -0.265999,0.401333 -0.377998,0.644 -0.04667,0.112 -0.08867,0.224 -0.126004,0.336 l -0.028,0.084 c -0.01867,0.102666 -0.07933,0.154 -0.181999,0.154 -0.111999,0 -0.167999,-0.04667 -0.167999,-0.14 0,-0.233334 0.149334,-0.569334 0.447998,-1.008 0.504002,-0.765334 1.106003,-1.148001 1.806004,-1.148002 z"
         fill="#000000"
         id="path7524"
         style="fill:#971f47;fill-opacity:1" />
      <path
         d="m 18.893373,29.986112 c 0.111999,0 0.359329,0.191334 0.741996,0.574 0.578667,0.578666 1.059334,1.264667 1.442002,2.058 0.615997,1.269334 0.923996,2.725334 0.923996,4.368001 0,1.577333 -0.293999,3.000666 -0.881996,4.27 -0.485337,1.036 -1.101334,1.866667 -1.848,2.492 -0.195999,0.158667 -0.321999,0.238 -0.377998,0.238 -0.09334,0 -0.140007,-0.04667 -0.140007,-0.14 0,-0.04667 0.06067,-0.126 0.182007,-0.238 1.502662,-1.530667 2.253997,-3.738 2.253997,-6.622 0,-2.846667 -0.700004,-5.002667 -2.099998,-6.468001 l -0.07,-0.07 c -0.177337,-0.167999 -0.266006,-0.275333 -0.266006,-0.322 0,-0.09333 0.04667,-0.14 0.140007,-0.14 z"
         fill="#000000"
         id="path7526"
         style="fill:#971f47;fill-opacity:1" />
    </svg>
  </g>
  <g
     transform="matrix(0.3,0,0,0.3,44.223504,83.65949)"
     id="g8966">
    <svg
       version="1.1"
       id="svg8964"
       width="100%"
       height="100%"
       inkscape:transform-center-y="-0.65054945">
      <path
         d="m 5.6399999,10.35784 c -0.6933337,0 -1.3533335,0.453332 -1.9800001,1.359999 C 3.54,11.891172 3.4266667,12.07784 3.3199999,12.27784 c -0.3866665,0.773333 -0.7133333,1.873333 -0.98,3.299999 -0.08,0.453335 -0.1200001,0.813333 -0.1199999,1.08 -2e-7,0.906668 0.2533334,1.493334 0.76,1.76 0.1466663,0.08 0.3199997,0.120001 0.52,0.120001 0.7466664,0 1.4999995,-0.473333 2.2599998,-1.42 0.1866664,-0.213333 0.313333,-0.433335 0.3800001,-0.66 v -0.02 c 0.013333,-0.02667 0.019999,-0.04667 0.02,-0.06 l 1,-3.92 c 0.04,-0.200001 0.06,-0.313334 0.06,-0.34 0,-0.280001 -0.1200004,-0.620001 -0.3600001,-1.020001 -0.2933332,-0.493333 -0.7,-0.739999 -1.2199999,-0.739999 z m -0.02,-0.4400009 c 0.813333,0 1.4266662,0.4266669 1.8400001,1.2800009 0.066666,-0.453333 0.2733326,-0.733334 0.6199999,-0.84 0.066666,-0.02667 0.1399994,-0.04 0.2200003,-0.04 0.3466663,0 0.54,0.18 0.5799999,0.54 -9e-7,0.08 -0.046667,0.306667 -0.1400003,0.68 l -0.7200003,2.799999 c -0.2000003,0.84 -0.3466668,1.440001 -0.4399996,1.800001 -0.1733336,0.693333 -0.2600002,1.186667 -0.2600002,1.48 0,0.613333 0.1999998,0.92 0.5999999,0.92 0.5066667,0 0.9333329,-0.533335 1.2800002,-1.6 0.066667,-0.226668 0.1466665,-0.520001 0.2399998,-0.880002 0.1066656,-0.226665 0.1999998,-0.346665 0.2799997,-0.359998 0.1599999,0 0.2400007,0.06667 0.2400007,0.2 0,0.199999 -0.1199998,0.666667 -0.3600006,1.4 -0.080001,0.226666 -0.1600008,0.419998 -0.2399997,0.58 -0.373334,0.733332 -0.8666668,1.099999 -1.4800001,1.099999 -0.7466669,0 -1.2866668,-0.32 -1.6199998,-0.96 -0.093334,-0.159999 -0.1600004,-0.34 -0.1999999,-0.54 -0.8400006,1 -1.7066669,1.5 -2.5999999,1.5 -1,0 -1.7400002,-0.453333 -2.22,-1.359999 -0.2933334,-0.533333 -0.44000011,-1.146668 -0.44000005,-1.84 -6e-8,-1.440001 0.50000005,-2.773334 1.50000005,-4 0.9333331,-1.120001 1.9466664,-1.733334 3.0399997,-1.8400005 0.093334,-0.013333 0.1866669,-0.02 0.2800002,-0.02 z"
         fill="#000000"
         id="path8948" />
      <path
         d="m 17.0818,0.63000011 c 0.485333,9.6e-7 0.840001,0.15866757 1.064002,0.47599979 0.102664,0.1400004 0.153999,0.3033333 0.153999,0.4899998 0,0.3733339 -0.158667,0.6300001 -0.476,0.7700005 -0.09333,0.046666 -0.191334,0.07 -0.294001,0.07 -0.270668,0 -0.438667,-0.1166668 -0.503999,-0.3500004 -0.0093,-0.046666 -0.014,-0.093332 -0.014,-0.1399995 -2e-6,-0.2893332 0.130666,-0.5039996 0.392,-0.644 C 17.506466,1.2366667 17.6278,1.1993332 17.767799,1.1899995 17.590467,1.0219994 17.361801,0.93799973 17.0818,0.93799973 c -0.289333,0 -0.508667,0.15866657 -0.657999,0.47599967 -0.06533,0.1306669 -0.177333,0.6160003 -0.336,1.4560005 L 15.7938,4.4659996 h 1.162001 c 0.233332,5e-7 0.359333,0.051334 0.378,0.1540003 0,0.1680002 -0.07467,0.2613335 -0.224001,0.2799997 h -0.014 -0.182001 -1.203998 l -0.84,4.4380007 c -0.084,0.5786667 -0.252001,1.2413327 -0.504,1.9879997 -0.09333,0.270666 -0.186668,0.499334 -0.280001,0.686 -0.326666,0.690667 -0.732666,1.12 -1.218,1.288 -0.121333,0.04667 -0.242666,0.07 -0.364,0.07 -0.466667,0 -0.812,-0.158667 -1.036,-0.476 -0.102667,-0.14 -0.154,-0.303333 -0.154,-0.49 0,-0.373334 0.158667,-0.63 0.476001,-0.77 0.09333,-0.04667 0.191332,-0.07 0.293999,-0.07 0.270667,0 0.438667,0.116667 0.504,0.35 0.0093,0.04667 0.014,0.09333 0.014,0.14 0,0.317333 -0.14,0.541333 -0.42,0.672 -0.102666,0.04667 -0.219333,0.07467 -0.35,0.084 0.177333,0.168001 0.401333,0.252 0.672,0.252 0.410667,0 0.732667,-0.457333 0.966,-1.371999 0.04667,-0.214668 0.102667,-0.494668 0.168,-0.840001 l 0.084,-0.42 1.050001,-5.5300004 H 13.8478 c -0.233333,0 -0.359333,-0.037333 -0.378,-0.112 h -0.014 v -0.056 c 0,-0.1586662 0.07933,-0.2473331 0.238,-0.2660003 h 0.182 0.966001 c 0.223999,-1.1666665 0.377999,-1.899333 0.462,-2.198 0.279999,-0.9333324 0.774665,-1.46999926 1.483999,-1.60999967 0.102667,-0.0186662 0.200666,-0.0279989 0.294,-0.0279995 z"
         fill="#000000"
         id="path8950" />
      <path
         d="m 21.920004,0 c 0.09333,0 0.140001,0.0466671 0.140001,0.13999945 0,0.046667 -0.06067,0.12600034 -0.182001,0.23799986 C 20.375338,1.9086666 19.624004,4.1160002 19.624004,7 c 0,2.8746662 0.732666,5.058666 2.198,6.552 0.158667,0.158667 0.238001,0.261334 0.238001,0.308001 0,0.09333 -0.04667,0.139999 -0.140001,0.139999 -0.112,0 -0.359333,-0.191334 -0.741999,-0.573999 -0.578666,-0.578667 -1.059334,-1.264668 -1.442001,-2.058001 -0.615999,-1.269333 -0.924,-2.7253332 -0.924,-4.368 0,-1.5773335 0.294001,-3.0006666 0.882,-4.2700005 0.485334,-1.0359993 1.101334,-1.86666675 1.848,-2.49199964 C 21.738005,0.07933426 21.864004,0 21.920004,0 Z"
         fill="#000000"
         id="path8952" />
      <path
         d="m 25.964464,4.3119998 c 0.718666,0 1.222666,0.3546667 1.511999,1.0640001 0.298668,-0.5786667 0.695336,-0.9240002 1.190001,-1.0360002 0.09333,-0.018667 0.186666,-0.028 0.280001,-0.028 0.550666,0 0.937999,0.1539998 1.162,0.4619999 0.09333,0.1306672 0.14,0.284667 0.14,0.4620004 0,0.3826665 -0.172667,0.6393332 -0.518,0.7699999 -0.084,0.028 -0.163334,0.042 -0.238001,0.042 -0.289333,0 -0.462,-0.126 -0.518,-0.3779998 -0.0093,-0.037333 -0.014,-0.074667 -0.014,-0.1120005 0,-0.2799997 0.135334,-0.4993329 0.406001,-0.658 0.084,-0.046666 0.172666,-0.079333 0.266,-0.098 -0.196001,-0.1213331 -0.429334,-0.1820001 -0.7,-0.1820001 -0.634667,0 -1.082669,0.494667 -1.344,1.4840002 -0.01867,0.056 -0.03267,0.1119995 -0.042,0.1679997 l -0.476,1.9179998 c -0.158668,0.6346674 -0.238001,1.0453338 -0.238001,1.2320003 0,0.4853335 0.172667,0.7793335 0.518,0.8820005 0.07467,0.028 0.158666,0.042 0.252001,0.042 0.466665,0 0.891332,-0.233333 1.274,-0.7000005 0.251999,-0.2986669 0.448,-0.6766663 0.587999,-1.1339998 0.028,-0.1026669 0.08867,-0.1540003 0.182001,-0.1540003 0.112,0 0.168,0.046667 0.168,0.1400003 0,0.2333336 -0.144667,0.5693331 -0.434,1.0079995 -0.504,0.7653348 -1.106001,1.1480008 -1.806,1.1480008 -0.634669,0 -1.096667,-0.266 -1.386,-0.7980005 -0.056,-0.084 -0.098,-0.1726665 -0.126001,-0.2659997 -0.223999,0.4480002 -0.532,0.7606672 -0.924,0.9380002 -0.177332,0.084 -0.359333,0.126 -0.546,0.126 -0.559999,0 -0.951999,-0.163334 -1.176,-0.49 -0.09333,-0.121334 -0.14,-0.2660006 -0.14,-0.4340009 0,-0.3453331 0.149334,-0.5879993 0.448,-0.7279996 0.102667,-0.056 0.21,-0.084 0.322001,-0.084 0.279999,0 0.448,0.1166668 0.504,0.3499994 0.0093,0.046667 0.014,0.093334 0.014,0.1400004 0,0.3173332 -0.158667,0.5506668 -0.476,0.6999997 -0.056,0.028 -0.116667,0.04667 -0.182001,0.056 0.196001,0.121334 0.429334,0.182 0.7,0.182 0.494667,0 0.886668,-0.331333 1.176001,-0.9939995 0.056,-0.1400003 0.107332,-0.2939996 0.153999,-0.4619999 0.504,-1.9040002 0.756001,-3.014667 0.756001,-3.3320007 -0.056,-0.5786662 -0.308001,-0.8913326 -0.756001,-0.9379997 -0.485334,0 -0.928667,0.2473335 -1.33,0.7420001 v 0.014 c 0,0.00933 -0.0047,0.014 -0.014,0.014 -0.139999,0.1866669 -0.266,0.4013333 -0.378,0.644 -0.04667,0.112 -0.08867,0.224 -0.125999,0.336 l -0.028,0.084 c -0.01867,0.1026664 -0.07933,0.1539998 -0.182001,0.1539998 -0.112,0 -0.168,-0.046667 -0.168,-0.1399999 0,-0.2333331 0.149334,-0.569333 0.448,-1.0079999 0.504,-0.7653331 1.106001,-1.1480002 1.806,-1.1479995 z"
         fill="#000000"
         id="path8954" />
      <path
         d="m 31.809856,0 c 0.112,0 0.359333,0.19133377 0.742001,0.57399952 0.578667,0.57866658 1.059334,1.26466738 1.442001,2.05800048 0.615998,1.2693333 0.923996,2.7253332 0.924,4.368 -4e-6,1.5773335 -0.294002,3.000667 -0.882,4.27 -0.485336,1.036 -1.101333,1.866667 -1.847999,2.492 C 31.991858,13.920667 31.865856,14 31.809856,14 c -0.09333,0 -0.139999,-0.04667 -0.139999,-0.139999 0,-0.04667 0.06067,-0.126001 0.181999,-0.238001 1.502667,-1.530667 2.254002,-3.7380002 2.254002,-6.622 0,-2.8466663 -0.700001,-5.0026665 -2.100002,-6.46800041 l -0.07,-0.0699997 C 31.758524,0.29400063 31.669857,0.18666649 31.669857,0.13999945 31.669857,0.0466671 31.716524,0 31.809856,0 Z"
         fill="#000000"
         id="path8956" />
      <path
         d="m 44.171886,15.297839 h 11.939999 c 0.426666,0 0.653336,0.133333 0.68,0.400001 0,0.266666 -0.220001,0.399999 -0.659999,0.399999 h -11.98 c -0.426666,0 -0.646667,-0.133333 -0.66,-0.399999 0,-0.266668 0.226669,-0.400001 0.68,-0.400001 z m -0.02,-3.88 h 11.98 c 0.42667,0 0.646667,0.133333 0.659999,0.4 0,0.266667 -0.226665,0.4 -0.68,0.4 H 44.171886 c -0.426666,0 -0.653331,-0.133333 -0.68,-0.4 0,-0.266667 0.220001,-0.4 0.66,-0.4 z"
         fill="#000000"
         id="path8958" />
      <path
         d="m 69.123085,10.35784 c -0.693336,0 -1.35334,0.453332 -1.980003,1.359999 -0.120003,0.173333 -0.23333,0.360001 -0.339997,0.560001 -0.386673,0.773333 -0.713333,1.873333 -0.980003,3.299999 -0.08,0.453335 -0.120003,0.813333 -0.120003,1.08 0,0.906668 0.253334,1.493334 0.760002,1.76 0.146668,0.08 0.32,0.120001 0.519997,0.120001 0.746674,0 1.5,-0.473333 2.260002,-1.42 0.186669,-0.213333 0.313332,-0.433335 0.380005,-0.66 v -0.02 c 0.01333,-0.02667 0.02,-0.04667 0.02,-0.06 l 1,-3.92 c 0.04,-0.200001 0.06,-0.313334 0.06,-0.34 0,-0.280001 -0.119995,-0.620001 -0.36,-1.020001 -0.293328,-0.493333 -0.699997,-0.739999 -1.219994,-0.739999 z m -0.02,-0.4400009 c 0.813331,0 1.426666,0.4266669 1.840004,1.2800009 0.06667,-0.453333 0.27333,-0.733334 0.619995,-0.84 0.06667,-0.02667 0.139999,-0.04 0.220001,-0.04 0.346664,0 0.540001,0.18 0.580002,0.54 0,0.08 -0.04667,0.306667 -0.14,0.68 l -0.720001,2.799999 c -0.200004,0.84 -0.346664,1.440001 -0.440002,1.800001 -0.173332,0.693333 -0.259995,1.186667 -0.259995,1.48 0,0.613333 0.199997,0.92 0.599999,0.92 0.50666,0 0.933327,-0.533335 1.279999,-1.6 0.06667,-0.226668 0.146667,-0.520001 0.239997,-0.880002 0.106667,-0.226665 0.199997,-0.346665 0.279999,-0.359998 0.160004,0 0.240006,0.06667 0.240006,0.2 0,0.199999 -0.120003,0.666667 -0.360001,1.4 -0.08,0.226666 -0.160004,0.419998 -0.240005,0.58 -0.37333,0.733332 -0.866661,1.099999 -1.479996,1.099999 -0.746666,0 -1.286667,-0.32 -1.620003,-0.96 -0.09333,-0.159999 -0.159996,-0.34 -0.199997,-0.54 -0.840004,1 -1.706665,1.5 -2.599998,1.5 -1,0 -1.740006,-0.453333 -2.220002,-1.359999 -0.293334,-0.533333 -0.440002,-1.146668 -0.440002,-1.84 0,-1.440001 0.5,-2.773334 1.5,-4 0.933334,-1.120001 1.946671,-1.733334 3.040001,-1.8400005 0.09333,-0.013333 0.186668,-0.02 0.279999,-0.02 z"
         fill="#000000"
         id="path8960" />
      <path
         d="m 77.540878,1.4839993 c -0.653335,0 -1.129333,0.3266668 -1.428001,0.9800004 -0.102669,0.224 -0.181999,0.4946671 -0.237999,0.8119998 -0.07467,0.5040002 -0.112,1.3626671 -0.112,2.5760003 0,1.4093337 0.05133,2.3940005 0.154,2.954 0.167999,0.8959999 0.578666,1.4420002 1.232002,1.6380002 0.130669,0.03733 0.26133,0.056 0.391998,0.056 0.587998,0 1.040665,-0.284667 1.358002,-0.8540001 C 79.029541,9.3940001 79.122879,9.0953331 79.178879,8.75 c 0.102669,-0.5973339 0.153999,-1.5633335 0.153999,-2.8980002 0,-1.2973333 -0.04667,-2.2073331 -0.139999,-2.7300001 -0.168,-0.8866663 -0.597336,-1.4186668 -1.288002,-1.5959996 -0.121331,-0.028001 -0.242668,-0.042001 -0.363999,-0.042001 z M 77.386879,1.1759996 h 0.167999 c 0.830666,0 1.507332,0.3313342 2.029999,0.9940005 v 0.014 c 0.130669,0.1680002 0.247337,0.3546667 0.349998,0.56 0.373337,0.7933335 0.560006,1.8853335 0.560006,3.276 0,1.3626666 -0.172669,2.4173331 -0.518006,3.164 -0.550667,1.0453329 -1.362663,1.5866669 -2.435997,1.6239999 -0.849334,0 -1.53067,-0.336 -2.043998,-1.0079997 C 75.394211,9.6786671 75.305542,9.5433331 75.230881,9.3940001 74.810875,8.6193333 74.600876,7.4946666 74.600876,6.02 c 0,-1.3719998 0.172668,-2.4313331 0.518005,-3.1780005 0.466667,-1.0453324 1.222664,-1.6006665 2.267998,-1.6659999 z"
         fill="#000000"
         id="path8962" />
    </svg>
  </g>
  <g
     transform="matrix(0.2,0,0,0.2,19.881822,103.86065)"
     id="g10209">
    <svg
       version="1.1"
       id="svg10207"
       width="100%"
       height="100%">
      <path
         d="M 9.3000002,0.90000057 C 9.9933329,0.90000153 10.5,1.126668 10.82,1.5799999 c 0.146666,0.2000008 0.22,0.4333344 0.22,0.7000008 0,0.5333328 -0.226666,0.8999996 -0.68,1.0999994 -0.133335,0.066667 -0.273334,0.1000004 -0.4200004,0.1000004 -0.3866673,0 -0.626667,-0.166667 -0.7199993,-0.5 C 9.206666,2.9133339 9.1999989,2.8466682 9.1999998,2.7800007 9.1999989,2.3666668 9.3866663,2.0600004 9.7600002,1.8600005 9.9066658,1.7666674 10.08,1.7133341 10.28,1.7000008 10.026667,1.460001 9.6999998,1.3400011 9.3000002,1.3400003 8.8866663,1.3400011 8.5733328,1.5666676 8.3599997,2.0200005 8.2666664,2.2066669 8.1066666,2.9000006 7.8799996,4.1000004 L 7.46,6.3800001 h 1.6599999 c 0.333333,0 0.5133333,0.073334 0.5399999,0.2200003 0,0.2399998 -0.1066665,0.373333 -0.3199996,0.3999996 H 9.3199997 9.0599995 7.3399997 L 6.1399999,13.34 C 6.0199995,14.166667 5.7799997,15.113334 5.4200001,16.18 5.2866664,16.566666 5.1533327,16.893333 5.02,17.16 4.5533333,18.146667 3.9733329,18.76 3.28,19 3.1066666,19.066666 2.9333332,19.1 2.76,19.1 2.0933332,19.1 1.5999999,18.873333 1.28,18.42 1.1333332,18.219999 1.0599999,17.986666 1.0600001,17.719999 1.0599999,17.186666 1.2866666,16.82 1.74,16.620001 1.8733332,16.553333 2.0133331,16.52 2.1599998,16.52 c 0.3866668,0 0.6266668,0.166666 0.7200001,0.5 0.013333,0.06667 0.02,0.133334 0.02,0.199999 C 2.8999999,17.673332 2.6999998,17.993334 2.3,18.18 2.1533332,18.246666 1.9866666,18.286667 1.8,18.299999 2.0533333,18.540001 2.3733332,18.66 2.76,18.66 3.3466666,18.66 3.8066664,18.006666 4.1399999,16.700001 4.2066665,16.393333 4.2866664,15.993334 4.3800001,15.5 L 4.5,14.9 6,7 H 4.6799998 C 4.3466663,7 4.1666665,6.9466667 4.1399999,6.8400002 h -0.02 v -0.08 C 4.1199999,6.5333338 4.2333331,6.4066668 4.46,6.3800001 H 4.7199998 6.0999999 C 6.4199996,4.7133331 6.6399994,3.666667 6.7599998,3.2400007 c 0.4,-1.333333 1.1066665,-2.0999994 2.1200003,-2.30000011 0.1466665,-0.0266657 0.2866659,-0.0399991 0.4200001,-0.04 z"
         fill="#000000"
         id="path10195" />
      <path
         d="m 16.21172,0 c 0.133335,9.5367432e-7 0.2,0.06666756 0.2,0.2000007 0,0.0666667 -0.08667,0.18000037 -0.26,0.3399992 -2.146666,2.1866675 -3.22,5.3400012 -3.219999,9.4600001 -10e-7,4.106667 1.046666,7.226667 3.139999,9.360001 0.226666,0.226665 0.34,0.373333 0.34,0.439998 0,0.133333 -0.06667,0.200001 -0.2,0.200001 -0.16,0 -0.513334,-0.273335 -1.06,-0.82 C 14.325053,18.353333 13.638387,17.373333 13.091721,16.24 12.21172,14.426666 11.77172,12.346666 11.77172,10 c 0,-2.2533331 0.42,-4.2866669 1.26,-6.0999994 C 13.725054,2.420001 14.605053,1.2333336 15.671721,0.34000009 15.951719,0.11333466 16.13172,9.5367432e-7 16.21172,0 Z"
         fill="#000000"
         id="path10197" />
      <path
         d="m 21.989521,6.1599998 c 1.026667,0 1.746666,0.5066672 2.16,1.5200005 0.426666,-0.8266659 0.993332,-1.3199997 1.700001,-1.4800005 0.133331,-0.026666 0.266666,-0.04 0.399997,-0.04 0.786667,0 1.340001,0.2200013 1.660002,0.6600008 0.133333,0.186667 0.199999,0.4066668 0.199999,0.6599994 0,0.5466666 -0.246666,0.9133334 -0.739998,1.0999999 -0.120001,0.040001 -0.233333,0.060001 -0.34,0.06 C 26.616188,8.6400009 26.36952,8.4600006 26.28952,8.1 26.27619,8.046667 26.26952,7.9933329 26.26952,7.9399997 26.26952,7.54 26.462854,7.226667 26.849522,6.9999996 26.969521,6.9333336 27.096188,6.8866669 27.229521,6.8600002 26.94952,6.686667 26.616188,6.6 26.229521,6.6 c -0.906668,0 -1.546667,0.7066669 -1.92,2.1199999 -0.02667,0.080001 -0.04667,0.1600008 -0.06,0.2399997 L 23.569521,11.7 c -0.226667,0.906667 -0.34,1.493334 -0.34,1.76 0,0.693334 0.246666,1.113334 0.74,1.26 0.106666,0.04 0.226665,0.06 0.36,0.06 0.666666,0 1.273333,-0.333333 1.82,-1 0.36,-0.426667 0.639999,-0.966666 0.84,-1.62 0.04,-0.146667 0.126665,-0.219999 0.259998,-0.219999 0.160002,0 0.240002,0.06667 0.240002,0.199999 0,0.333333 -0.206667,0.813334 -0.619999,1.44 -0.720001,1.093333 -1.580002,1.64 -2.580002,1.64 -0.906666,0 -1.566665,-0.38 -1.979999,-1.14 -0.08,-0.12 -0.14,-0.246667 -0.180001,-0.38 -0.319999,0.64 -0.76,1.086667 -1.319999,1.34 -0.253334,0.12 -0.513333,0.18 -0.779999,0.18 -0.800001,0 -1.360001,-0.233333 -1.68,-0.7 -0.133334,-0.173334 -0.200001,-0.38 -0.200001,-0.62 0,-0.493333 0.213333,-0.84 0.639999,-1.039999 0.146668,-0.08 0.300001,-0.120001 0.460001,-0.120001 0.4,0 0.64,0.166667 0.72,0.5 0.01333,0.06667 0.02,0.133333 0.02,0.200001 0,0.453332 -0.226667,0.786665 -0.68,0.999999 -0.08,0.04 -0.166666,0.06667 -0.260001,0.08 0.280001,0.173334 0.613333,0.26 1,0.26 0.706667,0 1.266667,-0.473334 1.680001,-1.42 0.08,-0.2 0.153333,-0.419999 0.219999,-0.66 C 22.669521,9.9800001 23.029522,8.393333 23.029522,7.9399997 22.949522,7.1133328 22.58952,6.6666666 21.94952,6.6 c -0.693333,0 -1.326666,0.3533335 -1.9,1.0599999 v 0.02 c 0,0.013333 -0.0067,0.02 -0.02,0.02 -0.200001,0.2666669 -0.380001,0.5733342 -0.540001,0.9200005 -0.06667,0.1599999 -0.126667,0.3199997 -0.18,0.4799996 l -0.04,0.1199999 c -0.02667,0.1466665 -0.113335,0.2200002 -0.260001,0.2200002 -0.159999,0 -0.240001,-0.066667 -0.239999,-0.2000007 -2e-6,-0.3333321 0.213333,-0.8133326 0.639999,-1.4399996 0.719999,-1.0933333 1.58,-1.6400004 2.58,-1.6400004 z"
         fill="#000000"
         id="path10199" />
      <path
         d="m 30.34008,0 c 0.16,9.5367432e-7 0.513333,0.2733345 1.06,0.82000077 0.826666,0.82666673 1.513334,1.80666623 2.059999,2.93999943 0.880001,1.8133335 1.32,3.8933335 1.32,6.2399998 0,2.253333 -0.419998,4.286667 -1.259998,6.1 -0.693333,1.48 -1.573334,2.666666 -2.640002,3.56 C 30.60008,19.886665 30.42008,20 30.34008,20 c -0.133333,0 -0.200001,-0.06667 -0.200001,-0.200001 0,-0.06667 0.08667,-0.18 0.260001,-0.34 C 32.546745,17.273333 33.620079,14.12 33.620079,10 c 0,-4.0666656 -1,-7.1466656 -2.999998,-9.23999965 l -0.1,-0.1000005 C 30.266747,0.42000008 30.140079,0.26666737 30.140079,0.2000007 30.140079,0.06666756 30.206747,9.5367432e-7 30.34008,0 Z"
         fill="#000000"
         id="path10201" />
      <path
         d="m 44.13345,11.54 h 11.939998 c 0.426666,0 0.653336,0.133333 0.68,0.400001 0,0.266666 -0.220001,0.399999 -0.659999,0.399999 h -11.98 c -0.426666,0 -0.646667,-0.133333 -0.66,-0.399999 0,-0.266668 0.22667,-0.400001 0.680001,-0.400001 z m -0.02,-3.8799997 h 11.98 c 0.42667,0 0.646667,0.1333332 0.659999,0.3999992 0,0.2666673 -0.226665,0.4000005 -0.68,0.4000005 H 44.13345 c -0.426667,0 -0.653332,-0.1333332 -0.680001,-0.4000005 0,-0.266666 0.220001,-0.3999992 0.660001,-0.3999992 z"
         fill="#000000"
         id="path10203" />
      <path
         d="m 68.424644,2.1199999 c -0.933334,9e-7 -1.613334,0.4666672 -2.04,1.4000006 -0.146668,0.3199997 -0.260003,0.7066669 -0.339997,1.1599998 -0.106666,0.7200003 -0.160003,1.9466667 -0.160003,3.6800003 0,2.0133324 0.07333,3.4200004 0.220001,4.2199994 0.239998,1.280001 0.826668,2.06 1.760002,2.34 0.186668,0.05333 0.373329,0.08 0.559997,0.08 0.840004,0 1.486664,-0.406667 1.940003,-1.22 0.186668,-0.36 0.32,-0.786666 0.400001,-1.28 0.14666,-0.853333 0.219994,-2.233334 0.219994,-4.1399994 0,-1.8533335 -0.06667,-3.1533337 -0.199997,-3.9000006 -0.239998,-1.2666654 -0.853332,-2.0266656 -1.840004,-2.2799997 -0.173332,-0.04 -0.346664,-0.059999 -0.519997,-0.06 z M 68.204643,1.6800003 h 0.239998 c 1.186669,0 2.153336,0.4733334 2.900002,1.4200001 v 0.019999 c 0.186668,0.2400007 0.353332,0.5066671 0.5,0.8000002 0.533332,1.1333332 0.800003,2.6933336 0.800003,4.6800003 0,1.9466671 -0.246666,3.4533331 -0.739998,4.5200001 -0.786667,1.493334 -1.946671,2.266665 -3.480004,2.32 -1.213333,0 -2.186668,-0.48 -2.919998,-1.44 -0.146667,-0.173333 -0.273338,-0.366667 -0.380005,-0.58 -0.599998,-1.106666 -0.899993,-2.713333 -0.899993,-4.8200001 0,-1.9600001 0.246665,-3.4733334 0.739997,-4.54 0.666665,-1.4933328 1.746666,-2.2866659 3.239998,-2.3799996 z"
         fill="#000000"
         id="path10205" />
    </svg>
  </g>
</svg>
