<?xml version="1.0" encoding="UTF-8" standalone="no"?>
<!-- Created with Inkscape (http://www.inkscape.org/) -->

<svg
   sodipodi:docname="mapsta.svg"
   inkscape:version="1.1.1 (3bf5ae0d25, 2021-09-20)"
   id="svg5"
   version="1.1"
   viewBox="0 0 210 74"
   height="74mm"
   width="210mm"
   xmlns:inkscape="http://www.inkscape.org/namespaces/inkscape"
   xmlns:sodipodi="http://sodipodi.sourceforge.net/DTD/sodipodi-0.dtd"
   xmlns:xlink="http://www.w3.org/1999/xlink"
   xmlns="http://www.w3.org/2000/svg"
   xmlns:svg="http://www.w3.org/2000/svg">
  <sodipodi:namedview
     id="namedview7"
     pagecolor="#ffffff"
     bordercolor="#000000"
     borderopacity="0.25"
     inkscape:pageshadow="2"
     inkscape:pageopacity="0.0"
     inkscape:pagecheckerboard="0"
     inkscape:document-units="mm"
     showgrid="false"
     inkscape:zoom="0.70933532"
     inkscape:cx="396.85039"
     inkscape:cy="140.27216"
     inkscape:window-width="1350"
     inkscape:window-height="689"
     inkscape:window-x="26"
     inkscape:window-y="0"
     inkscape:window-maximized="0"
     inkscape:current-layer="layer1"
     showguides="false" />
  <defs
     id="defs2">
    <marker
       style="overflow:visible"
       id="Arrow2Mend"
       refX="0"
       refY="0"
       orient="auto"
       inkscape:stockid="Arrow2Mend"
       inkscape:isstock="true">
      <path
         transform="scale(-0.6)"
         d="M 8.7185878,4.0337352 -2.2072895,0.01601326 8.7185884,-4.0017078 c -1.7454984,2.3720609 -1.7354408,5.6174519 -6e-7,8.035443 z"
         style="fill:context-stroke;fill-rule:evenodd;stroke:context-stroke;stroke-width:0.625;stroke-linejoin:round"
         id="path10808" />
    </marker>
    <marker
       style="overflow:visible"
       id="Arrow1Lend"
       refX="0"
       refY="0"
       orient="auto"
       inkscape:stockid="Arrow1Lend"
       inkscape:isstock="true">
      <path
         transform="matrix(-0.8,0,0,-0.8,-10,0)"
         style="fill:context-stroke;fill-rule:evenodd;stroke:context-stroke;stroke-width:1pt"
         d="M 0,0 5,-5 -12.5,0 5,5 Z"
         id="path10784" />
    </marker>
    <linearGradient
       id="linearGradient6508"
       inkscape:swatch="solid">
      <stop
         style="stop-color:#003900;stop-opacity:1;"
         offset="0"
         id="stop6506" />
    </linearGradient>
    <linearGradient
       inkscape:collect="always"
       xlink:href="#linearGradient6508"
       id="linearGradient6622"
       gradientUnits="userSpaceOnUse"
       gradientTransform="matrix(1.0001031,0,0,0.91599168,110.00219,151.38202)"
       x1="2.4869499"
       y1="40.411156"
       x2="112.75967"
       y2="40.411156" />
    <linearGradient
       inkscape:collect="always"
       xlink:href="#linearGradient6508"
       id="linearGradient6626"
       gradientUnits="userSpaceOnUse"
       gradientTransform="matrix(1.0001031,0,0,0.91599168,110.00219,220.61618)"
       x1="2.4869499"
       y1="40.411156"
       x2="112.75967"
       y2="40.411156" />
    <linearGradient
       inkscape:collect="always"
       xlink:href="#linearGradient6508"
       id="linearGradient6714"
       gradientUnits="userSpaceOnUse"
       gradientTransform="matrix(1.0001031,0,0,0.91599168,109.99651,75.803857)"
       x1="2.4869499"
       y1="40.411156"
       x2="112.75967"
       y2="40.411156" />
    <linearGradient
       inkscape:collect="always"
       xlink:href="#linearGradient6508"
       id="linearGradient8672"
       gradientUnits="userSpaceOnUse"
       gradientTransform="matrix(1.0001031,0,0,0.91599168,220.02167,151.38202)"
       x1="2.4869499"
       y1="40.411156"
       x2="112.75967"
       y2="40.411156" />
  </defs>
  <g
     inkscape:label="Layer 1"
     inkscape:groupmode="layer"
     id="layer1">
    <text
       xml:space="preserve"
       style="font-style:normal;font-variant:normal;font-weight:bold;font-stretch:normal;font-size:8.95879px;font-family:sans-serif;-inkscape-font-specification:'sans-serif Bold';fill:#4d1ca9;fill-opacity:1;stroke-width:0.335951"
       x="8.63235"
       y="24.682495"
       id="text5601"
       transform="scale(0.63374185,1.5779296)"><tspan
         sodipodi:role="line"
         id="tspan5599"
         style="font-size:8.95879px;fill:#4d1ca9;fill-opacity:1;stroke-width:0.335951"
         x="8.63235"
         y="24.682495">Statistik </tspan></text>
    <text
       xml:space="preserve"
       style="font-style:normal;font-variant:normal;font-weight:bold;font-stretch:normal;font-size:11.825px;font-family:sans-serif;-inkscape-font-specification:'sans-serif Bold';fill:#241c1c;stroke-width:0.443437"
       x="444.99814"
       y="12.516476"
       id="text5605"
       transform="scale(0.52329943,1.9109518)"><tspan
         sodipodi:role="line"
         id="tspan5603"
         style="font-size:11.825px;stroke-width:0.443437"
         x="444.99814"
         y="12.516476">Bentuk Akar</tspan></text>
    <text
       xml:space="preserve"
       style="font-style:normal;font-variant:normal;font-weight:bold;font-stretch:normal;font-size:8.32764px;font-family:sans-serif;-inkscape-font-specification:'sans-serif Bold';fill:#241c1c;stroke-width:0.312286"
       x="623.40918"
       y="14.906974"
       id="text5609"
       transform="scale(0.54544382,1.8333694)"><tspan
         sodipodi:role="line"
         id="tspan5607"
         style="font-size:8.32764px;stroke-width:0.312286"
         x="623.40918"
         y="14.906974">Bentuk Logaritma</tspan></text>
    <text
       xml:space="preserve"
       style="font-style:normal;font-variant:normal;font-weight:bold;font-stretch:normal;font-size:6.67613px;font-family:sans-serif;-inkscape-font-specification:'sans-serif Bold';fill:#241c1c;stroke-width:0.250354"
       x="56.067802"
       y="69.074669"
       id="text5613"
       transform="scale(0.60646943,1.6488877)"><tspan
         sodipodi:role="line"
         id="tspan5611"
         style="font-size:6.67613px;stroke-width:0.250354"
         x="56.067802"
         y="69.074669">Sifat-sifat</tspan></text>
    <text
       xml:space="preserve"
       style="font-style:normal;font-variant:normal;font-weight:bold;font-stretch:normal;font-size:6.67613px;font-family:sans-serif;-inkscape-font-specification:'sans-serif Bold';fill:#241c1c;stroke-width:0.250354"
       x="43.111298"
       y="114.00623"
       id="text5617"
       transform="scale(0.60646943,1.6488877)"><tspan
         sodipodi:role="line"
         id="tspan5615"
         style="font-size:6.67613px;stroke-width:0.250354"
         x="43.111298"
         y="114.00623">TRANSFORMASI GEOMETRI</tspan></text>
    <text
       xml:space="preserve"
       style="font-style:normal;font-variant:normal;font-weight:bold;font-stretch:normal;font-size:6.67613px;font-family:sans-serif;-inkscape-font-specification:'sans-serif Bold';fill:#241c1c;stroke-width:0.250354"
       x="44.962227"
       y="151.4492"
       id="text5621"
       transform="scale(0.60646943,1.6488877)"><tspan
         sodipodi:role="line"
         id="tspan5619"
         style="font-size:6.67613px;stroke-width:0.250354"
         x="44.962227"
         y="151.4492">TRANSFORMASI GEOMETRI</tspan></text>
    <rect
       style="fill:none;stroke:url(#linearGradient6622);stroke-width:0.253239;stroke-opacity:1"
       id="rect6620"
       width="110.01948"
       height="69.234154"
       x="112.6217"
       y="153.78122"
       inkscape:transform-center-x="22.078743"
       inkscape:transform-center-y="-15.423454" />
    <rect
       style="fill:none;stroke:url(#linearGradient6626);stroke-width:0.253239;stroke-opacity:1"
       id="rect6624"
       width="110.01948"
       height="69.234154"
       x="112.6217"
       y="223.01538"
       inkscape:transform-center-x="22.078743"
       inkscape:transform-center-y="-15.423454" />
    <rect
       style="fill:none;stroke:url(#linearGradient6714);stroke-width:0.253239;stroke-opacity:1"
       id="rect6712"
       width="110.01948"
       height="69.234154"
       x="112.61602"
       y="78.203056"
       inkscape:transform-center-x="22.078743"
       inkscape:transform-center-y="-15.423454" />
    <rect
       style="fill:none;stroke:url(#linearGradient8672);stroke-width:0.253239;stroke-opacity:1"
       id="rect8670"
       width="110.01948"
       height="69.234154"
       x="222.64117"
       y="153.78122"
       inkscape:transform-center-x="22.078743"
       inkscape:transform-center-y="-15.423454" />
    <text
       xml:space="preserve"
       style="font-style:normal;font-variant:normal;font-weight:bold;font-stretch:normal;font-size:6.67613px;font-family:sans-serif;-inkscape-font-specification:'sans-serif Bold';fill:#241c1c;stroke-width:0.250354"
       x="402.19156"
       y="57.047531"
       id="text15684"
       transform="scale(0.60646943,1.6488877)"><tspan
         sodipodi:role="line"
         id="tspan15682"
         style="font-size:6.67613px;stroke-width:0.250354"
         x="402.19156"
         y="57.047531">Sifat-sifat</tspan></text>
    <text
       xml:space="preserve"
       style="font-style:normal;font-variant:normal;font-weight:bold;font-stretch:normal;font-size:6.67613px;font-family:sans-serif;-inkscape-font-specification:'sans-serif Bold';fill:#241c1c;stroke-width:0.250354"
       x="570.6261"
       y="37.758724"
       id="text15688"
       transform="scale(0.60646943,1.6488877)"><tspan
         sodipodi:role="line"
         id="tspan15686"
         style="font-size:6.67613px;stroke-width:0.250354"
         x="570.6261"
         y="37.758724">Sifat-sifat</tspan></text>
    <path
       style="fill:#4d1ca9;fill-opacity:1;stroke:#00075b;stroke-width:0.079375;stroke-miterlimit:4;stroke-dasharray:none;stroke-opacity:1"
       d="M 6.5043579,40.666457 6.4002815,67.531523"
       id="path25783"
       sodipodi:nodetypes="cc" />
    <path
       style="fill:#4d1ca9;fill-opacity:1;stroke:#00075b;stroke-width:0.079375;stroke-miterlimit:4;stroke-dasharray:none;stroke-opacity:1"
       d="m 42.299438,44.760115 -15.246034,0.04308"
       id="path25785"
       sodipodi:nodetypes="cc" />
    <text
       xml:space="preserve"
       style="font-style:normal;font-variant:normal;font-weight:normal;font-stretch:normal;font-size:2.11667px;font-family:Cambria;-inkscape-font-specification:Cambria;fill:#4d1ca9;fill-opacity:1;stroke:#00075b;stroke-width:0.0264583;stroke-miterlimit:4;stroke-dasharray:none;stroke-opacity:1"
       x="12.427972"
       y="49.70071"
       id="text2322"><tspan
         sodipodi:role="line"
         id="tspan2320"
         style="font-style:normal;font-variant:normal;font-weight:normal;font-stretch:normal;font-size:2.11667px;font-family:Cambria;-inkscape-font-specification:Cambria;fill:#4d1ca9;fill-opacity:1;stroke:#00075b;stroke-width:0.0264583;stroke-miterlimit:4;stroke-dasharray:none;stroke-opacity:1"
         x="12.427972"
         y="49.70071">modus</tspan></text>
    <text
       xml:space="preserve"
       style="font-style:normal;font-variant:normal;font-weight:normal;font-stretch:normal;font-size:2.11667px;font-family:Cambria;-inkscape-font-specification:Cambria;fill:#4d1ca9;fill-opacity:1;stroke:#00075b;stroke-width:0.0264583;stroke-miterlimit:4;stroke-dasharray:none;stroke-opacity:1"
       x="12.427972"
       y="54.213928"
       id="text2326"><tspan
         sodipodi:role="line"
         id="tspan2324"
         style="font-style:normal;font-variant:normal;font-weight:normal;font-stretch:normal;font-size:2.11667px;font-family:Cambria;-inkscape-font-specification:Cambria;fill:#4d1ca9;fill-opacity:1;stroke:#00075b;stroke-width:0.0264583;stroke-miterlimit:4;stroke-dasharray:none;stroke-opacity:1"
         x="12.427972"
         y="54.213928">median</tspan></text>
    <text
       xml:space="preserve"
       style="font-style:normal;font-variant:normal;font-weight:normal;font-stretch:normal;font-size:2.11667px;font-family:Cambria;-inkscape-font-specification:Cambria;fill:#4d1ca9;fill-opacity:1;stroke:#00075b;stroke-width:0.0264583;stroke-miterlimit:4;stroke-dasharray:none;stroke-opacity:1"
       x="12.427972"
       y="45.187492"
       id="text2330"><tspan
         sodipodi:role="line"
         id="tspan2328"
         style="font-style:normal;font-variant:normal;font-weight:normal;font-stretch:normal;font-size:2.11667px;font-family:Cambria;-inkscape-font-specification:Cambria;fill:#4d1ca9;fill-opacity:1;stroke:#00075b;stroke-width:0.0264583;stroke-miterlimit:4;stroke-dasharray:none;stroke-opacity:1"
         x="12.427972"
         y="45.187492">rerata</tspan></text>
    <path
       style="fill:#000080;stroke:#00075b;stroke-width:0.202;marker-end:url(#Arrow2Mend)"
       d="M 6.3620069,44.804181 H 9.1473468"
       id="path6129" />
    <text
       xml:space="preserve"
       style="font-style:normal;font-variant:normal;font-weight:normal;font-stretch:normal;font-size:2.11667px;font-family:Cambria;-inkscape-font-specification:Cambria;fill:#4d1ca9;fill-opacity:1;stroke:#00075b;stroke-width:0.0264583;stroke-miterlimit:4;stroke-dasharray:none;stroke-opacity:1"
       x="12.427972"
       y="67.941681"
       id="text6377"><tspan
         sodipodi:role="line"
         id="tspan6375"
         style="font-style:normal;font-variant:normal;font-weight:normal;font-stretch:normal;font-size:2.11667px;font-family:Cambria;-inkscape-font-specification:Cambria;fill:#4d1ca9;fill-opacity:1;stroke:#00075b;stroke-width:0.0264583;stroke-miterlimit:4;stroke-dasharray:none;stroke-opacity:1"
         x="12.427972"
         y="67.941681">minimum</tspan></text>
    <text
       xml:space="preserve"
       style="font-style:normal;font-variant:normal;font-weight:normal;font-stretch:normal;font-size:2.11667px;font-family:Cambria;-inkscape-font-specification:Cambria;fill:#4d1ca9;fill-opacity:1;stroke:#00075b;stroke-width:0.0264583;stroke-miterlimit:4;stroke-dasharray:none;stroke-opacity:1"
       x="12.427972"
       y="63.514248"
       id="text6381"><tspan
         sodipodi:role="line"
         id="tspan6379"
         style="font-style:normal;font-variant:normal;font-weight:normal;font-stretch:normal;font-size:2.11667px;font-family:Cambria;-inkscape-font-specification:Cambria;fill:#4d1ca9;fill-opacity:1;stroke:#00075b;stroke-width:0.0264583;stroke-miterlimit:4;stroke-dasharray:none;stroke-opacity:1"
         x="12.427972"
         y="63.514248">maximum</tspan></text>
    <text
       xml:space="preserve"
       style="font-style:normal;font-variant:normal;font-weight:normal;font-stretch:normal;font-size:2.11667px;font-family:Cambria;-inkscape-font-specification:Cambria;fill:#4d1ca9;fill-opacity:1;stroke:#00075b;stroke-width:0.0264583;stroke-miterlimit:4;stroke-dasharray:none;stroke-opacity:1"
       x="12.416603"
       y="58.641361"
       id="text6385"><tspan
         sodipodi:role="line"
         id="tspan6383"
         style="font-style:normal;font-variant:normal;font-weight:normal;font-stretch:normal;font-size:2.11667px;font-family:Cambria;-inkscape-font-specification:Cambria;fill:#4d1ca9;fill-opacity:1;stroke:#00075b;stroke-width:0.0264583;stroke-miterlimit:4;stroke-dasharray:none;stroke-opacity:1"
         x="12.416603"
         y="58.641361">simpangan</tspan></text>
    <path
       style="fill:#000080;stroke:#00075b;stroke-width:0.202;marker-end:url(#Arrow2Mend)"
       d="M 6.3620069,49.355017 H 9.1473468"
       id="path11057" />
    <path
       style="fill:#000080;stroke:#00075b;stroke-width:0.202;marker-end:url(#Arrow2Mend)"
       d="M 6.3620069,63.007527 H 9.1473468"
       id="path11059" />
    <path
       style="fill:#000080;stroke:#00075b;stroke-width:0.202;marker-end:url(#Arrow2Mend)"
       d="M 6.3620069,53.905854 H 9.1473468"
       id="path11061" />
    <path
       style="fill:#000080;stroke:#00075b;stroke-width:0.202;marker-end:url(#Arrow2Mend)"
       d="M 6.3620069,58.45669 H 9.1473468"
       id="path11063" />
    <path
       style="fill:#000080;stroke:#00075b;stroke-width:0.202;marker-end:url(#Arrow2Mend)"
       d="M 6.3620069,67.558363 H 9.1473468"
       id="path11065" />
    <rect
       style="fill:none;stroke:#00075b;stroke-width:0.243716"
       id="rect12468"
       width="27.187414"
       height="29.052422"
       x="98.866325"
       y="7.4808931" />
  </g>
  <script
     id="mesh_polyfill"
     type="text/javascript">
!function(){const t=&quot;http://www.w3.org/2000/svg&quot;,e=&quot;http://www.w3.org/1999/xlink&quot;,s=&quot;http://www.w3.org/1999/xhtml&quot;,r=2;if(document.createElementNS(t,&quot;meshgradient&quot;).x)return;const n=(t,e,s,r)=&gt;{let n=new x(.5*(e.x+s.x),.5*(e.y+s.y)),o=new x(.5*(t.x+e.x),.5*(t.y+e.y)),i=new x(.5*(s.x+r.x),.5*(s.y+r.y)),a=new x(.5*(n.x+o.x),.5*(n.y+o.y)),h=new x(.5*(n.x+i.x),.5*(n.y+i.y)),l=new x(.5*(a.x+h.x),.5*(a.y+h.y));return[[t,o,a,l],[l,h,i,r]]},o=t=&gt;{let e=t[0].distSquared(t[1]),s=t[2].distSquared(t[3]),r=.25*t[0].distSquared(t[2]),n=.25*t[1].distSquared(t[3]),o=e&gt;s?e:s,i=r&gt;n?r:n;return 18*(o&gt;i?o:i)},i=(t,e)=&gt;Math.sqrt(t.distSquared(e)),a=(t,e)=&gt;t.scale(2/3).add(e.scale(1/3)),h=t=&gt;{let e,s,r,n,o,i,a,h=new g;return t.match(/(\w+\(\s*[^)]+\))+/g).forEach(t=&gt;{let l=t.match(/[\w.-]+/g),d=l.shift();switch(d){case&quot;translate&quot;:2===l.length?e=new g(1,0,0,1,l[0],l[1]):(console.error(&quot;mesh.js: translate does not have 2 arguments!&quot;),e=new g(1,0,0,1,0,0)),h=h.append(e);break;case&quot;scale&quot;:1===l.length?s=new g(l[0],0,0,l[0],0,0):2===l.length?s=new g(l[0],0,0,l[1],0,0):(console.error(&quot;mesh.js: scale does not have 1 or 2 arguments!&quot;),s=new g(1,0,0,1,0,0)),h=h.append(s);break;case&quot;rotate&quot;:if(3===l.length&amp;&amp;(e=new g(1,0,0,1,l[1],l[2]),h=h.append(e)),l[0]){r=l[0]*Math.PI/180;let t=Math.cos(r),e=Math.sin(r);Math.abs(t)&lt;1e-16&amp;&amp;(t=0),Math.abs(e)&lt;1e-16&amp;&amp;(e=0),a=new g(t,e,-e,t,0,0),h=h.append(a)}else console.error(&quot;math.js: No argument to rotate transform!&quot;);3===l.length&amp;&amp;(e=new g(1,0,0,1,-l[1],-l[2]),h=h.append(e));break;case&quot;skewX&quot;:l[0]?(r=l[0]*Math.PI/180,n=Math.tan(r),o=new g(1,0,n,1,0,0),h=h.append(o)):console.error(&quot;math.js: No argument to skewX transform!&quot;);break;case&quot;skewY&quot;:l[0]?(r=l[0]*Math.PI/180,n=Math.tan(r),i=new g(1,n,0,1,0,0),h=h.append(i)):console.error(&quot;math.js: No argument to skewY transform!&quot;);break;case&quot;matrix&quot;:6===l.length?h=h.append(new g(...l)):console.error(&quot;math.js: Incorrect number of arguments for matrix!&quot;);break;default:console.error(&quot;mesh.js: Unhandled transform type: &quot;+d)}}),h},l=t=&gt;{let e=[],s=t.split(/[ ,]+/);for(let t=0,r=s.length-1;t&lt;r;t+=2)e.push(new x(parseFloat(s[t]),parseFloat(s[t+1])));return e},d=(t,e)=&gt;{for(let s in e)t.setAttribute(s,e[s])},c=(t,e,s,r,n)=&gt;{let o,i,a=[0,0,0,0];for(let h=0;h&lt;3;++h)e[h]&lt;t[h]&amp;&amp;e[h]&lt;s[h]||t[h]&lt;e[h]&amp;&amp;s[h]&lt;e[h]?a[h]=0:(a[h]=.5*((e[h]-t[h])/r+(s[h]-e[h])/n),o=Math.abs(3*(e[h]-t[h])/r),i=Math.abs(3*(s[h]-e[h])/n),a[h]&gt;o?a[h]=o:a[h]&gt;i&amp;&amp;(a[h]=i));return a},u=[[1,0,0,0,0,0,0,0,0,0,0,0,0,0,0,0],[0,0,0,0,1,0,0,0,0,0,0,0,0,0,0,0],[-3,3,0,0,-2,-1,0,0,0,0,0,0,0,0,0,0],[2,-2,0,0,1,1,0,0,0,0,0,0,0,0,0,0],[0,0,0,0,0,0,0,0,1,0,0,0,0,0,0,0],[0,0,0,0,0,0,0,0,0,0,0,0,1,0,0,0],[0,0,0,0,0,0,0,0,-3,3,0,0,-2,-1,0,0],[0,0,0,0,0,0,0,0,2,-2,0,0,1,1,0,0],[-3,0,3,0,0,0,0,0,-2,0,-1,0,0,0,0,0],[0,0,0,0,-3,0,3,0,0,0,0,0,-2,0,-1,0],[9,-9,-9,9,6,3,-6,-3,6,-6,3,-3,4,2,2,1],[-6,6,6,-6,-3,-3,3,3,-4,4,-2,2,-2,-2,-1,-1],[2,0,-2,0,0,0,0,0,1,0,1,0,0,0,0,0],[0,0,0,0,2,0,-2,0,0,0,0,0,1,0,1,0],[-6,6,6,-6,-4,-2,4,2,-3,3,-3,3,-2,-1,-2,-1],[4,-4,-4,4,2,2,-2,-2,2,-2,2,-2,1,1,1,1]],f=t=&gt;{let e=[];for(let s=0;s&lt;16;++s){e[s]=0;for(let r=0;r&lt;16;++r)e[s]+=u[s][r]*t[r]}return e},p=(t,e,s)=&gt;{const r=e*e,n=s*s,o=e*e*e,i=s*s*s;return t[0]+t[1]*e+t[2]*r+t[3]*o+t[4]*s+t[5]*s*e+t[6]*s*r+t[7]*s*o+t[8]*n+t[9]*n*e+t[10]*n*r+t[11]*n*o+t[12]*i+t[13]*i*e+t[14]*i*r+t[15]*i*o},y=t=&gt;{let e=[],s=[],r=[];for(let s=0;s&lt;4;++s)e[s]=[],e[s][0]=n(t[0][s],t[1][s],t[2][s],t[3][s]),e[s][1]=[],e[s][1].push(...n(...e[s][0][0])),e[s][1].push(...n(...e[s][0][1])),e[s][2]=[],e[s][2].push(...n(...e[s][1][0])),e[s][2].push(...n(...e[s][1][1])),e[s][2].push(...n(...e[s][1][2])),e[s][2].push(...n(...e[s][1][3]));for(let t=0;t&lt;8;++t){s[t]=[];for(let r=0;r&lt;4;++r)s[t][r]=[],s[t][r][0]=n(e[0][2][t][r],e[1][2][t][r],e[2][2][t][r],e[3][2][t][r]),s[t][r][1]=[],s[t][r][1].push(...n(...s[t][r][0][0])),s[t][r][1].push(...n(...s[t][r][0][1])),s[t][r][2]=[],s[t][r][2].push(...n(...s[t][r][1][0])),s[t][r][2].push(...n(...s[t][r][1][1])),s[t][r][2].push(...n(...s[t][r][1][2])),s[t][r][2].push(...n(...s[t][r][1][3]))}for(let t=0;t&lt;8;++t){r[t]=[];for(let e=0;e&lt;8;++e)r[t][e]=[],r[t][e][0]=s[t][0][2][e],r[t][e][1]=s[t][1][2][e],r[t][e][2]=s[t][2][2][e],r[t][e][3]=s[t][3][2][e]}return r};class x{constructor(t,e){this.x=t||0,this.y=e||0}toString(){return`(x=${this.x}, y=${this.y})`}clone(){return new x(this.x,this.y)}add(t){return new x(this.x+t.x,this.y+t.y)}scale(t){return void 0===t.x?new x(this.x*t,this.y*t):new x(this.x*t.x,this.y*t.y)}distSquared(t){let e=this.x-t.x,s=this.y-t.y;return e*e+s*s}transform(t){let e=this.x*t.a+this.y*t.c+t.e,s=this.x*t.b+this.y*t.d+t.f;return new x(e,s)}}class g{constructor(t,e,s,r,n,o){void 0===t?(this.a=1,this.b=0,this.c=0,this.d=1,this.e=0,this.f=0):(this.a=t,this.b=e,this.c=s,this.d=r,this.e=n,this.f=o)}toString(){return`affine: ${this.a} ${this.c} ${this.e} \n       ${this.b} ${this.d} ${this.f}`}append(t){t instanceof g||console.error(&quot;mesh.js: argument to Affine.append is not affine!&quot;);let e=this.a*t.a+this.c*t.b,s=this.b*t.a+this.d*t.b,r=this.a*t.c+this.c*t.d,n=this.b*t.c+this.d*t.d,o=this.a*t.e+this.c*t.f+this.e,i=this.b*t.e+this.d*t.f+this.f;return new g(e,s,r,n,o,i)}}class w{constructor(t,e){this.nodes=t,this.colors=e}paintCurve(t,e){if(o(this.nodes)&gt;r){const s=n(...this.nodes);let r=[[],[]],o=[[],[]];for(let t=0;t&lt;4;++t)r[0][t]=this.colors[0][t],r[1][t]=(this.colors[0][t]+this.colors[1][t])/2,o[0][t]=r[1][t],o[1][t]=this.colors[1][t];let i=new w(s[0],r),a=new w(s[1],o);i.paintCurve(t,e),a.paintCurve(t,e)}else{let s=Math.round(this.nodes[0].x);if(s&gt;=0&amp;&amp;s&lt;e){let r=4*(~~this.nodes[0].y*e+s);t[r]=Math.round(this.colors[0][0]),t[r+1]=Math.round(this.colors[0][1]),t[r+2]=Math.round(this.colors[0][2]),t[r+3]=Math.round(this.colors[0][3])}}}}class m{constructor(t,e){this.nodes=t,this.colors=e}split(){let t=[[],[],[],[]],e=[[],[],[],[]],s=[[[],[]],[[],[]]],r=[[[],[]],[[],[]]];for(let s=0;s&lt;4;++s){const r=n(this.nodes[0][s],this.nodes[1][s],this.nodes[2][s],this.nodes[3][s]);t[0][s]=r[0][0],t[1][s]=r[0][1],t[2][s]=r[0][2],t[3][s]=r[0][3],e[0][s]=r[1][0],e[1][s]=r[1][1],e[2][s]=r[1][2],e[3][s]=r[1][3]}for(let t=0;t&lt;4;++t)s[0][0][t]=this.colors[0][0][t],s[0][1][t]=this.colors[0][1][t],s[1][0][t]=(this.colors[0][0][t]+this.colors[1][0][t])/2,s[1][1][t]=(this.colors[0][1][t]+this.colors[1][1][t])/2,r[0][0][t]=s[1][0][t],r[0][1][t]=s[1][1][t],r[1][0][t]=this.colors[1][0][t],r[1][1][t]=this.colors[1][1][t];return[new m(t,s),new m(e,r)]}paint(t,e){let s,n=!1;for(let t=0;t&lt;4;++t)if((s=o([this.nodes[0][t],this.nodes[1][t],this.nodes[2][t],this.nodes[3][t]]))&gt;r){n=!0;break}if(n){let s=this.split();s[0].paint(t,e),s[1].paint(t,e)}else{new w([...this.nodes[0]],[...this.colors[0]]).paintCurve(t,e)}}}class b{constructor(t){this.readMesh(t),this.type=t.getAttribute(&quot;type&quot;)||&quot;bilinear&quot;}readMesh(t){let e=[[]],s=[[]],r=Number(t.getAttribute(&quot;x&quot;)),n=Number(t.getAttribute(&quot;y&quot;));e[0][0]=new x(r,n);let o=t.children;for(let t=0,r=o.length;t&lt;r;++t){e[3*t+1]=[],e[3*t+2]=[],e[3*t+3]=[],s[t+1]=[];let r=o[t].children;for(let n=0,o=r.length;n&lt;o;++n){let o=r[n].children;for(let r=0,i=o.length;r&lt;i;++r){let i=r;0!==t&amp;&amp;++i;let h,d=o[r].getAttribute(&quot;path&quot;),c=&quot;l&quot;;null!=d&amp;&amp;(c=(h=d.match(/\s*([lLcC])\s*(.*)/))[1]);let u=l(h[2]);switch(c){case&quot;l&quot;:0===i?(e[3*t][3*n+3]=u[0].add(e[3*t][3*n]),e[3*t][3*n+1]=a(e[3*t][3*n],e[3*t][3*n+3]),e[3*t][3*n+2]=a(e[3*t][3*n+3],e[3*t][3*n])):1===i?(e[3*t+3][3*n+3]=u[0].add(e[3*t][3*n+3]),e[3*t+1][3*n+3]=a(e[3*t][3*n+3],e[3*t+3][3*n+3]),e[3*t+2][3*n+3]=a(e[3*t+3][3*n+3],e[3*t][3*n+3])):2===i?(0===n&amp;&amp;(e[3*t+3][3*n+0]=u[0].add(e[3*t+3][3*n+3])),e[3*t+3][3*n+1]=a(e[3*t+3][3*n],e[3*t+3][3*n+3]),e[3*t+3][3*n+2]=a(e[3*t+3][3*n+3],e[3*t+3][3*n])):(e[3*t+1][3*n]=a(e[3*t][3*n],e[3*t+3][3*n]),e[3*t+2][3*n]=a(e[3*t+3][3*n],e[3*t][3*n]));break;case&quot;L&quot;:0===i?(e[3*t][3*n+3]=u[0],e[3*t][3*n+1]=a(e[3*t][3*n],e[3*t][3*n+3]),e[3*t][3*n+2]=a(e[3*t][3*n+3],e[3*t][3*n])):1===i?(e[3*t+3][3*n+3]=u[0],e[3*t+1][3*n+3]=a(e[3*t][3*n+3],e[3*t+3][3*n+3]),e[3*t+2][3*n+3]=a(e[3*t+3][3*n+3],e[3*t][3*n+3])):2===i?(0===n&amp;&amp;(e[3*t+3][3*n+0]=u[0]),e[3*t+3][3*n+1]=a(e[3*t+3][3*n],e[3*t+3][3*n+3]),e[3*t+3][3*n+2]=a(e[3*t+3][3*n+3],e[3*t+3][3*n])):(e[3*t+1][3*n]=a(e[3*t][3*n],e[3*t+3][3*n]),e[3*t+2][3*n]=a(e[3*t+3][3*n],e[3*t][3*n]));break;case&quot;c&quot;:0===i?(e[3*t][3*n+1]=u[0].add(e[3*t][3*n]),e[3*t][3*n+2]=u[1].add(e[3*t][3*n]),e[3*t][3*n+3]=u[2].add(e[3*t][3*n])):1===i?(e[3*t+1][3*n+3]=u[0].add(e[3*t][3*n+3]),e[3*t+2][3*n+3]=u[1].add(e[3*t][3*n+3]),e[3*t+3][3*n+3]=u[2].add(e[3*t][3*n+3])):2===i?(e[3*t+3][3*n+2]=u[0].add(e[3*t+3][3*n+3]),e[3*t+3][3*n+1]=u[1].add(e[3*t+3][3*n+3]),0===n&amp;&amp;(e[3*t+3][3*n+0]=u[2].add(e[3*t+3][3*n+3]))):(e[3*t+2][3*n]=u[0].add(e[3*t+3][3*n]),e[3*t+1][3*n]=u[1].add(e[3*t+3][3*n]));break;case&quot;C&quot;:0===i?(e[3*t][3*n+1]=u[0],e[3*t][3*n+2]=u[1],e[3*t][3*n+3]=u[2]):1===i?(e[3*t+1][3*n+3]=u[0],e[3*t+2][3*n+3]=u[1],e[3*t+3][3*n+3]=u[2]):2===i?(e[3*t+3][3*n+2]=u[0],e[3*t+3][3*n+1]=u[1],0===n&amp;&amp;(e[3*t+3][3*n+0]=u[2])):(e[3*t+2][3*n]=u[0],e[3*t+1][3*n]=u[1]);break;default:console.error(&quot;mesh.js: &quot;+c+&quot; invalid path type.&quot;)}if(0===t&amp;&amp;0===n||r&gt;0){let e=window.getComputedStyle(o[r]).stopColor.match(/^rgb\s*\(\s*(\d+)\s*,\s*(\d+)\s*,\s*(\d+)\s*\)$/i),a=window.getComputedStyle(o[r]).stopOpacity,h=255;a&amp;&amp;(h=Math.floor(255*a)),e&amp;&amp;(0===i?(s[t][n]=[],s[t][n][0]=Math.floor(e[1]),s[t][n][1]=Math.floor(e[2]),s[t][n][2]=Math.floor(e[3]),s[t][n][3]=h):1===i?(s[t][n+1]=[],s[t][n+1][0]=Math.floor(e[1]),s[t][n+1][1]=Math.floor(e[2]),s[t][n+1][2]=Math.floor(e[3]),s[t][n+1][3]=h):2===i?(s[t+1][n+1]=[],s[t+1][n+1][0]=Math.floor(e[1]),s[t+1][n+1][1]=Math.floor(e[2]),s[t+1][n+1][2]=Math.floor(e[3]),s[t+1][n+1][3]=h):3===i&amp;&amp;(s[t+1][n]=[],s[t+1][n][0]=Math.floor(e[1]),s[t+1][n][1]=Math.floor(e[2]),s[t+1][n][2]=Math.floor(e[3]),s[t+1][n][3]=h))}}e[3*t+1][3*n+1]=new x,e[3*t+1][3*n+2]=new x,e[3*t+2][3*n+1]=new x,e[3*t+2][3*n+2]=new x,e[3*t+1][3*n+1].x=(-4*e[3*t][3*n].x+6*(e[3*t][3*n+1].x+e[3*t+1][3*n].x)+-2*(e[3*t][3*n+3].x+e[3*t+3][3*n].x)+3*(e[3*t+3][3*n+1].x+e[3*t+1][3*n+3].x)+-1*e[3*t+3][3*n+3].x)/9,e[3*t+1][3*n+2].x=(-4*e[3*t][3*n+3].x+6*(e[3*t][3*n+2].x+e[3*t+1][3*n+3].x)+-2*(e[3*t][3*n].x+e[3*t+3][3*n+3].x)+3*(e[3*t+3][3*n+2].x+e[3*t+1][3*n].x)+-1*e[3*t+3][3*n].x)/9,e[3*t+2][3*n+1].x=(-4*e[3*t+3][3*n].x+6*(e[3*t+3][3*n+1].x+e[3*t+2][3*n].x)+-2*(e[3*t+3][3*n+3].x+e[3*t][3*n].x)+3*(e[3*t][3*n+1].x+e[3*t+2][3*n+3].x)+-1*e[3*t][3*n+3].x)/9,e[3*t+2][3*n+2].x=(-4*e[3*t+3][3*n+3].x+6*(e[3*t+3][3*n+2].x+e[3*t+2][3*n+3].x)+-2*(e[3*t+3][3*n].x+e[3*t][3*n+3].x)+3*(e[3*t][3*n+2].x+e[3*t+2][3*n].x)+-1*e[3*t][3*n].x)/9,e[3*t+1][3*n+1].y=(-4*e[3*t][3*n].y+6*(e[3*t][3*n+1].y+e[3*t+1][3*n].y)+-2*(e[3*t][3*n+3].y+e[3*t+3][3*n].y)+3*(e[3*t+3][3*n+1].y+e[3*t+1][3*n+3].y)+-1*e[3*t+3][3*n+3].y)/9,e[3*t+1][3*n+2].y=(-4*e[3*t][3*n+3].y+6*(e[3*t][3*n+2].y+e[3*t+1][3*n+3].y)+-2*(e[3*t][3*n].y+e[3*t+3][3*n+3].y)+3*(e[3*t+3][3*n+2].y+e[3*t+1][3*n].y)+-1*e[3*t+3][3*n].y)/9,e[3*t+2][3*n+1].y=(-4*e[3*t+3][3*n].y+6*(e[3*t+3][3*n+1].y+e[3*t+2][3*n].y)+-2*(e[3*t+3][3*n+3].y+e[3*t][3*n].y)+3*(e[3*t][3*n+1].y+e[3*t+2][3*n+3].y)+-1*e[3*t][3*n+3].y)/9,e[3*t+2][3*n+2].y=(-4*e[3*t+3][3*n+3].y+6*(e[3*t+3][3*n+2].y+e[3*t+2][3*n+3].y)+-2*(e[3*t+3][3*n].y+e[3*t][3*n+3].y)+3*(e[3*t][3*n+2].y+e[3*t+2][3*n].y)+-1*e[3*t][3*n].y)/9}}this.nodes=e,this.colors=s}paintMesh(t,e){let s=(this.nodes.length-1)/3,r=(this.nodes[0].length-1)/3;if(&quot;bilinear&quot;===this.type||s&lt;2||r&lt;2){let n;for(let o=0;o&lt;s;++o)for(let s=0;s&lt;r;++s){let r=[];for(let t=3*o,e=3*o+4;t&lt;e;++t)r.push(this.nodes[t].slice(3*s,3*s+4));let i=[];i.push(this.colors[o].slice(s,s+2)),i.push(this.colors[o+1].slice(s,s+2)),(n=new m(r,i)).paint(t,e)}}else{let n,o,a,h,l,d,u;const x=s,g=r;s++,r++;let w=new Array(s);for(let t=0;t&lt;s;++t){w[t]=new Array(r);for(let e=0;e&lt;r;++e)w[t][e]=[],w[t][e][0]=this.nodes[3*t][3*e],w[t][e][1]=this.colors[t][e]}for(let t=0;t&lt;s;++t)for(let e=0;e&lt;r;++e)0!==t&amp;&amp;t!==x&amp;&amp;(n=i(w[t-1][e][0],w[t][e][0]),o=i(w[t+1][e][0],w[t][e][0]),w[t][e][2]=c(w[t-1][e][1],w[t][e][1],w[t+1][e][1],n,o)),0!==e&amp;&amp;e!==g&amp;&amp;(n=i(w[t][e-1][0],w[t][e][0]),o=i(w[t][e+1][0],w[t][e][0]),w[t][e][3]=c(w[t][e-1][1],w[t][e][1],w[t][e+1][1],n,o));for(let t=0;t&lt;r;++t){w[0][t][2]=[],w[x][t][2]=[];for(let e=0;e&lt;4;++e)n=i(w[1][t][0],w[0][t][0]),o=i(w[x][t][0],w[x-1][t][0]),w[0][t][2][e]=n&gt;0?2*(w[1][t][1][e]-w[0][t][1][e])/n-w[1][t][2][e]:0,w[x][t][2][e]=o&gt;0?2*(w[x][t][1][e]-w[x-1][t][1][e])/o-w[x-1][t][2][e]:0}for(let t=0;t&lt;s;++t){w[t][0][3]=[],w[t][g][3]=[];for(let e=0;e&lt;4;++e)n=i(w[t][1][0],w[t][0][0]),o=i(w[t][g][0],w[t][g-1][0]),w[t][0][3][e]=n&gt;0?2*(w[t][1][1][e]-w[t][0][1][e])/n-w[t][1][3][e]:0,w[t][g][3][e]=o&gt;0?2*(w[t][g][1][e]-w[t][g-1][1][e])/o-w[t][g-1][3][e]:0}for(let s=0;s&lt;x;++s)for(let r=0;r&lt;g;++r){let n=i(w[s][r][0],w[s+1][r][0]),o=i(w[s][r+1][0],w[s+1][r+1][0]),c=i(w[s][r][0],w[s][r+1][0]),x=i(w[s+1][r][0],w[s+1][r+1][0]),g=[[],[],[],[]];for(let t=0;t&lt;4;++t){(d=[])[0]=w[s][r][1][t],d[1]=w[s+1][r][1][t],d[2]=w[s][r+1][1][t],d[3]=w[s+1][r+1][1][t],d[4]=w[s][r][2][t]*n,d[5]=w[s+1][r][2][t]*n,d[6]=w[s][r+1][2][t]*o,d[7]=w[s+1][r+1][2][t]*o,d[8]=w[s][r][3][t]*c,d[9]=w[s+1][r][3][t]*x,d[10]=w[s][r+1][3][t]*c,d[11]=w[s+1][r+1][3][t]*x,d[12]=0,d[13]=0,d[14]=0,d[15]=0,u=f(d);for(let e=0;e&lt;9;++e){g[t][e]=[];for(let s=0;s&lt;9;++s)g[t][e][s]=p(u,e/8,s/8),g[t][e][s]&gt;255?g[t][e][s]=255:g[t][e][s]&lt;0&amp;&amp;(g[t][e][s]=0)}}h=[];for(let t=3*s,e=3*s+4;t&lt;e;++t)h.push(this.nodes[t].slice(3*r,3*r+4));l=y(h);for(let s=0;s&lt;8;++s)for(let r=0;r&lt;8;++r)(a=new m(l[s][r],[[[g[0][s][r],g[1][s][r],g[2][s][r],g[3][s][r]],[g[0][s][r+1],g[1][s][r+1],g[2][s][r+1],g[3][s][r+1]]],[[g[0][s+1][r],g[1][s+1][r],g[2][s+1][r],g[3][s+1][r]],[g[0][s+1][r+1],g[1][s+1][r+1],g[2][s+1][r+1],g[3][s+1][r+1]]]])).paint(t,e)}}}transform(t){if(t instanceof x)for(let e=0,s=this.nodes.length;e&lt;s;++e)for(let s=0,r=this.nodes[0].length;s&lt;r;++s)this.nodes[e][s]=this.nodes[e][s].add(t);else if(t instanceof g)for(let e=0,s=this.nodes.length;e&lt;s;++e)for(let s=0,r=this.nodes[0].length;s&lt;r;++s)this.nodes[e][s]=this.nodes[e][s].transform(t)}scale(t){for(let e=0,s=this.nodes.length;e&lt;s;++e)for(let s=0,r=this.nodes[0].length;s&lt;r;++s)this.nodes[e][s]=this.nodes[e][s].scale(t)}}document.querySelectorAll(&quot;rect,circle,ellipse,path,text&quot;).forEach((r,n)=&gt;{let o=r.getAttribute(&quot;id&quot;);o||(o=&quot;patchjs_shape&quot;+n,r.setAttribute(&quot;id&quot;,o));const i=r.style.fill.match(/^url\(\s*&quot;?\s*#([^\s&quot;]+)&quot;?\s*\)/),a=r.style.stroke.match(/^url\(\s*&quot;?\s*#([^\s&quot;]+)&quot;?\s*\)/);if(i&amp;&amp;i[1]){const a=document.getElementById(i[1]);if(a&amp;&amp;&quot;meshgradient&quot;===a.nodeName){const i=r.getBBox();let l=document.createElementNS(s,&quot;canvas&quot;);d(l,{width:i.width,height:i.height});const c=l.getContext(&quot;2d&quot;);let u=c.createImageData(i.width,i.height);const f=new b(a);&quot;objectBoundingBox&quot;===a.getAttribute(&quot;gradientUnits&quot;)&amp;&amp;f.scale(new x(i.width,i.height));const p=a.getAttribute(&quot;gradientTransform&quot;);null!=p&amp;&amp;f.transform(h(p)),&quot;userSpaceOnUse&quot;===a.getAttribute(&quot;gradientUnits&quot;)&amp;&amp;f.transform(new x(-i.x,-i.y)),f.paintMesh(u.data,l.width),c.putImageData(u,0,0);const y=document.createElementNS(t,&quot;image&quot;);d(y,{width:i.width,height:i.height,x:i.x,y:i.y});let g=l.toDataURL();y.setAttributeNS(e,&quot;xlink:href&quot;,g),r.parentNode.insertBefore(y,r),r.style.fill=&quot;none&quot;;const w=document.createElementNS(t,&quot;use&quot;);w.setAttributeNS(e,&quot;xlink:href&quot;,&quot;#&quot;+o);const m=&quot;patchjs_clip&quot;+n,M=document.createElementNS(t,&quot;clipPath&quot;);M.setAttribute(&quot;id&quot;,m),M.appendChild(w),r.parentElement.insertBefore(M,r),y.setAttribute(&quot;clip-path&quot;,&quot;url(#&quot;+m+&quot;)&quot;),u=null,l=null,g=null}}if(a&amp;&amp;a[1]){const o=document.getElementById(a[1]);if(o&amp;&amp;&quot;meshgradient&quot;===o.nodeName){const i=parseFloat(r.style.strokeWidth.slice(0,-2))*(parseFloat(r.style.strokeMiterlimit)||parseFloat(r.getAttribute(&quot;stroke-miterlimit&quot;))||1),a=r.getBBox(),l=Math.trunc(a.width+i),c=Math.trunc(a.height+i),u=Math.trunc(a.x-i/2),f=Math.trunc(a.y-i/2);let p=document.createElementNS(s,&quot;canvas&quot;);d(p,{width:l,height:c});const y=p.getContext(&quot;2d&quot;);let g=y.createImageData(l,c);const w=new b(o);&quot;objectBoundingBox&quot;===o.getAttribute(&quot;gradientUnits&quot;)&amp;&amp;w.scale(new x(l,c));const m=o.getAttribute(&quot;gradientTransform&quot;);null!=m&amp;&amp;w.transform(h(m)),&quot;userSpaceOnUse&quot;===o.getAttribute(&quot;gradientUnits&quot;)&amp;&amp;w.transform(new x(-u,-f)),w.paintMesh(g.data,p.width),y.putImageData(g,0,0);const M=document.createElementNS(t,&quot;image&quot;);d(M,{width:l,height:c,x:0,y:0});let S=p.toDataURL();M.setAttributeNS(e,&quot;xlink:href&quot;,S);const k=&quot;pattern_clip&quot;+n,A=document.createElementNS(t,&quot;pattern&quot;);d(A,{id:k,patternUnits:&quot;userSpaceOnUse&quot;,width:l,height:c,x:u,y:f}),A.appendChild(M),o.parentNode.appendChild(A),r.style.stroke=&quot;url(#&quot;+k+&quot;)&quot;,g=null,p=null,S=null}}})}();
</script>
  <g
     transform="matrix(0.2,0,0,0.2,52.500001,37.26684)"
     id="g2295" />
  <g
     transform="matrix(0.2,0,0,0.2,44.923554,40.208611)"
     id="g12023">
    <svg
       version="1.1"
       id="svg12021"
       width="100%"
       height="100%">
      <path
         d="m 2.65084,16.730289 h 7.2199991 v 0.620003 H 2.65084 Z"
         fill="#000000"
         id="path12005" />
      <path
         d="m 4.4200001,19.69029 c 1.0266666,0 1.7466664,0.506667 2.1599998,1.520001 0.4266663,-0.826666 0.9933329,-1.32 1.6999998,-1.480002 0.1333332,-0.02666 0.2666664,-0.04 0.3999997,-0.04 0.7866668,0 1.3400006,0.220002 1.6600006,0.660002 0.133333,0.186667 0.199999,0.406666 0.2,0.659998 -10e-7,0.546667 -0.246667,0.913334 -0.7399998,1.100001 -0.1199999,0.04 -0.2333336,0.06 -0.3400002,0.06 -0.4133339,0 -0.6600008,-0.18 -0.7399997,-0.540001 -0.013333,-0.05333 -0.020001,-0.106667 -0.020001,-0.16 0,-0.399999 0.1933336,-0.713333 0.5799999,-0.94 0.1199999,-0.06667 0.2466669,-0.113333 0.3800001,-0.14 -0.2800006,-0.173334 -0.6133337,-0.26 -1,-0.26 -0.9066667,0 -1.5466671,0.706667 -1.92,2.119999 -0.026667,0.08 -0.046667,0.160002 -0.06,0.240002 L 6,25.230291 c -0.2266669,0.906666 -0.3400002,1.493332 -0.3400002,1.760001 0,0.693332 0.2466665,1.113332 0.7399998,1.259998 0.1066666,0.04 0.2266665,0.06 0.3600002,0.06 0.6666665,0 1.273333,-0.333334 1.8200001,-1 0.3599997,-0.426666 0.6399994,-0.966667 0.8400002,-1.620001 0.039999,-0.146665 0.1266651,-0.219999 0.2599993,-0.219999 0.1600008,0 0.2400007,0.06667 0.2400007,0.199999 0,0.333334 -0.206667,0.813334 -0.6199999,1.440001 -0.7200003,1.093334 -1.5799999,1.639999 -2.5800004,1.639999 -0.9066672,0 -1.5666671,-0.379999 -1.98,-1.139999 -0.08,-0.119999 -0.1400004,-0.246666 -0.1799999,-0.38 -0.3200001,0.64 -0.7600002,1.086666 -1.3199999,1.340001 -0.2533333,0.119998 -0.5133335,0.179998 -0.78,0.179998 -0.8,0 -1.3600001,-0.233334 -1.68000009,-0.699999 -0.13333326,-0.173333 -0.19999999,-0.38 -0.19999993,-0.62 -6e-8,-0.493332 0.21333331,-0.84 0.63999992,-1.039999 0.1466667,-0.08 0.3000001,-0.120001 0.46,-0.120001 0.4,0 0.6399998,0.166668 0.72,0.5 0.013333,0.06667 0.02,0.133334 0.02,0.200001 -2e-7,0.453333 -0.2266667,0.786667 -0.6799998,1 -0.08,0.04 -0.1666667,0.06667 -0.26,0.08 0.2799999,0.173332 0.6133332,0.26 1,0.26 0.7066665,0 1.2666664,-0.473333 1.6799998,-1.42 0.08,-0.200001 0.1533332,-0.42 0.2200003,-0.66 C 5.0999999,23.510292 5.46,21.923624 5.46,21.470291 c -0.08,-0.826668 -0.4400005,-1.273334 -1.0799999,-1.34 -0.6933336,0 -1.3266668,0.353333 -1.9000001,1.059999 v 0.02 c 0,0.01333 -0.00667,0.02 -0.02,0.02 -0.2000002,0.266667 -0.3800001,0.573334 -0.5400002,0.92 -0.066667,0.16 -0.1266665,0.32 -0.1799998,0.48 L 1.7,22.750289 c -0.026667,0.146667 -0.1133333,0.220001 -0.26,0.220001 -0.16,0 -0.2400001,-0.06667 -0.24,-0.200001 -1e-7,-0.333332 0.2133333,-0.813331 0.64,-1.439998 0.72,-1.093334 1.5799999,-1.640002 2.5800002,-1.640002 z"
         fill="#000000"
         id="path12007" />
      <path
         d="m 18.786131,25.07029 h 11.94 c 0.426667,0 0.653334,0.133335 0.680001,0.400001 0,0.266667 -0.220001,0.4 -0.66,0.4 h -11.98 c -0.426668,0 -0.646667,-0.133333 -0.659999,-0.4 0,-0.266666 0.226665,-0.400001 0.679998,-0.400001 z m -0.02,-3.88 h 11.98 c 0.426666,0 0.646665,0.133334 0.66,0.4 0,0.266666 -0.226668,0.400002 -0.680001,0.400002 h -11.94 c -0.426666,0 -0.653334,-0.133336 -0.679998,-0.400002 0,-0.266666 0.219999,-0.4 0.659999,-0.4 z"
         fill="#000000"
         id="path12009" />
      <path
         d="m 39.777325,0 h 16.579998 l 1.720001,4.6799998 h -0.5 c -0.946667,-2.5333333 -3.553333,-3.82666651 -7.82,-3.87999997 h -0.459999 -7.920002 l 6.5,8.91999947 C 47.970657,9.8533325 48.017326,9.9466667 48.017326,10 c 0,0.05333 -0.06,0.16 -0.18,0.32 l -6.940002,8.58 h 8.5 c 1.853332,0 3.400001,-0.193335 4.639999,-0.58 1.440002,-0.493334 2.5,-1.326668 3.18,-2.5 0.146668,-0.253334 0.266667,-0.520001 0.360001,-0.8 h 0.5 L 56.357323,20 H 39.777325 c -0.333332,0 -0.513333,-0.07333 -0.540001,-0.220001 0,-0.06667 0.06,-0.173332 0.18,-0.32 l 7.100002,-8.78 -7.300003,-10.0399989 c 0,-0.34666678 0.04,-0.54666677 0.120003,-0.60000002 C 39.403992,0.01333333 39.550659,0 39.777325,0 Z"
         fill="#000000"
         id="path12011" />
      <path
         d="m 66.961845,6.1601295 c 1.026665,0 1.746666,0.5066672 2.160004,1.5200005 0.426666,-0.8266659 0.993332,-1.3199997 1.699997,-1.4800005 0.133331,-0.026666 0.26667,-0.04 0.400002,-0.04 0.786666,0 1.339996,0.2200013 1.660003,0.6600008 0.133331,0.186667 0.199997,0.4066668 0.199997,0.6599994 0,0.5466666 -0.246666,0.9133334 -0.739998,1.0999999 -0.120002,0.040001 -0.233337,0.060001 -0.340004,0.06 -0.41333,1e-6 -0.660003,-0.1799993 -0.739998,-0.5399999 -0.01334,-0.053333 -0.02,-0.1066671 -0.02,-0.1600003 0,-0.3999997 0.193337,-0.7133327 0.580002,-0.9400001 0.120003,-0.066666 0.246666,-0.1133327 0.379997,-0.1399994 -0.279999,-0.1733332 -0.613327,-0.2600002 -1,-0.2600002 -0.906662,0 -1.546661,0.7066669 -1.919998,2.1199999 -0.02667,0.080001 -0.04666,0.1600008 -0.06,0.2399997 L 68.541847,11.70013 c -0.226669,0.906666 -0.340004,1.493333 -0.340004,1.76 0,0.693333 0.246674,1.113333 0.740006,1.26 0.106666,0.04 0.226661,0.06 0.36,0.06 0.666664,0 1.273331,-0.333333 1.82,-1 0.360001,-0.426666 0.639999,-0.966666 0.839996,-1.619999 0.04,-0.146667 0.126671,-0.22 0.260003,-0.22 0.160003,0 0.239997,0.06667 0.239997,0.2 0,0.333333 -0.206665,0.813334 -0.619995,1.44 -0.720001,1.093333 -1.580002,1.64 -2.580002,1.64 -0.906669,0 -1.566665,-0.38 -1.980003,-1.14 -0.08,-0.12 -0.139999,-0.246667 -0.18,-0.38 -0.32,0.64 -0.759995,1.086667 -1.32,1.34 -0.253334,0.12 -0.513328,0.18 -0.779999,0.18 -0.799995,0 -1.36,-0.233334 -1.68,-0.7 -0.133331,-0.173334 -0.199997,-0.38 -0.199997,-0.620001 0,-0.493333 0.213333,-0.839999 0.639999,-1.039999 0.146664,-0.08 0.299996,-0.120001 0.46,-0.120001 0.400001,0 0.639999,0.166667 0.720001,0.5 0.01333,0.06667 0.02,0.133334 0.02,0.200001 0,0.453333 -0.226661,0.786666 -0.68,0.999999 -0.07999,0.04 -0.166664,0.06667 -0.259994,0.08 0.279998,0.173333 0.613327,0.259999 1,0.259999 0.706665,0 1.266662,-0.473333 1.679992,-1.42 0.08,-0.199999 0.153336,-0.419999 0.220001,-0.659999 0.720002,-2.7199998 1.080002,-4.3066669 1.080002,-4.7600002 -0.08,-0.8266669 -0.440002,-1.2733331 -1.080002,-1.3399997 -0.693328,0 -1.32666,0.3533335 -1.899993,1.0599999 v 0.02 c 0,0.013333 -0.0067,0.02 -0.02,0.02 -0.199997,0.2666669 -0.379997,0.5733342 -0.540001,0.9200005 -0.06667,0.1599999 -0.126663,0.3199997 -0.18,0.4799996 l -0.04,0.1199999 c -0.02666,0.1466665 -0.113327,0.2200002 -0.259998,0.2200002 -0.16,0 -0.239998,-0.066668 -0.239998,-0.2000007 0,-0.3333321 0.213333,-0.8133326 0.639996,-1.4399996 0.720001,-1.0933333 1.580001,-1.6400004 2.580001,-1.6400004 z"
         fill="#000000"
         id="path12013" />
      <path
         d="m 76.226402,11.81213 c 0.494667,0 0.840004,0.209999 1.036003,0.629999 0.07467,0.158667 0.112,0.331334 0.112,0.518001 0,0.186666 -0.06067,0.434 -0.181999,0.741999 -0.158669,0.429334 -0.261338,0.700001 -0.307999,0.812001 l -0.546005,1.47 c -0.26133,0.755999 -0.396668,1.222667 -0.405998,1.4 0,0.307999 0.111999,0.462 0.335998,0.462 0.588005,0 1.045334,-0.522667 1.372002,-1.568 l 0.056,-0.168 c 0.04667,-0.149334 0.09334,-0.228667 0.139999,-0.238001 v -0.014 h 0.07 c 0.111999,0 0.167999,0.04667 0.167999,0.14 0,0.168 -0.102661,0.466666 -0.307999,0.895999 -0.401329,0.84 -0.909996,1.26 -1.526001,1.26 -0.494667,0 -0.839996,-0.205332 -1.035995,-0.615999 -0.07467,-0.167999 -0.112,-0.345333 -0.112,-0.532 0,-0.186666 0.107331,-0.560001 0.321999,-1.120001 0.653335,-1.754666 0.975334,-2.618 0.965996,-2.59 0.102668,-0.261332 0.153999,-0.503999 0.153999,-0.727999 0,-0.298667 -0.116661,-0.448 -0.349999,-0.448 -0.513328,0 -0.933334,0.424666 -1.259994,1.274 v 0.014 c -0.056,0.14 -0.107338,0.289333 -0.154007,0.448 -0.102661,0.158666 -0.17733,0.242667 -0.223999,0.252 -0.112,0 -0.167999,-0.04667 -0.167999,-0.14 0,-0.168 0.102668,-0.462 0.307998,-0.882 0.401337,-0.849334 0.914673,-1.274 1.540001,-1.274 z m 1.204003,-3.066001 c 0.279998,0 0.447998,0.1260004 0.503997,0.3780003 v 0.014 c 0.0093,0.037334 0.014,0.074667 0.014,0.1120005 0,0.2893333 -0.144661,0.508667 -0.433998,0.658 -0.102668,0.056001 -0.20533,0.084001 -0.307998,0.084 -0.279999,10e-7 -0.452668,-0.1259994 -0.517998,-0.3780002 -0.0093,-0.046666 -0.014,-0.088666 -0.014,-0.1259995 0,-0.2613334 0.130661,-0.4713335 0.391998,-0.6300001 0.121331,-0.074667 0.242668,-0.1120005 0.363999,-0.112001 z"
         fill="#000000"
         id="path12015" />
      <rect
         x="38.097324"
         y="23.130301"
         width="41.198265"
         height="0.79997998"
         id="rect12017" />
      <path
         d="m 55.374107,33.409309 c 0.746666,0 1.286667,0.313332 1.619999,0.940003 0.119999,0.239998 0.193333,0.506664 0.220002,0.799999 0.853332,-1.16 1.893333,-1.740002 3.119998,-1.740002 1.146668,0 1.873333,0.440003 2.180001,1.32 0.08,0.240002 0.119999,0.513336 0.119999,0.82 0,0.68 -0.406666,2.146667 -1.219998,4.400001 -0.240001,0.586666 -0.36,1.059998 -0.36,1.419998 0,0.440003 0.16,0.66 0.479999,0.66 0.880001,0 1.560002,-0.826664 2.040001,-2.479999 0.06667,-0.213333 0.133331,-0.326664 0.200001,-0.34 v -0.02 h 0.1 c 0.159996,0 0.239998,0.06667 0.239998,0.200001 0,0.226665 -0.139999,0.646667 -0.419998,1.260002 -0.573334,1.213333 -1.306667,1.82 -2.200001,1.82 -0.68,0 -1.166668,-0.286667 -1.459999,-0.860001 -0.119999,-0.240002 -0.18,-0.5 -0.18,-0.779999 0,-0.26667 0.06667,-0.573333 0.200001,-0.920002 0.866665,-2.333332 1.299999,-3.886665 1.299999,-4.659999 0,-0.933335 -0.360001,-1.399998 -1.079998,-1.399998 -1.200001,0 -2.206669,0.666664 -3.020001,2 -0.09333,0.146663 -0.173336,0.293331 -0.240001,0.439998 l -0.259999,1 c -0.06667,0.306668 -0.18,0.753335 -0.34,1.340001 l -0.440002,1.799999 c -0.226666,0.919998 -0.353333,1.413334 -0.379997,1.479999 -0.120003,0.346669 -0.366669,0.533333 -0.740002,0.560002 -0.333332,-0.06667 -0.526669,-0.24667 -0.579998,-0.540001 -4e-6,0.02667 0.06,-0.260002 0.179996,-0.860001 l 1.16,-4.619999 c 0.213333,-0.853332 0.32,-1.413334 0.320004,-1.68 -4e-6,-0.613335 -0.206669,-0.919998 -0.620003,-0.919998 -0.546665,0 -0.993332,0.633331 -1.34,1.899998 -0.04,0.146667 -0.08,0.306667 -0.119999,0.479999 -0.146668,0.293335 -0.259998,0.446667 -0.34,0.459999 -0.16,0 -0.239998,-0.06667 -0.239998,-0.199997 0,-0.213333 0.133331,-0.693336 0.399998,-1.440002 v -0.02 c 0,-0.01333 0.0067,-0.02 0.02,-0.02 v -0.02 -0.02 l 0.18,-0.420002 c 0.293332,-0.533333 0.593335,-0.866665 0.900002,-1 0.186664,-0.09333 0.386665,-0.14 0.599998,-0.14 z"
         fill="#000000"
         id="path12019" />
    </svg>
  </g>
</svg>
