<?xml version="1.0" encoding="UTF-8" standalone="no"?>
<!-- Created with Inkscape (http://www.inkscape.org/) -->

<svg
   width="125mm"
   height="88mm"
   viewBox="0 0 125 88"
   version="1.1"
   id="svg5"
   sodipodi:docname="mtr.svg"
   inkscape:version="1.1.1 (3bf5ae0d25, 2021-09-20)"
   xmlns:inkscape="http://www.inkscape.org/namespaces/inkscape"
   xmlns:sodipodi="http://sodipodi.sourceforge.net/DTD/sodipodi-0.dtd"
   xmlns="http://www.w3.org/2000/svg"
   xmlns:svg="http://www.w3.org/2000/svg">
  <sodipodi:namedview
     id="namedview7"
     pagecolor="#ffffff"
     bordercolor="#666666"
     borderopacity="1.0"
     inkscape:pageshadow="2"
     inkscape:pageopacity="0.0"
     inkscape:pagecheckerboard="0"
     inkscape:document-units="mm"
     showgrid="false"
     inkscape:zoom="0.46324355"
     inkscape:cx="383.16778"
     inkscape:cy="387.48516"
     inkscape:window-width="1366"
     inkscape:window-height="705"
     inkscape:window-x="-8"
     inkscape:window-y="-8"
     inkscape:window-maximized="1"
     inkscape:current-layer="layer1" />
  <defs
     id="defs2">
    <filter
       inkscape:collect="always"
       style="color-interpolation-filters:sRGB"
       id="filter2942"
       x="-0.07895389"
       y="-0.113258"
       width="1.1579078"
       height="1.226516">
      <feGaussianBlur
         inkscape:collect="always"
         stdDeviation="3.9082177"
         id="feGaussianBlur2944" />
    </filter>
  </defs>
  <g
     inkscape:label="Layer 1"
     inkscape:groupmode="layer"
     id="layer1">
    <text
       xml:space="preserve"
       style="font-style:normal;font-weight:normal;font-size:28.5483px;line-height:1.25;font-family:sans-serif;fill:#000000;fill-opacity:1;stroke:none;stroke-width:0.713709"
       x="41.734783"
       y="29.123621"
       id="text627"
       transform="scale(0.76913007,1.3001702)"><tspan
         sodipodi:role="line"
         id="tspan625"
         style="stroke-width:0.713709"
         x="41.734783"
         y="29.123621">matrik</tspan></text>
    <g
       inkscape:label="Rendered Gears"
       transform="rotate(6.4776781,-539.12763,448.18275)"
       id="g1926">
      <path
         style="fill:none;stroke:#000000;stroke-width:0.264583"
         d="m 18.4685,-1.48722 0.4639,-0.03736 1.237,0.20261 1.7194,0.71941 V 0.60256 L 20.1694,1.32197 18.9324,1.52458 18.4685,1.48722 18.2241,3.34345 18.6819,3.42744 19.8243,3.9433 21.2989,5.08321 20.987,6.24726 19.14,6.49715 17.8927,6.3727 17.4543,6.21655 l -0.7165,1.72973 0.4204,0.1996 0.97,0.79396 1.1293,1.48276 -0.6025,1.0436 -1.8488,-0.2366 -1.1725,-0.4431 -0.3831,-0.2643 -1.1398,1.4854 0.3545,0.3016 0.7314,1.0179 0.7071,1.7245 -0.8522,0.8522 -1.7245,-0.7071 -1.0179,-0.7314 -0.3016,-0.3545 -1.4854,1.1398 0.2643,0.3831 0.4431,1.1725 0.2366,1.8488 -1.0436,0.6025 L 8.93984,18.1282 8.14588,17.1582 7.94628,16.7378 6.21655,17.4543 6.3727,17.8927 6.49715,19.14 6.24726,20.987 5.08321,21.2989 3.9433,19.8243 3.42744,18.6819 3.34345,18.2241 l -1.85623,0.2444 0.03736,0.4639 -0.20261,1.237 -0.71941,1.7194 h -1.20512 l -0.71941,-1.7194 -0.20261,-1.237 0.03736,-0.4639 -1.85623,-0.2444 -0.08399,0.4578 -0.51586,1.1424 -1.13991,1.4746 -1.16405,-0.3119 -0.24989,-1.847 0.12445,-1.2473 0.15615,-0.4384 -1.72973,-0.7165 -0.1996,0.4204 -0.79396,0.97 -1.48276,1.1293 -1.0436,-0.6025 0.2366,-1.8488 0.4431,-1.1725 0.2643,-0.3831 -1.4854,-1.1398 -0.3016,0.3545 -1.0179,0.7314 -1.7245,0.7071 -0.8522,-0.8522 0.7071,-1.7245 0.7314,-1.0179 0.3545,-0.3016 -1.1398,-1.4854 -0.3831,0.2643 -1.1725,0.4431 -1.8488,0.2366 -0.6025,-1.0436 1.1293,-1.48276 0.97,-0.79396 0.4204,-0.1996 -0.7165,-1.72973 -0.4384,0.15615 -1.2473,0.12445 -1.847,-0.24989 -0.3119,-1.16405 1.4746,-1.13991 1.1424,-0.51586 0.4578,-0.08399 -0.2444,-1.85623 -0.4639,0.03736 -1.237,-0.20261 -1.7194,-0.71941 v -1.20512 l 1.7194,-0.71941 1.237,-0.20261 0.4639,0.03736 0.2444,-1.85623 -0.4578,-0.08399 -1.1424,-0.51586 -1.4746,-1.13991 0.3119,-1.16405 1.847,-0.24989 1.2473,0.12445 0.4384,0.15615 0.7165,-1.72973 -0.4204,-0.1996 -0.97,-0.79396 -1.1293,-1.48276 0.6025,-1.0436 1.8488,0.2366 1.1725,0.4431 0.3831,0.2643 1.1398,-1.4854 -0.3545,-0.3016 -0.7314,-1.0179 -0.7071,-1.7245 0.8522,-0.8522 1.7245,0.7071 1.0179,0.7314 0.3016,0.3545 1.4854,-1.1398 -0.2643,-0.3831 -0.4431,-1.1725 -0.2366,-1.8488 1.0436,-0.6025 1.48276,1.1293 0.79396,0.97 0.1996,0.4204 1.72973,-0.7165 -0.15615,-0.4384 -0.12445,-1.2473 0.24989,-1.847 1.16405,-0.3119 1.13991,1.4746 0.51586,1.1424 0.08399,0.4578 1.85623,-0.2444 -0.03736,-0.4639 0.20261,-1.237 0.71941,-1.7194 h 1.20512 l 0.71941,1.7194 0.20261,1.237 -0.03736,0.4639 1.85623,0.2444 0.08399,-0.4578 0.51586,-1.1424 1.13991,-1.4746 1.16405,0.3119 0.24989,1.847 -0.12445,1.2473 -0.15615,0.4384 1.72973,0.7165 0.1996,-0.4204 0.79396,-0.97 1.48276,-1.1293 1.0436,0.6025 -0.2366,1.8488 -0.4431,1.1725 -0.2643,0.3831 1.4854,1.1398 0.3016,-0.3545 1.0179,-0.7314 1.7245,-0.7071 0.8522,0.8522 -0.7071,1.7245 -0.7314,1.0179 -0.3545,0.3016 1.1398,1.4854 0.3831,-0.2643 1.1725,-0.4431 1.8488,-0.2366 0.6025,1.0436 -1.1293,1.48276 -0.97,0.79396 -0.4204,0.1996 0.7165,1.72973 0.4384,-0.15615 1.2473,-0.12445 1.847,0.24989 0.3119,1.16405 -1.4746,1.13991 -1.1424,0.51586 -0.4578,0.08399 z"
         id="path1922" />
      <circle
         style="fill:none;stroke:#000000;stroke-width:0.264583"
         id="path1924"
         cx="0"
         cy="0"
         r="2.6458333" />
    </g>
    <rect
       style="fill:#160080;fill-rule:evenodd;stroke-width:1.55962;fill-opacity:1;opacity:0.38617886;filter:url(#filter2942)"
       id="rect1955"
       width="118.8"
       height="82.817307"
       x="3.9980769"
       y="3.9980769" />
  </g>
</svg>
